<svg version="1.1" id="Layer_1" xmlns="http://www.w3.org/2000/svg" xmlns:xlink="http://www.w3.org/1999/xlink" x="0px" y="0px" viewBox="0 0 115 26" enable-background="new 0 0 115 26" xml:space="preserve" fit="" height="100%" width="100%" preserveaspectratio="xMidYMid meet" viewbox="0 0 24 24" style="pointer-events: none; display: block;">

<g>
	<path fill="#00568D" d="M5.7,1.4h2.4v8.7h4.3v2H5.7V1.4z"></path>
	<path fill="#00568D" d="M20.2,7.6h-3.9v2.5h4.4v2h-6.8V1.4h6.6v2h-4.2v2.2h3.9V7.6z"></path>
	<path fill="#00568D" d="M22.4,12.1V1.4h2.8l2.2,3.9c0.6,1.1,1.3,2.5,1.8,3.7h0C29.1,7.6,29,6.1,29,4.5V1.4h2.2v10.7h-2.5L26.4,8
		c-0.6-1.1-1.3-2.5-1.9-3.8l0,0c0.1,1.4,0.1,2.9,0.1,4.7v3.2H22.4z"></path>
	<path fill="#00568D" d="M33.3,1.5c0.9-0.1,2.1-0.2,3.3-0.2c2,0,3.4,0.4,4.4,1.1c1.1,0.8,1.8,2.1,1.8,4c0,2.1-0.7,3.5-1.8,4.3
		c-1.1,0.9-2.8,1.4-4.9,1.4c-1.3,0-2.1-0.1-2.8-0.2V1.5z M35.8,10.3c0.2,0,0.5,0,0.8,0c2.2,0,3.6-1.2,3.6-3.8c0-2.2-1.3-3.4-3.4-3.4
		c-0.5,0-0.9,0-1.1,0.1V10.3z"></path>
	<path fill="#00568D" d="M46.8,1.4v10.7h-2.4V1.4H46.8z"></path>
	<path fill="#00568D" d="M48.9,12.1V1.4h2.8L54,5.3c0.6,1.1,1.3,2.5,1.8,3.7h0c-0.2-1.4-0.2-2.9-0.2-4.5V1.4h2.2v10.7h-2.5L53,8
		c-0.6-1.1-1.3-2.5-1.9-3.8l0,0c0.1,1.4,0.1,2.9,0.1,4.7v3.2H48.9z"></path>
	<path fill="#00568D" d="M68.9,11.6c-0.7,0.3-2.2,0.6-3.6,0.6c-2,0-3.4-0.5-4.4-1.4c-1-0.9-1.5-2.3-1.5-3.9c0-3.6,2.6-5.6,6.1-5.6
		c1.4,0,2.5,0.3,3,0.5L68,3.8c-0.6-0.3-1.3-0.5-2.5-0.5c-2,0-3.5,1.1-3.5,3.5c0,2.2,1.4,3.5,3.4,3.5c0.6,0,1-0.1,1.2-0.2V7.9h-1.7V6
		h4V11.6z"></path>
	<path fill="#00568D" d="M70.8,1.4h2.4v4.7h0C73.5,5.7,73.7,5.4,74,5l2.4-3.6h3L75.8,6l3.7,6.2h-2.8l-2.6-4.6l-0.9,1.1v3.5h-2.4V1.4
		z"></path>
	<path fill="#00568D" d="M83.2,9.4l-0.8,2.8H80l3.3-10.7h3.2l3.3,10.7h-2.6l-0.8-2.8H83.2z M86,7.6l-0.7-2.3
		c-0.2-0.6-0.4-1.4-0.5-2.1h0c-0.2,0.6-0.3,1.4-0.5,2.1l-0.6,2.3H86z"></path>
	<path fill="#00568D" d="M104.5,3.4h-2.9v-2h8.2v2H107v8.7h-2.4V3.4z"></path>
	<g>
		<path fill="#F98339" d="M91.5,1.4h7.8v0c-0.5,0.7-0.7,1.1-0.8,1.1h-2.1c0.3,0.3,0.5,0.7,0.6,1.2h2.2c0,0,0,0,0,0
			c-0.5,0.7-0.7,1.1-0.8,1.1h-1.4c0,0.4-0.2,0.8-0.5,1.4c-0.4,0.5-0.9,0.9-1.3,1.1c-0.8,0.4-1.5,0.5-2.2,0.5v0
			c0,0.1,1.6,1.9,4.7,5.6h-2.1c-3-3.5-4.6-5.3-4.6-5.3V7.1l0,0c0.3,0,0.6,0.1,0.9,0.1c1.7,0,2.8-0.6,3.2-1.7
			c0.1-0.2,0.1-0.3,0.1-0.5h-4.6c0,0,0,0,0,0c0.5-0.7,0.8-1.1,0.8-1.1h3.7v0C95,3.3,94.6,3,94,2.8c-0.4-0.1-0.8-0.2-1.2-0.2h-2v0
			C91.2,1.8,91.5,1.4,91.5,1.4z"></path>
	</g>
</g>
</svg>