<svg xmlns="http://www.w3.org/2000/svg" xmlns:xlink="http://www.w3.org/1999/xlink" version="1.1" x="0px" y="0px" viewBox="0 0 100 125" enable-background="new 0 0 100 100" xml:space="preserve"><g><path d="M41.087,9.509c-0.001-0.001-0.003-0.002-0.004-0.003c-0.007,0.002-0.016,0.003-0.023,0.005L41.087,9.509z"/><path d="M59.025,9.529c-0.035-0.007-0.075-0.015-0.108-0.023c-0.007,0.005-0.013,0.007-0.02,0.012L59.025,9.529z"/><path d="M49.933,18.787c6.637,0,8.042-6.992,8.3-8.865c-2.605,1.503-5.496,1.301-8.167,1.301h-0.131   c-2.721,0-5.67,0.208-8.312-1.389C41.843,11.545,43.174,18.787,49.933,18.787z"/><path d="M24.627,12.426c-0.138,0.043-0.25,0.083-0.324,0.12c-0.007,0.003-0.02,0.01-0.028,0.013L24.627,12.426z"/><path d="M75.697,12.546c-1.275-0.638-12.868-2.257-16.418-2.964c-0.057,0.585-1.139,10.206-9.346,10.206   c-8.107,0-9.261-9.385-9.344-10.18c-3.407,0.664-13.312,2.067-15.815,2.775c0.45,1.192,4.022,11.717-2.874,28.687   c-0.216,6.074-1.295,45.213-1.295,48.234c0.264,0.661,0.133,0.661,0.792,0.793c0.66,0.133,25.631,0.396,28.537,0.396h0.131   c2.906,0,27.876-0.264,28.539-0.396c0.659-0.133,0.527-0.133,0.791-0.793c0-3.17-1.188-46.108-1.321-48.883   c-0.002-0.044,0-0.079-0.001-0.121C72.622,26.43,73.58,16.247,75.05,12.372l0.936,0.354c-1.37,3.61-2.265,12.936,2.472,25.792   c0.433-0.552,1.07-0.342,1.07-0.342s6.737,0.397,8.323,0.397c0,0,5.945-13.608,7.135-17.043   C93.663,20.868,77.017,13.207,75.697,12.546z M50.064,22.032H49.8c-10.24,0-11.582-11.823-11.595-11.942L39.2,9.987   c0.003,0.028,0.311,2.834,1.791,5.589c1.945,3.621,4.909,5.457,8.809,5.457h0.264c9.35,0,10.589-10.935,10.601-11.045l0.994,0.103   C61.647,10.21,60.304,22.032,50.064,22.032z"/><path d="M21.707,38.8c5.713-15.388,2.595-24.821,2.142-26.035c-2.992,1.421-17.6,8.148-18.835,8.765   c1.189,3.435,7.135,17.043,7.135,17.043c1.586,0,8.323-0.397,8.323-0.397S21.298,37.906,21.707,38.8z"/></g></svg>
