<svg xmlns="http://www.w3.org/2000/svg" xmlns:xlink="http://www.w3.org/1999/xlink" version="1.1" x="0px" y="0px" viewBox="0 0 100 125" enable-background="new 0 0 100 100" xml:space="preserve"><path d="M50.159,26.263c6.605-0.006,11.964-5.214,11.964-11.631c0-6.437-5.357-11.646-11.964-11.632  c-6.612-0.015-11.969,5.195-11.964,11.632C38.189,21.049,43.547,26.257,50.159,26.263L50.159,26.263z"/><path d="M50.159,50.605H37.475v-8.925l-9.658,9.485c-4.376,4.253-10.3-1.194-5.911-5.466l16-15.605  c1.306-1.243,2.728-2.04,4.998-2.057h7.255l0,0h7.113c2.241,0.018,3.762,0.791,5.092,2.057l16.191,15.79  c4.165,4.034-1.918,9.534-5.909,5.419l-9.946-9.67v8.972H50.159L50.159,50.605L50.159,50.605z"/><g><path d="M47.577,65.978L37.53,56.212c-2.587,21.116-4.38,36.348-4.38,36.348h7.652C44.27,80.002,47.577,65.978,47.577,65.978z"/><path d="M40.748,92.781c0,2.04-1.701,3.693-3.798,3.693l0,0c-2.098,0-3.799-1.653-3.799-3.693l0,0c0-2.041,1.701-3.694,3.799-3.694   l0,0C39.047,89.087,40.748,90.74,40.748,92.781L40.748,92.781z"/><polygon points="40.659,93.57 43.263,83.344 39.907,81.29 38.484,88.424 37.688,93.57  "/></g><g><path d="M52.741,65.978l10.046-9.766c2.588,21.116,4.382,36.348,4.382,36.348h-7.652C56.048,80.002,52.741,65.978,52.741,65.978z"/><path d="M59.572,92.781c0,2.04,1.698,3.693,3.796,3.693l0,0c2.099,0,3.801-1.653,3.801-3.693l0,0c0-2.041-1.702-3.694-3.801-3.694   l0,0C61.271,89.087,59.572,90.74,59.572,92.781L59.572,92.781z"/><polygon points="59.659,93.57 57.056,83.344 60.412,81.29 61.834,88.424 62.629,93.57  "/></g></svg>
