<svg xmlns="http://www.w3.org/2000/svg" xmlns:xlink="http://www.w3.org/1999/xlink" version="1.1" x="0px" y="0px" viewBox="0 0 100 125" enable-background="new 0 0 100 100" xml:space="preserve"><path d="M44.448,60.367h-9.557c-1.591,0-2.892,1.302-2.892,2.895v28.844C32,93.697,33.301,95,34.892,95h9.557  c1.591,0,2.892-1.303,2.892-2.895V63.262C47.34,61.669,46.039,60.367,44.448,60.367z M38.977,90.916  c-1.592,0-2.892-1.303-2.892-2.895V67.346c0-1.593,1.3-2.895,2.892-2.895V90.916z M65.108,35.949H53.525  c-1.591,0-2.896,1.302-2.896,2.895v53.262c0,1.592,1.305,2.895,2.896,2.895h11.583C66.699,95,68,93.697,68,92.105V38.843  C68,37.251,66.699,35.949,65.108,35.949z M57.609,90.916c-1.591,0-2.896-1.303-2.896-2.895V42.928c0-1.592,1.305-2.895,2.896-2.895  V90.916z M64.669,26.313c0-1.283-1.049-2.334-2.333-2.334h-6.96c-1.288,0-2.337,1.051-2.337,2.334v8.152h11.63V26.313z   M37.775,58.734h3.789v-18.57h-3.789V58.734z M38.649,38.113h2.042v-1.798h4.132v-1.532h-4.132v-1.244h4.132v-1.532h-4.132v-1.244  h4.132v-1.532h-4.132v-1.244h4.132v-1.532h-4.132v-1.245h4.132V23.68h-4.132v-1.245h4.132v-1.531h-4.132v-1.245h4.132v-1.531h-4.132  v-1.245h4.132v-1.531h-4.132v-1.245h4.132v-1.531h-4.132v-1.311h3.286v-1.4h-3.286v-1.18h2.325V7.452h-2.325V6.596h1.28V5.573h-1.28  V5h-2.042v0.573h-1.28v1.023h1.28v0.855h-2.325v1.234h2.325v1.18h-3.287v1.4h3.287v1.311h-4.133v1.531h4.133v1.245h-4.133v1.531  h4.133v1.245h-4.133v1.531h4.133v1.245h-4.133v1.531h4.133v1.245h-4.133v1.531h4.133v1.245h-4.133v1.532h4.133v1.244h-4.133v1.532  h4.133v1.244h-4.133v1.532h4.133v1.244h-4.133v1.532h4.133V38.113z"/></svg>
