<svg xmlns="http://www.w3.org/2000/svg" xmlns:xlink="http://www.w3.org/1999/xlink" version="1.1" x="0px" y="0px" viewBox="0 0 100 125" enable-background="new 0 0 100 100" xml:space="preserve"><path d="M88,94H12c-1.104,0-2,0.896-2,2s0.896,2,2,2h76c1.104,0,2-0.896,2-2S89.104,94,88,94z M58,61  c-5,0-9,13-15,13s-11.001-8-17-8s-12,8-12,8v18h72V61c0,0-7,13-13,13S63,61,58,61z M26,59c7,0,12,8.823,17,8.823s8-13.699,15-13.699  s10,11.938,15,11.938S88,50,88,50s0-3,0-9c0-3.362-8.596-5.592-20-6.693V21c0-1.657-1.344-3-3-3s-3,1.343-3,3v12.844  c-2.922-0.172-5.947-0.279-9-0.321V19c0-1.657-1.344-3-3-3s-3,1.343-3,3v14.523c-3.053,0.042-6.079,0.149-9,0.321V21  c0-1.657-1.343-3-3-3s-3,1.343-3,3v13.307C20.595,35.408,12,37.638,12,41c0,6,0,28,0,28S20,59,26,59z M35,16c1.988,0,4-1,4-3  c0-4-3-4-1-9c-5,1-7,5-7,9C31,15,33.012,16,35,16z M50,14c1.988,0,4-1,4-3c0-4-3-4-1-9c-5,1-7,5-7,9C46,13,48.012,14,50,14z M65,16  c1.988,0,4-1,4-3c0-4-3-4-1-9c-5,1-7,5-7,9C61,15,63.012,16,65,16z"/></svg>