<svg xmlns="http://www.w3.org/2000/svg" xmlns:xlink="http://www.w3.org/1999/xlink" version="1.1" x="0px" y="0px" viewBox="0 0 100 125" enable-background="new 0 0 100 100" xml:space="preserve"><path d="M87.879,15.097H71.968v5.736h15.911V15.097z M94.482,23.214H5.524C2.475,23.214,0,25.686,0,28.735V79.38  c0,3.05,2.475,5.522,5.525,5.522h88.958c3.044,0,5.518-2.473,5.518-5.522V28.735C100,25.686,97.526,23.214,94.482,23.214z   M31.604,38.086H8.227v-7.232h23.376V38.086z M64.289,76.635C52.477,76.635,42.9,67.06,42.9,55.25  c0-11.813,9.576-21.389,21.389-21.389c11.81,0,21.386,9.575,21.386,21.389C85.675,67.06,76.099,76.635,64.289,76.635z   M64.289,38.714c-9.135,0-16.538,7.401-16.538,16.536c0,9.131,7.403,16.535,16.538,16.535c9.132,0,16.533-7.404,16.533-16.535  C80.822,46.115,73.421,38.714,64.289,38.714z"/></svg>
