<svg xmlns="http://www.w3.org/2000/svg" xmlns:xlink="http://www.w3.org/1999/xlink" version="1.1" x="0px" y="0px" viewBox="0 0 48 48" enable-background="new 0 0 100 100" xml:space="preserve"> <g
     id="layer1">
  
    <g
       transform="translate(-109.35,-378.64998)"
       id="g310">
      <path
         d="m 117,418.9 h 16.1 V 385.3 H 117 v 33.6 z m 6.5,-3.4 h -4 v -4.2 h 4 v 4.2 z m 0,-7.6 h -4 v -4.2 h 4 v 4.2 z m 7.2,7.6 h -4 v -4.2 h 4 v 4.2 z m 0,-7.6 h -4 v -4.2 h 4 v 4.2 z"
         id="path312"
         style="fill:#00568d" />
      <polygon
         points="149.3,400.4 135.6,400.4 135.6,418.9 139.6,418.9 139.6,410.5 145.2,410.5 145.2,418.9 149.3,418.9 "
         id="polygon314"
         style="fill:#00568d" />
      <polygon
         points="149.3,396.2 135.6,396.2 135.6,396.2 135.6,397.8 149.3,397.8 "
         id="polygon316"
         style="fill:#00568d" />
    </g>
  </g></svg>