<svg xmlns="http://www.w3.org/2000/svg" xmlns:xlink="http://www.w3.org/1999/xlink" version="1.1" x="0px" y="0px" viewBox="0 0 64 80" enable-background="new 0 0 64 64" xml:space="preserve"><g><rect y="8.973" width="21.026" height="7.621"/><path d="M0,54.012h21.026V18.625H0V54.012z M12.516,48.542h-3.88V46.51h3.88V48.542z M4.381,23.854h12.391v2.031H4.381V23.854z    M4.381,28.986h12.391v2.031H4.381V28.986z M4.381,34.117h12.391v2.031H4.381V34.117z M4.381,39.25h12.391v2.031H4.381V39.25z"/><g><rect x="28.534" y="22.809" width="30.992" height="21.955"/><path d="M64,49.446V18.631H24.381v30.815h18.792v3.55h-9.395v2.031h20.822v-2.031h-9.396v-3.55H64z M26.534,46.764V20.809h34.992    v25.955H26.534z"/></g></g></svg>
