<?xml version="1.0" encoding="UTF-8" standalone="no"?>
<!-- Created with Inkscape (http://www.inkscape.org/) -->

<svg
   xmlns:dc="http://purl.org/dc/elements/1.1/"
   xmlns:cc="http://creativecommons.org/ns#"
   xmlns:rdf="http://www.w3.org/1999/02/22-rdf-syntax-ns#"
   xmlns:svg="http://www.w3.org/2000/svg"
   xmlns="http://www.w3.org/2000/svg"
   xmlns:sodipodi="http://sodipodi.sourceforge.net/DTD/sodipodi-0.dtd"
   xmlns:inkscape="http://www.inkscape.org/namespaces/inkscape"
   width="744.09448819"
   height="1052.3622047"
   id="svg4949"
   version="1.1"
   inkscape:version="0.48.4 r9939"
   sodipodi:docname="New document 9">
  <defs
     id="defs4951" />
  <sodipodi:namedview
     id="base"
     pagecolor="#ffffff"
     bordercolor="#666666"
     borderopacity="1.0"
     inkscape:pageopacity="0.0"
     inkscape:pageshadow="2"
     inkscape:zoom="0.35"
     inkscape:cx="375"
     inkscape:cy="520"
     inkscape:document-units="px"
     inkscape:current-layer="layer1"
     showgrid="false"
     inkscape:window-width="472"
     inkscape:window-height="383"
     inkscape:window-x="347"
     inkscape:window-y="237"
     inkscape:window-maximized="0" />
  <metadata
     id="metadata4954">
    <rdf:RDF>
      <cc:Work
         rdf:about="">
        <dc:format>image/svg+xml</dc:format>
        <dc:type
           rdf:resource="http://purl.org/dc/dcmitype/StillImage" />
        <dc:title></dc:title>
      </cc:Work>
    </rdf:RDF>
  </metadata>
  <g
     inkscape:label="Layer 1"
     inkscape:groupmode="layer"
     id="layer1">
    <rect
       style="opacity:0.36000001;fill:#b2b2b2;stroke:#999999;stroke-width:2.54831147;stroke-miterlimit:10"
       id="rect238"
       height="209.22313"
       width="226.36598"
       stroke-miterlimit="10"
       y="249.17918"
       x="99.674156" />
    <g
       id="g310"
       transform="matrix(5.3013107,0,0,4.8998387,-494.07265,-1619.1292)">
      <path
         style="fill:#00568d"
         inkscape:connector-curvature="0"
         id="path312"
         d="m 117,418.9 h 16.1 V 385.3 H 117 v 33.6 z m 6.5,-3.4 h -4 v -4.2 h 4 v 4.2 z m 0,-7.6 h -4 v -4.2 h 4 v 4.2 z m 7.2,7.6 h -4 v -4.2 h 4 v 4.2 z m 0,-7.6 h -4 v -4.2 h 4 v 4.2 z" />
      <polygon
         style="fill:#00568d"
         id="polygon314"
         points="135.6,400.4 135.6,418.9 139.6,418.9 139.6,410.5 145.2,410.5 145.2,418.9 149.3,418.9 149.3,400.4 " />
      <polygon
         style="fill:#00568d"
         id="polygon316"
         points="135.6,396.2 135.6,396.2 135.6,397.8 149.3,397.8 149.3,396.2 " />
    </g>
  </g>
</svg>
