<?xml version="1.0" encoding="utf-8"?>
<!-- Generator: Adobe Illustrator 18.1.1, SVG Export Plug-In . SVG Version: 6.00 Build 0)  -->
<svg version="1.1" xmlns="http://www.w3.org/2000/svg" xmlns:xlink="http://www.w3.org/1999/xlink" x="0px" y="0px"
	 viewBox="0 0 159 107" enable-background="new 0 0 159 107" xml:space="preserve">
<g id="Layer_1">
	<circle opacity="0.46" fill="#224156" cx="88.6" cy="50.9" r="35.9"/>
	<path opacity="0.55" fill="#FFFFFF" d="M88.7,13.9c-20.4,0-37,16.6-37,37s16.6,37,37,37s37-16.6,37-37S109.1,13.9,88.7,13.9z
		 M88.7,86.1c-19.4,0-35.2-15.8-35.2-35.2s15.8-35.2,35.2-35.2s35.2,15.8,35.2,35.2S108.2,86.1,88.7,86.1z"/>
	<g opacity="0.55">
		<path fill="#FFFFFF" d="M95.7,61.1v5.4H76.5V36.2h19.2V42h1.8v-7.4c0-1.5-1.2-2.7-2.7-2.7H77.3c-1.5,0-2.7,1.2-2.7,2.7v34.1
			c0,1.5,1.2,2.7,2.7,2.7h17.6c1.5,0,2.7-1.2,2.7-2.7v-7.6L95.7,61.1L95.7,61.1z M83.3,33.9h5.6c0.2,0,0.3,0.1,0.3,0.3
			c0,0.2-0.1,0.3-0.3,0.3h-5.6c-0.2,0-0.3-0.1-0.3-0.3C83,34,83.1,33.9,83.3,33.9z M86.1,70c-0.7,0-1.3-0.6-1.3-1.3
			c0-0.7,0.6-1.3,1.3-1.3c0.7,0,1.3,0.6,1.3,1.3C87.4,69.4,86.8,70,86.1,70z M104.4,59.4h-19l-3.5-15.7h21.4l-0.6,2.3h-18l2.5,11.2
			h15.4l3.9-17.6h8.2v2.3h-6.4L104.4,59.4z M91.7,62.4c0,1.2-0.9,2.1-2.1,2.1c-1.2,0-2.1-0.9-2.1-2.1c0-1.2,0.9-2.1,2.1-2.1
			C90.7,60.3,91.7,61.3,91.7,62.4z M102.7,62.4c0,1.2-0.9,2.1-2.1,2.1c-1.2,0-2.1-0.9-2.1-2.1c0-1.2,0.9-2.1,2.1-2.1
			C101.7,60.3,102.7,61.3,102.7,62.4z"/>
	</g>
</g>
<g id="Layer_2" display="none">
	<g display="inline">
		<circle fill="#224156" cx="74.4" cy="54.3" r="35.9"/>
		<path fill="#FFFFFF" d="M75,17.2c-20.4,0-37,16.6-37,37s16.6,37,37,37s37-16.6,37-37S95.4,17.2,75,17.2z M75,89.4
			c-19.4,0-35.2-15.8-35.2-35.2S55.6,18.9,75,18.9s35.2,15.8,35.2,35.2S94.4,89.4,75,89.4z"/>
		<g>
			<g>
				<path fill="#FFFFFF" d="M65.4,29.8v14.9H50.5v19.7h6.9c-0.1-0.3-0.1-0.4-0.1-0.7c0-0.2,0-0.5,0.1-0.7h-5.5V46h14.9V31.1h17v6.3
					c0.2,0,0.4-0.1,0.6-0.1c0.3,0,0.5,0,0.7,0.1v-7.7H65.4z"/>
				<path fill="#FFFFFF" d="M92,44.6c0,0.2,0.1,0.3,0.1,0.5c0,0.3,0,0.6-0.1,0.9h6.6v17H83.7v14.9h-17v-6c-0.1,0-0.3,0-0.4,0
					c-0.3,0-0.6,0-0.9-0.1v7.4h19.7V64.3h14.9V44.6H92z"/>
			</g>
			<path fill="#FFFFFF" d="M78.5,40.5l-8.8,8.8l0,0l-8.8,8.8c-2.7,2.7-2.7,7.2,0,9.9l0.4,0.4c2.7,2.7,7.2,2.7,9.9,0l8.8-8.8l0,0
				l8.8-8.8c2.7-2.7,2.7-7.2,0-9.9l-0.4-0.4C85.7,37.7,81.2,37.7,78.5,40.5z M88,41.6c2.3,2.3,2.3,6.1,0,8.4l-8.1,8.1l-8.7-8.7
				l8.1-8.1c2.3-2.3,6.1-2.3,8.4,0L88,41.6z"/>
		</g>
	</g>
</g>
<g id="Layer_3" display="none">
	<circle display="inline" opacity="0.46" fill="#224156" cx="80" cy="52.6" r="35.9"/>
	<path display="inline" opacity="0.55" fill="#FFFFFF" d="M79.8,16.5c-20.1,0-36.3,16.1-36.3,36.1s16.2,36.1,36.3,36.1
		s36.3-16.1,36.3-36.1S99.8,16.5,79.8,16.5z M79.8,86.9c-19.1,0-34.5-15.4-34.5-34.3s15.5-34.3,34.5-34.3s34.5,15.4,34.5,34.3
		S98.9,86.9,79.8,86.9z"/>
	<g display="inline" opacity="0.55">
		<path fill="none" stroke="#FFFFFF" stroke-width="2" stroke-miterlimit="10" d="M89.2,48c-0.1,0-0.1,0-0.2,0
			c-0.9,0-1.7,0.5-2.1,1.3h2.4L89.2,48z"/>
		<path fill="none" stroke="#FFFFFF" stroke-width="2" stroke-miterlimit="10" d="M88.2,36.7h-5.9c-0.1-3-2.6-5.4-5.6-5.4
			c-3,0-5.5,2.4-5.6,5.4h-6.4l-2.9,32.8h16l1.8-20.3h4.5c0.5-2.2,2.5-3.9,4.9-3.9L88.2,36.7z M71.8,40.6c-0.4,0-0.7-0.3-0.7-0.7
			c0-0.4,0.3-0.7,0.7-0.7c0.4,0,0.7,0.3,0.7,0.7C72.6,40.3,72.2,40.6,71.8,40.6z M72.1,36.7c0.1-2.5,2.2-4.4,4.6-4.4
			c2.5,0,4.5,2,4.6,4.4H72.1z M81.6,40.6c-0.4,0-0.7-0.3-0.7-0.7c0-0.4,0.3-0.7,0.7-0.7c0.4,0,0.7,0.3,0.7,0.7
			C82.3,40.3,82,40.6,81.6,40.6z"/>
		<path fill="none" stroke="#FFFFFF" stroke-width="2" stroke-miterlimit="10" d="M97.5,50.2h-4.3c-0.1-2.2-1.9-3.9-4.1-3.9
			c-2.2,0-4,1.7-4.1,3.9h-4.7l-2.1,24h21.5L97.5,50.2z M89.1,47.2c1.7,0,3,1.3,3.1,3h-6.3C86,48.6,87.4,47.2,89.1,47.2z M85.5,53.1
			c-0.3,0-0.5-0.2-0.5-0.5s0.2-0.5,0.5-0.5s0.5,0.2,0.5,0.5C86,52.8,85.8,53.1,85.5,53.1z M92.6,53.1c-0.3,0-0.5-0.2-0.5-0.5
			s0.2-0.5,0.5-0.5s0.5,0.2,0.5,0.5C93.2,52.8,92.9,53.1,92.6,53.1z"/>
	</g>
</g>
</svg>
