<svg xmlns="http://www.w3.org/2000/svg" xmlns:xlink="http://www.w3.org/1999/xlink" version="1.1" x="0px" y="0px" viewBox="0 0 100 125" enable-background="new 0 0 100 100" xml:space="preserve"><g><g><path d="M76,66.644c0,1.632,0,3.881,0,6.356c-0.002,0.478-0.103,0.916-0.311,1.36c-0.31,0.661-0.892,1.33-1.71,1.827    C73.163,76.686,72.14,77,71,77H31c-1.517,0.003-2.838-0.565-3.718-1.36c-0.439-0.396-0.764-0.838-0.972-1.279    C26.103,73.916,26.002,73.478,26,73c0-2.476,0-4.726,0-6.356s0-2.641,0-2.644H16c0,0.003,0,1.013,0,2.644c0,1.632,0,3.881,0,6.356    c-0.002,1.997,0.46,3.922,1.268,5.629c1.214,2.566,3.175,4.65,5.55,6.099C25.194,86.176,28.015,87,31,87h40    c3.983-0.003,7.662-1.46,10.407-3.927c1.373-1.236,2.518-2.734,3.325-4.444C85.54,76.922,86.002,74.997,86,73    c0-2.476,0-4.726,0-6.356s0-2.641,0-2.644H76C76,64.003,76,65.013,76,66.644z"/><path d="M42,72h18c2.209,0,4-1.791,4-4s-1.791-4-4-4h-5V40c0.001-1.647,0.666-3.128,1.766-4.234    c1.106-1.1,2.587-1.765,4.234-1.766h10.345l-7.172,7.173l5.656,5.656l16.829-16.828L69.829,13.173l-5.656,5.656L71.343,26H61    c-3.853-0.001-7.372,1.584-9.891,4.109C48.584,32.628,46.999,36.147,47,40v24h-5c-2.209,0-4,1.791-4,4S39.791,72,42,72z"/></g></g></svg>
