<svg xmlns="http://www.w3.org/2000/svg" xmlns:xlink="http://www.w3.org/1999/xlink" version="1.1" x="0px" y="0px" viewBox="0 0 100 125" enable-background="new 0 0 100 100" xml:space="preserve"><rect fill="none" width="100" height="100"/><g><path d="M89.988,38.368c-2.241-1.149-4.903-0.88-7.132,0.72c-2.838,2.033-13.748,10.162-17.561,13.007   c-2.179-1.427-6.779-3.989-14.122-5.884c-5.159-1.331-8.378-0.937-10.964-0.616c-1.834,0.226-3.161,0.386-4.832-0.047   c-1.728-0.459-3.128-1.379-4.905-2.541c-2.394-1.565-5.365-3.512-10.067-4.726c-1.327-0.338-2.528-0.585-3.653-0.78   c7.11-3.555,16.575-8.276,19.581-9.729c2.164-1.036,4.678-1.01,6.419,0.082c1.944,1.223,2.978,3.737,2.978,7.267   c0,1.261,1.025,2.293,2.293,2.293c1.266,0,2.292-1.032,2.292-2.293c0-6.555-2.788-9.677-5.129-11.151   c-3.084-1.934-7.236-2.064-10.843-0.321c-5.021,2.415-27.88,13.874-28.112,13.99c-0.098,0.052-0.162,0.135-0.251,0.2   c-0.125,0.083-0.25,0.165-0.353,0.277c-0.112,0.113-0.193,0.243-0.278,0.377c-0.063,0.104-0.133,0.204-0.179,0.321   c-0.072,0.173-0.107,0.355-0.135,0.546c-0.013,0.091-0.035,0.173-0.035,0.265c-0.008,0.226,0.035,0.438,0.093,0.655   c0.013,0.052,0.004,0.104,0.022,0.151c0.01,0.022,0.028,0.039,0.037,0.065c0.026,0.069,0.022,0.147,0.058,0.221   c0.134,0.256,0.317,0.468,0.524,0.655c0.022,0.022,0.029,0.052,0.053,0.074c0.023,0.018,0.458,0.408,0.716,1.149   c0.121,0.408,0.316,2.094,0.497,3.581c0.442,3.737,1.046,8.844,2.214,12.322c1.455,4.361,4.864,7.388,10.145,8.987   c1.296,0.39,4.687,1.101,8.042-0.833c2.892-1.664,4.886-4.786,5.953-9.334l0.265-1.274c0.275-1.357,0.663-3.256,0.943-4.249   c0.037,0.035,0.063,0.078,0.084,0.117c0.373,0.707,0.976,3.958,1.375,6.108l0.26,1.388c2.813,13.427,11.684,16.752,13.433,17.281   c2.058,0.624,3.804,0.885,5.288,0.885c4.31,0,6.403-2.237,7.42-4.44c1.453-3.16,2.192-8.454,2.729-12.325   c0.188-1.37,0.425-3.069,0.505-3.352c0.122-0.251,0.252-0.312,0.161-0.295l-0.005-0.021c0.13-0.03,0.252-0.064,0.377-0.112   c0.078-0.035,0.152-0.078,0.228-0.117c0.094-0.057,0.197-0.087,0.293-0.152c0.152-0.116,15.474-11.549,18.816-13.951   c0.477-0.347,1.426-0.845,2.367-0.364c0.589,0.304,2.525,1.773,2.525,7.913c0,1.266,1.022,2.289,2.289,2.289   c1.268,0,2.291-1.022,2.291-2.289C95,42.162,91.859,39.331,89.988,38.368z M29.13,55.12l-0.254,1.205   c-0.75,3.213-2.016,5.351-3.765,6.356c-1.849,1.07-3.85,0.594-4.42,0.416c-2.441-0.737-5.838-2.172-7.132-6.053   c-1.015-3.03-1.614-8.072-2.01-11.406c-0.252-2.159-0.401-3.334-0.589-4.097c1.849-0.013,4.574,0.217,8.3,1.18   c3.967,1.019,6.373,2.597,8.701,4.119c0.993,0.65,1.964,1.283,2.998,1.834C30.294,49.71,29.88,51.457,29.13,55.12z M60.615,60.18   c-0.471,3.378-1.184,8.493-2.354,11.038c-0.364,0.78-1.32,2.87-7.218,1.084c-1.316-0.398-7.993-2.935-10.271-13.787l-0.247-1.33   c-0.607-3.265-1.036-5.493-1.578-6.851c0.618-0.048,1.227-0.117,1.821-0.191c2.435-0.299,4.947-0.603,9.259,0.507   c5.624,1.448,9.456,3.321,11.648,4.6c-0.05,0.083-0.113,0.144-0.152,0.23C61.17,56.234,60.999,57.393,60.615,60.18z"/></g></svg>
