<svg xmlns="http://www.w3.org/2000/svg" xmlns:xlink="http://www.w3.org/1999/xlink" version="1.1" x="0px" y="0px" viewBox="0 0 100 125" enable-background="new 0 0 100 100" xml:space="preserve"><g><path d="M48.729,8.964c-0.226,0-0.41,0.185-0.41,0.411c0,0.226,0.185,0.411,0.41,0.411h1.425c0.227,0,0.41-0.185,0.41-0.411   c0-0.227-0.184-0.411-0.41-0.411h0.024c0,0,0.466-2.355,0.412-2.958c-0.056-0.603-0.494-1.096-1.207-1.096   c-0.711,0-1.095,1.096-1.095,1.096l0.274,2.958H48.729z"/><path d="M85.144,91.47c-0.028,0.01-2.714,0.981-4.171,1.096c0.292-0.3,0.655-0.779,0.909-1.473   c0.031-0.077,0.043-0.127,0.046-0.142l-0.422-0.11l-0.033,0.091c-0.191,0.435-1.548,2.511-9.95,2.606   c-0.339,0.004-0.687,0.006-1.038,0.006c-2.854,0-6.252-0.136-9.647-0.433c0.001-0.029,0.008-0.058,0.008-0.087   c0-0.66-0.535-1.196-1.196-1.196c-1.933,0-3.371-1.235-4.271-3.671c-0.935-2.524-3.621-3.154-3.734-3.182   c-0.161-0.035-0.319-0.038-0.472-0.01v-0.99l0.037,0.015l1.211-7.262l-0.189-0.053c-0.02-0.006-0.305-0.087-0.769-0.235   c0.017-0.436,0.026-0.917,0.026-1.453c0-6.428-0.525-10.08-0.525-12.854c0-2.776,0.42-6.573,0.42-6.573h-3.881   c0,0,0.42,3.797,0.42,6.573c0,2.77-0.523,6.414-0.524,12.818c-4.042-1.691-9.05-4.506-8.413-7.886   c0.985-5.222,7.192-11.505,8.223-12.517c-0.005,0.035-0.011,0.071-0.011,0.107c0,0.453,0.368,0.821,0.822,0.821h2.848   c0.454,0,0.822-0.368,0.822-0.821c0-0.223-0.089-0.424-0.233-0.57c2.789-0.071,5.586-0.326,7.555-0.945c0,0,1.559-0.436,1.369-2.49   c-0.186-2.054-0.932-6.724-2.302-9.775c-0.2-0.444-0.356-0.882-0.482-1.312c0.68,1.335,1.118,2.217,1.137,2.253l0.402-0.175   c-0.255-0.675-0.963-5.638-1.305-8.168l-0.012-0.048c-0.08-0.216-0.163-0.423-0.246-0.634c0.023-0.148,0.046-0.297,0.069-0.447   c0.437-2.802,2.055-6.724,2.179-11.145c0,0,0.975-2.207-0.757-2.815c-0.108-0.038-0.229-0.076-0.355-0.114   c0-0.039,0.003-0.079,0-0.115l-0.005-0.139l-5.352-2.259l-0.012,0.318c0,0.007-0.003,0.121-0.015,0.311   c-0.256-0.2-0.448-0.419-0.54-0.666c-0.561-1.495-0.624-4.239-0.624-4.239h-0.04c-0.243-1.285-1.053-1.15-1.053-1.15   s-0.043,0-0.114,0c-0.106-0.431-0.604-0.391-0.604-0.391s-1.208,0-1.774,0c-0.565,0-0.606,0.328-0.606,0.328l-0.031,0.063   c-0.015,0-0.032,0-0.047,0c-1.014,0-1.086,1.15-1.086,1.15h-0.013c0,0,0,0.025-0.002,0.061l-0.076,0.306h0.057   c-0.062,0.857-0.293,2.982-1.083,3.623c-0.21,0.17-0.391,0.346-0.591,0.527l-6.725,1.912l0.083,0.222   c0.041,0.108,0.154,0.241,0.34,0.403c-0.301,0.153-0.68,0.451-0.642,0.984c0.062,0.871,0.561,5.665,1.744,8.031   c1.182,2.366,3.175,8.842,3.175,10.273c0,1.431-1.838,5.656-2.196,8.059c-0.357,2.401-0.929,5.529-0.73,6.51   c0.199,0.982,0.435,1.184,1.245,1.309c0.103,0.016,0.38,0.046,0.793,0.083c-0.371,0.498-4.5,6.224-4.29,13.576   c0.163,5.68,6.532,11.628,10.33,14.6l-0.287,0.267l0.003-0.146l-0.324,0.16c-0.263,0.129-6.427,3.191-6.654,6.132   c-0.053,0.688,0.206,1.347,0.77,1.954c0.391,0.423,0.974,0.861,1.823,1.292c-0.281,0.138-0.58,0.209-0.898,0.209   c-0.462,0-0.835,0.536-0.835,1.196c0,0.063,0.006,0.126,0.013,0.187c-2.059,0.146-3.319,0.336-3.319,0.546   c0,0.445,5.592,0.804,12.488,0.804c2.786,0,5.356-0.06,7.435-0.158c2.659,0.156,5.715,0.247,9.231,0.247   c2.404,0,4.993-0.043,7.695-0.126c0.353-0.005,8.691-0.141,10.051-2.745l0.262-0.502L85.144,91.47z M53.136,88.985   c0.538,1.455,1.279,2.62,2.182,3.48c-2.452-0.367-4.726-0.837-6.591-1.424c0.016-0.044,0.031-0.086,0.045-0.133h0.198h0.943h1.258   v-3.585C51.466,87.412,52.711,87.843,53.136,88.985z M45.644,88.157c-0.125,0.479-0.266,0.908-0.42,1.296   c-0.603-0.438-1.02-0.912-1.198-1.43c0.003-0.038,0.02-0.134,0.112-0.231c0.134-0.141,0.444-0.311,1.16-0.311   c0.17,0,0.357,0.01,0.555,0.028C45.774,87.71,45.704,87.924,45.644,88.157z M47.211,88.985c0.038-0.146,0.087-0.28,0.142-0.405   c-0.148,0.705-0.324,1.286-0.522,1.761c-0.013-0.007-0.029-0.012-0.042-0.018C46.942,89.907,47.086,89.467,47.211,88.985z    M58.271,18.313c-0.004,1.294-0.796,3.533-1.301,4.835c-0.281-1.227-1.123-2.781-1.248-3.006l-0.212-0.386l-0.181,0.403   c-0.186,0.418-0.978,0.657-2.174,0.657c-0.091,0-0.172-0.001-0.243-0.003c0.619-1.414,0.802-3.591,0.849-4.404L58.271,18.313z    M45.178,16.433c0.824,0.543,7.846,5.448,12.22,17.125c0.054,0.403,0.573,4.242,0.972,6.567c-1.936-3.832-7.006-13.687-8.72-15.219   c-1.041-0.932-3.565-2.409-6.007-3.838c-1.797-1.052-3.979-2.328-4.608-2.889L45.178,16.433z M38.331,67.349   c-0.198-6.929,3.542-12.392,4.146-13.225c1.144,0.232,3.226,0.307,4.201,0.33c-1.535,1.528-7.158,7.416-8.124,12.531   c-1.063,5.639,11.582,9.537,13.369,10.057l-1.048,6.293C48.981,82.157,38.531,74.374,38.331,67.349z M75.352,94.086   c-2.7,0.084-5.286,0.125-7.685,0.125c-17.972,0-23.849-2.274-25.616-4.181c-0.477-0.515-0.697-1.062-0.654-1.624   c0.179-2.329,4.806-4.929,6.086-5.605l-0.057,2.276c-0.586,0.36-1.393,1.579-1.65,1.987c-0.975-0.081-1.638,0.071-1.973,0.445   c-0.238,0.267-0.215,0.545-0.212,0.574l0.009,0.044c1.505,4.631,18.244,5.856,26.885,5.856c0.354,0,0.704-0.004,1.044-0.008   c5.068-0.057,7.674-0.839,9.01-1.599c-0.15,0.14-0.254,0.206-0.257,0.209l-0.475,0.3l0.552,0.101   c0.887,0.158,3.061-0.476,4.205-0.854C82.426,93.972,75.434,94.084,75.352,94.086z"/></g></svg>
