<svg xmlns="http://www.w3.org/2000/svg" xmlns:xlink="http://www.w3.org/1999/xlink" version="1.1" x="0px" y="0px" viewBox="0 0 100 125" enable-background="new 0 0 100 100" xml:space="preserve"><path  d="M25.462,71.908c1.391-0.121,2.937-0.574,4.431-1.012c1.664-0.488,3.248-0.945,4.585-0.956  c-0.172-0.977-0.323-2.063-0.292-3.322c0.177-7.023,5.089-16.007,4.635-22.295c-0.732-10.135-6.967-17.737-11.08-19.104  c-3.32-1.104-8.7-1.03-12.097,2.644C9.813,34.172,6.928,43.417,7.43,50.58c0.468,6.665,3.95,15.578,7.885,21.97  c1.161-0.368,2.722-0.39,4.781-0.417C21.652,72.111,23.416,72.087,25.462,71.908z"/><path fill="#000000" d="M24.591,94.766C24.59,94.766,24.59,94.766,24.591,94.766  c-5.579-1.053-9.908-5.893-10.528-11.77c-0.228-2.157-0.355-4.313-0.381-6.41c-0.044-3.643,1.849-3.668,6.424-3.73  c1.568-0.022,3.347-0.047,5.42-0.229c1.462-0.126,3.042-0.59,4.571-1.038c1.969-0.576,3.829-1.121,5.149-0.873  c0.874,0.165,1.42,0.667,1.719,1.58c0.216,0.661,0.48,1.285,0.758,1.944c0.65,1.542,1.386,3.288,1.738,6.083  c0.447,3.548-0.524,7.038-2.734,9.826c-2.151,2.714-5.194,4.403-8.566,4.76C26.964,95.036,25.764,94.987,24.591,94.766z"/><path fill="#000000" d="M69.941,50.408c-1.391-0.121-2.936-0.574-4.43-1.012  c-1.664-0.488-3.248-0.945-4.586-0.956c0.173-0.977,0.324-2.063,0.292-3.322c-0.177-7.023-5.089-16.007-4.636-22.296  c0.732-10.135,6.967-17.736,11.08-19.104c3.32-1.104,8.7-1.03,12.098,2.643c5.831,6.311,8.717,15.556,8.215,22.719  c-0.468,6.665-3.949,15.578-7.885,21.97c-1.161-0.368-2.722-0.39-4.781-0.417C73.752,50.611,71.988,50.587,69.941,50.408z"/><path fill="#000000" d="M58.678,68.649c-2.209-2.788-3.18-6.278-2.733-9.826c0.352-2.795,1.087-4.541,1.737-6.083  c0.278-0.659,0.542-1.283,0.758-1.944c0.3-0.913,0.846-1.415,1.72-1.58c1.32-0.248,3.18,0.297,5.149,0.873  c1.527,0.448,3.107,0.912,4.57,1.038c2.073,0.182,3.852,0.206,5.42,0.229c4.575,0.063,6.469,0.088,6.424,3.73  c-0.025,2.097-0.153,4.253-0.381,6.41c-0.62,5.877-4.949,10.717-10.527,11.77c0,0,0,0-0.001,0c-1.173,0.222-2.374,0.271-3.569,0.144  C63.872,73.053,60.83,71.363,58.678,68.649z"/></svg>
