<svg xmlns="http://www.w3.org/2000/svg" xmlns:xlink="http://www.w3.org/1999/xlink" version="1.1" x="0px" y="0px" viewBox="0 0 48 48" enable-background="new 0 0 100 100" xml:space="preserve">  <g
     id="layer1">
   
      <polygon
       points="797.9,1749.4 785.2,1749.4 785.2,1737.2 791.7,1730.8 795.3,1734.1 797.1,1732.3 791.7,1726.9 785.2,1732.9 779.7,1727.4 774.6,1732.4 774.6,1705.5 769,1705.5 769,1751.9 797.9,1751.9 "
       transform="translate(-764.90001,-1704.2)"
       id="polygon786"
      />
    <g
       transform="translate(-765.90001,-1704.2)"
       id="g788">
      <path
         d="m 807.2,1747.2 h -19.8 l 0,-9.1 4.4,-4.6 3.5,3.3 3,-2.8 2.5,2.2 v -13.9 h 6.4 v 24.9 l 0,0 z M 789.6,1745 H 805 v -20.5 h -2.1 v 16.6 l -4.6,-4.1 -3,2.8 -3.4,-3.2 -2.3,2.4 0,6 0,0 z"
         id="path790"
          />
      <path
         d="m 819.8,1747 c -0.6,0 -1.1,-0.5 -1.1,-1.2 0,-0.6 0.5,-1.1 1.1,-1.1 0.6,0 1.2,0.5 1.2,1.1 -0.1,0.7 -0.6,1.2 -1.2,1.2 l 0,0 z m -3.2,0 c -0.6,0 -1.2,-0.5 -1.2,-1.2 0,-0.6 0.5,-1.1 1.2,-1.1 0.6,0 1.1,0.5 1.1,1.1 0,0.7 -0.5,1.2 -1.1,1.2 l 0,0 z m -3.3,0 c -0.6,0 -1.1,-0.5 -1.1,-1.2 0,-0.6 0.5,-1.1 1.1,-1.1 0.6,0 1.2,0.5 1.2,1.1 0,0.7 -0.5,1.2 -1.2,1.2 l 0,0 z m -3.2,0 c -0.6,0 -1.2,-0.5 -1.2,-1.2 0,-0.6 0.5,-1.1 1.2,-1.1 0.6,0 1.1,0.5 1.1,1.1 0.1,0.7 -0.4,1.2 -1.1,1.2 l 0,0 z"
         id="path792"
         />
      <path
         d="m 813.3,1742.9 c -0.6,0 -1.1,-0.5 -1.1,-1.1 0,-0.6 0.5,-1.2 1.1,-1.2 0.6,0 1.1,0.5 1.1,1.2 0.1,0.6 -0.4,1.1 -1.1,1.1 l 0,0 z m -3.2,0 c -0.6,0 -1.1,-0.5 -1.1,-1.1 0,-0.6 0.5,-1.2 1.1,-1.2 0.6,0 1.2,0.5 1.2,1.2 0,0.6 -0.5,1.1 -1.2,1.1 l 0,0 z"
         id="path794"
         />
    </g>
  </g></svg>