<svg xmlns="http://www.w3.org/2000/svg" xmlns:xlink="http://www.w3.org/1999/xlink" version="1.1" x="0px" y="0px" viewBox="0 0 48 48" enable-background="new 0 0 100 100" xml:space="preserve">  <g
     id="layer1">
    
      <g
       transform="translate(-442.90001,-1705.6773)"
       id="g712">
      <circle
         cx="466.39999"
         cy="1729.6"
         r="15.6"
         id="circle714"
          />
      <g
         id="g716">
        <circle
           cx="466.5"
           cy="1709.6"
           r="2.8"
           id="circle718"
            />
        <path
           d="m 462.1,1709.5 c 0.4,0 0.8,-0.3 0.9,-0.7 0.4,-1.6 1.8,-2.8 3.6,-2.8 1.8,0 3.2,1.2 3.6,2.8 0.1,0.4 0.4,0.7 0.9,0.7 h 0.2 c 0.6,0 1,-0.5 0.9,-1.1 -0.6,-2.5 -2.8,-4.4 -5.5,-4.4 -2.7,0 -4.9,1.9 -5.5,4.4 -0.1,0.6 0.3,1.1 0.9,1.1 h 0 z"
           id="path720"
            />
        <path
           d="m 464.8,1713 c -0.6,-0.3 -1.1,-0.8 -1.4,-1.4 -1.5,1.5 -2,3.7 -1.4,5.7 0.2,0.5 0.8,0.8 1.3,0.5 l 0.2,-0.1 c 0.4,-0.2 0.5,-0.7 0.4,-1.1 -0.5,-1.2 -0.1,-2.6 0.9,-3.6 z"
           id="path722"
        />
        <path
           d="m 469.5,1711.6 c -0.3,0.6 -0.7,1.1 -1.3,1.4 1.1,1 1.5,2.5 1.1,3.8 -0.1,0.4 0,0.8 0.4,1.1 l 0.2,0.1 c 0.5,0.3 1.1,0 1.3,-0.5 0.5,-2.1 -0.1,-4.4 -1.7,-5.9 z"
           id="path724"
            />
      </g>
      <g
         id="g726">
        <circle
           cx="466.5"
           cy="1749.5"
           r="2.8"
           id="circle728"
           />
        <path
           d="m 462.1,1749.6 c 0.4,0 0.8,0.3 0.9,0.7 0.4,1.6 1.8,2.8 3.6,2.8 1.8,0 3.2,-1.2 3.6,-2.8 0.1,-0.4 0.4,-0.7 0.9,-0.7 h 0.2 c 0.6,0 1,0.5 0.9,1.1 -0.6,2.5 -2.8,4.4 -5.5,4.4 -2.7,0 -4.9,-1.9 -5.5,-4.4 -0.1,-0.6 0.3,-1.1 0.9,-1.1 h 0 z"
           id="path730"
           />
        <path
           d="m 464.8,1746.1 c -0.6,0.3 -1.1,0.8 -1.4,1.4 -1.5,-1.5 -2,-3.7 -1.4,-5.7 0.2,-0.5 0.8,-0.8 1.3,-0.5 l 0.2,0.1 c 0.4,0.2 0.5,0.7 0.4,1.1 -0.5,1.2 -0.1,2.6 0.9,3.6 z"
           id="path732"
           />
        <path
           d="m 469.5,1747.5 c -0.3,-0.6 -0.7,-1.1 -1.3,-1.4 1.1,-1 1.5,-2.5 1.1,-3.8 -0.1,-0.4 0,-0.8 0.4,-1.1 l 0.2,-0.1 c 0.5,-0.3 1.1,0 1.3,0.5 0.5,2.1 -0.1,4.4 -1.7,5.9 z"
           id="path734"
         />
      </g>
      <g
         id="g736">
        <circle
           cx="449.20001"
           cy="1719.6"
           r="2.8"
           id="circle738"
           />
        <path
           d="m 446.9,1723.4 c 0.2,-0.4 0.1,-0.8 -0.2,-1.1 -1.2,-1.1 -1.5,-3 -0.7,-4.5 0.9,-1.5 2.6,-2.2 4.2,-1.7 0.4,0.1 0.8,0 1,-0.4 l 0.1,-0.2 c 0.3,-0.5 0,-1.1 -0.5,-1.3 -2.5,-0.8 -5.2,0.2 -6.5,2.6 -1.3,2.3 -0.8,5.2 1.1,6.9 0.4,0.4 1.1,0.3 1.4,-0.2 l 0.1,-0.1 z"
           id="path740"
            />
        <path
           d="m 451.3,1722.8 c -0.6,0.4 -1.2,0.5 -1.9,0.5 0.5,2 2.2,3.6 4.3,4.1 0.6,0.1 1.1,-0.3 1.1,-0.9 l 0,-0.2 c 0,-0.4 -0.3,-0.8 -0.7,-0.9 -1.4,-0.2 -2.4,-1.3 -2.8,-2.6 z"
           id="path742"
            />
        <path
           d="m 452.4,1718 c 0.4,0.5 0.6,1.2 0.5,1.9 1.4,-0.5 2.9,-0.1 3.9,1 0.3,0.3 0.7,0.4 1.1,0.2 l 0.2,-0.1 c 0.5,-0.3 0.6,-0.9 0.2,-1.4 -1.5,-1.6 -3.8,-2.3 -5.9,-1.6 z"
           id="path744"
           />
      </g>
      <g
         id="g746">
        <circle
           cx="483.79999"
           cy="1739.5"
           r="2.8"
           id="circle748"
            />
        <path
           d="m 481.7,1743.4 c 0.2,-0.4 0.6,-0.5 1,-0.4 1.6,0.5 3.4,-0.2 4.2,-1.7 0.9,-1.5 0.5,-3.4 -0.7,-4.5 -0.3,-0.3 -0.4,-0.7 -0.2,-1.1 l 0.1,-0.2 c 0.3,-0.5 0.9,-0.6 1.4,-0.2 1.9,1.7 2.4,4.6 1.1,6.9 -1.3,2.3 -4.1,3.3 -6.5,2.6 -0.5,-0.2 -0.8,-0.8 -0.5,-1.3 l 0.1,-0.1 z"
           id="path750"
           />
        <path
           d="m 479.9,1739.3 c 0,0.7 0.1,1.3 0.5,1.9 -2,0.6 -4.2,-0.1 -5.6,-1.7 -0.4,-0.4 -0.3,-1.1 0.2,-1.4 l 0.2,-0.1 c 0.4,-0.2 0.8,-0.1 1.1,0.2 0.9,1.1 2.3,1.5 3.6,1.1 z"
           id="path752"
            />
        <path
           d="m 483.5,1735.9 c -0.6,0 -1.3,0.1 -1.9,0.5 -0.3,-1.4 -1.4,-2.5 -2.8,-2.9 -0.4,-0.1 -0.7,-0.4 -0.7,-0.9 l 0,-0.2 c 0,-0.6 0.5,-1 1.1,-0.9 2.2,0.6 3.9,2.3 4.3,4.4 z"
           id="path754"
            />
      </g>
      <g
         id="g756">
        <circle
           cx="449.20001"
           cy="1739.4"
           r="2.8"
           id="circle758"
           />
        <path
           d="m 451.3,1743.3 c -0.2,-0.4 -0.6,-0.5 -1,-0.4 -1.6,0.5 -3.4,-0.2 -4.2,-1.7 -0.9,-1.5 -0.5,-3.4 0.7,-4.5 0.3,-0.3 0.4,-0.7 0.2,-1.1 l -0.1,-0.2 c -0.3,-0.5 -0.9,-0.6 -1.4,-0.2 -1.9,1.7 -2.4,4.6 -1.1,6.9 1.3,2.3 4.1,3.3 6.5,2.6 0.5,-0.2 0.8,-0.8 0.5,-1.3 l -0.1,-0.1 z"
           id="path760"
            />
        <path
           d="m 453,1739.3 c 0,0.7 -0.2,1.3 -0.5,1.9 2,0.6 4.2,-0.1 5.7,-1.6 0.4,-0.4 0.3,-1.1 -0.2,-1.4 l -0.2,-0.1 c -0.4,-0.2 -0.8,-0.1 -1.1,0.2 -0.9,0.9 -2.4,1.3 -3.7,1 z"
           id="path762"
         />
        <path
           d="m 449.4,1735.9 c 0.6,0 1.3,0.1 1.9,0.5 0.3,-1.4 1.4,-2.5 2.8,-2.8 0.4,-0.1 0.7,-0.4 0.7,-0.9 l 0,-0.2 c 0,-0.6 -0.5,-1 -1.1,-0.9 -2.1,0.4 -3.8,2.1 -4.3,4.3 z"
           id="path764"
          />
      </g>
      <g
         id="g766">
        <circle
           cx="483.79999"
           cy="1719.7"
           r="2.8"
           id="circle768"
           />
        <path
           d="m 486.1,1723.4 c -0.2,-0.4 -0.1,-0.8 0.2,-1.1 1.2,-1.1 1.5,-3 0.7,-4.5 -0.9,-1.5 -2.6,-2.2 -4.2,-1.7 -0.4,0.1 -0.8,0 -1,-0.4 l -0.1,-0.2 c -0.3,-0.5 0,-1.1 0.5,-1.3 2.5,-0.8 5.2,0.2 6.5,2.6 1.3,2.3 0.8,5.2 -1.1,6.9 -0.4,0.4 -1.1,0.3 -1.4,-0.2 l -0.1,-0.1 z"
           id="path770"
          />
        <path
           d="m 481.7,1722.9 c 0.6,0.4 1.2,0.5 1.9,0.5 -0.5,2 -2.2,3.6 -4.3,4 -0.6,0.1 -1.1,-0.3 -1.1,-0.9 l 0,-0.2 c 0,-0.4 0.3,-0.8 0.7,-0.9 1.4,-0.2 2.5,-1.2 2.8,-2.5 z"
           id="path772"
          />
        <path
           d="m 480.6,1718.1 c -0.4,0.5 -0.6,1.2 -0.5,1.9 -1.4,-0.5 -2.9,-0.1 -3.9,1 -0.3,0.3 -0.7,0.4 -1.1,0.2 l -0.2,-0.1 c -0.5,-0.3 -0.6,-0.9 -0.2,-1.4 1.5,-1.7 3.8,-2.3 5.9,-1.6 z"
           id="path774"
            />
      </g>
      <rect
         width="4.9000001"
         height="6.8000002"
         x="464"
         y="1734.3"
         id="rect776"
         style="fill:#ffffff" />
      <rect
         width="3.5999999"
         height="0.40000001"
         x="464.70001"
         y="1735.1"
         id="rect778"
         style="fill:#026d8d" />
      <rect
         width="3.5999999"
         height="0.40000001"
         x="464.70001"
         y="1736.2"
         id="rect780"
         />
      <rect
         width="3.5999999"
         height="0.40000001"
         x="464.70001"
         y="1736.9"
         id="rect782"
         />
      <rect
         width="3.5999999"
         height="0.40000001"
         x="464.70001"
         y="1739.6"
         id="rect784"
         />
    </g>
  </g></svg>