<svg xmlns="http://www.w3.org/2000/svg" xmlns:xlink="http://www.w3.org/1999/xlink" version="1.1" x="0px" y="0px" viewBox="0 0 48 48" enable-background="new 0 0 100 100" xml:space="preserve"> <g
     id="layer1"
     inkscape:label="Layer 1"
     inkscape:groupmode="layer">
    
    <path
       style="fill:#00568d"
       inkscape:connector-curvature="0"
       id="path438"
       d="m 4.499996,45.000032 5.1999996,-8.8 h 3.6000004 l 9.8,5.2 9.8,-5.2 h 3.6 l 5.2,8.8 h -37.2 z m 30,-20.7 -11.4,15.5 -11.3,-15.5 h 0.1 c -1.3,-2.1 -2.1000004,-4.5 -2.1000004,-7.2 0,-7.4000004 6.0000004,-13.4000003 13.4000004,-13.4000003 7.4,0 13.4,5.9999999 13.4,13.4000003 0,2.7 -0.8,5.2 -2.1,7.2 l 0,0 z m -11.4,-12.4 c -2.8,0 -5.2,2.3 -5.2,5.2 0,2.9 2.3,5.2 5.2,5.2 2.9,0 5.2,-2.3 5.2,-5.2 0,-2.9 -2.3,-5.2 -5.2,-5.2 z" />
  </g></svg>