<svg xmlns="http://www.w3.org/2000/svg" xmlns:xlink="http://www.w3.org/1999/xlink" version="1.1" x="0px" y="0px" viewBox="0 0 100 125" enable-background="new 0 0 100 100" xml:space="preserve"><g><path  d="M23.81,76.102c-2.362,2.361-2.362,6.192,0,8.556c2.362,2.362,6.193,2.362,8.556,0   c2.361-2.363,2.361-6.194,0-8.556C30.003,73.739,26.172,73.739,23.81,76.102z M94.226,14.432l-0.086-0.085   c-1.157-1.158-3.192-1-4.544,0.352L66.65,37.643L51.499,22.492L8.754,65.237L6.787,63.27l42.745-42.746   c-2.363-2.348-6.183-2.343-8.541,0.015L6.771,54.757c-2.362,2.363-2.362,6.195,0,8.558L20.41,76.951   c0.407-0.912,0.983-1.769,1.732-2.517c3.284-3.284,8.608-3.284,11.891,0c0.776,0.774,1.366,1.667,1.775,2.616l35.124-35.125   l-0.006-0.004l22.945-22.945C95.226,17.623,95.383,15.589,94.226,14.432z"/></g></svg>
