<svg xmlns="http://www.w3.org/2000/svg" xmlns:xlink="http://www.w3.org/1999/xlink" version="1.1" x="0px" y="0px" viewBox="0 0 48 48" enable-background="new 0 0 100 100" xml:space="preserve">  <g
     id="layer1"
     inkscape:label="Layer 1"
     inkscape:groupmode="layer">
   
    <g
       id="g342"
       transform="translate(-990.34997,-378.64998)">
      <path
         style="fill:#00568d"
         inkscape:connector-curvature="0"
         id="path344"
         d="m 1014.9,407.6 c -0.2,0.2 -0.4,0.3 -0.7,0.3 -0.3,0 -0.5,-0.1 -0.7,-0.3 l -12.8,-12.8 c 0,0.2 -0.1,0.3 -0.1,0.5 V 411 c 0,1.1 0.9,2 2,2 h 23.6 c 1.1,0 2,-0.9 2,-2 v -15.7 c 0,-0.3 -0.1,-0.5 -0.2,-0.8 l -13.1,13.1 z" />
      <path
         style="fill:#00568d"
         inkscape:connector-curvature="0"
         id="path346"
         d="m 1014.2,405.5 12.2,-12.2 c -0.1,0 -0.1,0 -0.2,0 h -23.6 c -0.2,0 -0.3,0.1 -0.5,0.1 l 12.1,12.1 z" />
    </g>
  </g></svg>