<svg xmlns="http://www.w3.org/2000/svg" xmlns:xlink="http://www.w3.org/1999/xlink" version="1.1" x="0px" y="0px" viewBox="0 0 100 125" enable-background="new 0 0 100 100" xml:space="preserve"><path xmlns="http://www.w3.org/2000/svg" fill="none"  d="M81.602,44.102h-66.84c-3.256,0-5.898,2.64-5.898,5.898    s2.642,5.898,5.898,5.898h66.84c3.256,0,5.898-2.64,5.898-5.898S84.858,44.102,81.602,44.102z M81.602,67.693h-66.84    c-3.256,0-5.898,2.64-5.898,5.898c0,3.258,2.642,5.898,5.898,5.898h66.84c3.256,0,5.898-2.64,5.898-5.898    C87.5,70.333,84.858,67.693,81.602,67.693z M14.763,32.307h66.84c3.256,0,5.898-2.64,5.898-5.898c0-3.258-2.642-5.898-5.898-5.898    h-66.84c-3.256,0-5.898,2.64-5.898,5.898C8.865,29.667,11.507,32.307,14.763,32.307z" style="
    fill: #00568D;
"/></svg>
