<?xml version="1.0" encoding="utf-8"?>
<!-- Generator: Adobe Illustrator 18.1.1, SVG Export Plug-In . SVG Version: 6.00 Build 0)  -->
<svg version="1.1" id="Layer_1" xmlns="http://www.w3.org/2000/svg" xmlns:xlink="http://www.w3.org/1999/xlink" x="0px" y="0px"
	 viewBox="-1276.4 -1049.4 3576.9 5251.3" enable-background="new -1276.4 -1049.4 3576.9 5251.3" xml:space="preserve">
<g>
	<path d="M-887.1-924.3c17.8,0,32.2,14.4,32.2,32.2c0,17.8-14.4,32.2-32.2,32.2c-17.8,0-32.2-14.4-32.2-32.2
		C-919.3-909.9-904.9-924.3-887.1-924.3z"/>
	<g>
		<path d="M-917-547.6c0,10,8.1,18.1,18.1,18.1s18-8.1,18-18.1l0-151.5h8.1l-0.1,151.5c0,10,8.1,18.1,18.1,18.1c10,0,18-8.1,18-18.1
			l0.1-261.1h7.9v96.2c0,19.4,25.3,19.4,25.2,0v-98.3c0-21.4-12.6-42.3-37.6-42.3l-72.2,0c-22.8,0-37.1,18.6-37.1,41.8v98.9
			c0,19.2,25.4,19.2,25.4,0v-96.2h8.1L-917-547.6z"/>
		<path d="M-988.4-839.5c22.4,0,31.4,18.4,34.8,28.6l27.5,90.3c5.5,19.4-19.2,27.5-25.1,8.5l-24.7-82.9h-7.2l42.8,147.4h-39.5v104.3
			c0,19.6-29.5,19.5-29.5,0v-105.1h-12l-26.1,104.9c0,19.8-29.6,19.8-29.6,0l26.1-104.2h-39.6l42.5-147.4h-6.7l-24.7,83.2
			c-5.9,18.1-30.8,10.7-25.1-8.7l27.4-90.4c2.9-10.3,11.9-28.6,34.5-28.6H-988.4L-988.4-839.5z"/>
		<path d="M-1007.1-907.2c17.7,0,32,14.3,32,32s-14.3,32-32,32c-17.7,0-32-14.3-32-32S-1024.8-907.2-1007.1-907.2z"/>
	</g>
</g>
<path d="M-411.6-643.5h-36.2c-18.7,0-33.9,15.2-33.9,33.9v0.6h103.9v-0.6C-377.7-628.4-392.9-643.5-411.6-643.5z"/>
<circle cx="-431.5" cy="-690.7" r="34.7"/>
<circle cx="-518.8" cy="-786.8" r="48.2"/>
<circle cx="-362.4" cy="-823.6" r="48.2"/>
<path d="M-334.6-765h-50.3c-18.9,0-35.2,11.2-42.7,27.3c24.2,2,43.3,22.3,43.3,47c0,14.4-6.5,27.2-16.6,35.9
	c20.5,4.8,35.8,23.2,35.8,45.1v0.6h77.6V-718C-287.6-743.9-308.7-765-334.6-765z"/>
<path d="M-461.3-654c-10.7-8.7-17.5-21.9-17.5-36.7c0-11.8,4.4-22.6,11.6-30.9c-7-4.1-15.2-6.6-23.9-6.6h-50.3
	c-26,0-47,21.1-47,47.1v72h94.2v-0.6C-494.1-630.5-480.3-648.2-461.3-654z"/>
<text transform="matrix(1 0 0 1 -1140.5629 -368.2084)" font-family="'MyriadPro-Regular'" font-size="110.4402">Spouse</text>
<text transform="matrix(1 0 0 1 -592.5628 -396.2084)" font-family="'MyriadPro-Regular'" font-size="110.4402">Parent</text>
<text transform="matrix(1 0 0 1 499.2188 -450.1976)" font-family="'MyriadPro-Regular'" font-size="110.4402">Parent</text>
<text transform="matrix(1 0 0 1 1057.1072 -318.224)" font-family="'MyriadPro-Regular'" font-size="110.4402">friend</text>
<text transform="matrix(1 0 0 1 1710.4811 -369.8967)" font-family="'MyriadPro-Regular'" font-size="53.1827">population</text>
<text transform="matrix(1 0 0 1 -1173.7858 441.4539)" font-family="'MyriadPro-Regular'" font-size="82.8428">married</text>
<text transform="matrix(1 0 0 1 -615.8973 441.4539)" font-family="'MyriadPro-Regular'" font-size="82.8428">self employye</text>
<text transform="matrix(1 0 0 1 128.1027 489.4539)" font-family="'MyriadPro-Regular'" font-size="82.8428">salaried</text>
<text transform="matrix(1 0 0 1 819.4072 1090.7687)" font-family="'MyriadPro-Regular'" font-size="74.1112">medical association</text>
<text transform="matrix(1 0 0 1 -1094.2103 1225.1692)" font-family="'MyriadPro-Regular'" font-size="64.4022">medicine</text>
<text transform="matrix(1 0 0 1 -1154.1984 1975.0192)" font-family="'MyriadPro-Regular'" font-size="64.4022">stocks medicine</text>
<text transform="matrix(1 0 0 1 -113.3588 1906.0123)" font-family="'MyriadPro-Regular'" font-size="64.4022">doctor</text>
<text transform="matrix(1 0 0 1 -768.4708 3044.4272)" font-family="'MyriadPro-Regular'" font-size="64.4022">repayment</text>
<text transform="matrix(1 0 0 1 -84.6076 3044.4272)" font-family="'MyriadPro-Regular'" font-size="64.4022">discount</text>
<text transform="matrix(1 0 0 1 503.3924 3044.4272)" font-family="'MyriadPro-Regular'" font-size="64.4022">suppliers</text>
<text transform="matrix(1 0 0 1 1067.3923 3052.4272)" font-family="'MyriadPro-Regular'" font-size="64.4022">catogaris</text>
<text transform="matrix(1 0 0 1 1687.3923 3052.4272)" font-family="'MyriadPro-Regular'" font-size="64.4022">inventory</text>
<text transform="matrix(1 0 0 1 1687.3923 3948.427)" font-family="'MyriadPro-Regular'" font-size="64.4022">online shoping</text>
<text transform="matrix(1 0 0 1 915.3924 4024.427)" font-family="'MyriadPro-Regular'" font-size="64.4022">festival</text>
<text transform="matrix(1 0 0 1 195.3924 3972.427)" font-family="'MyriadPro-Regular'" font-size="64.4022">free process</text>
<text transform="matrix(1 0 0 1 -273.5639 1212.5883)" font-family="'MyriadPro-Regular'" font-size="89.4006">turnover</text>
<text transform="matrix(1 0 0 1 1688.958 1047.8282)"><tspan x="0" y="0" font-family="'MyriadPro-Regular'" font-size="74.1112">medical</tspan><tspan x="0" y="88.9" font-family="'MyriadPro-Regular'" font-size="74.1112">association name</tspan></text>
<text transform="matrix(0.9865 0 0 1 1726.0508 324.1878)" font-family="'MyriadPro-Regular'" font-size="119.9074">wife</text>
<text transform="matrix(1 0 0 1 31.3124 -396.2084)" font-family="'MyriadPro-Regular'" font-size="110.4402">Sibling</text>
<path d="M106.2-796.9c0.3-1.1,0.4-2.2,0.4-3.4c0-6.8-4.4-28.8-4.4-28.8s-1.9,2.6-4.5,6.2c-1-1.8-1.6-3-1.6-3s-1.5,2.7-3.4,6.5
	c-1.6-1.5-2.7-2.5-2.7-2.5s-4.3,14.7-4.3,21.6c0,1.2,0.1,2.3,0.4,3.4C79-793.2,74-785.8,74-777.2c0,12.2,9.9,22.1,22.1,22.1
	c12.2,0,22.1-9.9,22.1-22.1C118.2-785.8,113.3-793.2,106.2-796.9z"/>
<path d="M114.7-750.6c15.4,0,21.7,12.7,24,19.7l19,62.3c3.8,13.4-13.3,18.9-17.3,5.9l-17-57.2h-5l29.6,101.7h-27.2v79.3
	c0,13.5-20.3,13.5-20.3,0v-79.8H92l0,79.7c0,13.6-20.4,13.6-20.4,0l0-79.2H44.3l29.3-101.7H69L52-662.5c-4.1,12.5-21.3,7.4-17.3-6
	l18.9-62.3c2-7.1,8.2-19.7,23.8-19.7H114.7z"/>
<circle cx="265.3" cy="-776.1" r="22.2"/>
<path d="M323.7-825l0-1c0.2-4.3-3.2-6.8-7-7.4c-0.7-0.2-1.4-0.2-2.1-0.2c-4.1,0.1-8.1,2.3-8.3,6.8l-0.8,17.8l-1.6,33.3
	c0,0-0.5,1.4-1.7,3.7l-20.5,20.5c-1.2,0.8-2.6,1.5-3.9,2.2l-24.1,0c-1.4-0.7-2.8-1.5-4-2.3l-20.5-20.5c-1.2-2.3-1.7-3.7-1.7-3.7
	l-1.6-33.3l-0.8-17.8c-0.2-4.5-4.2-6.7-8.3-6.8c-0.7,0-1.4,0-2.2,0.2c-3.8,0.6-7.2,3.2-7,7.4l0,1.1c0,0.4-0.1,0.8-0.1,1.2l1.2,53.1
	c1.6,13.7,19.5,25.5,28.1,42.1l0.9,7.1v2.7l0,0.1l0,179.8c0,6.9,5.6,12.4,12.4,12.4c0.5,0,1,0,1.5-0.1c6.3-0.6,11.3-5.9,11.3-12.4
	l0-104.2h5.2l0,104.3c0,6.9,5.6,12.4,12.4,12.4c0.5,0,1,0,1.5-0.1c6.3-0.6,11.3-5.9,11.3-12.4l0-150.1h-0.1V-720l1.1-8.5
	c8.6-16.5,26.5-28.4,28.1-42.1l1.2-53.1C323.7-824.2,323.7-824.6,323.7-825z"/>
<g>
	<g>
		<g>
			<path fill="#FFD9B3" d="M561.4-727.4c-1.5-0.7-5,2.3-6.6,2l-3.5,25.4c-0.7,4.4,1.4,3.6,5.9,4.3c4.4,0.7,4.1,0.7,4.8-3.7l5.2-21.5
				C564.6-721.7,563.9-726.2,561.4-727.4z"/>
			<g>
				<path fill="#FFD9B3" d="M561.9-694.2c-0.5,3.1-3.4,5.1-6.5,4.6l0,0c-3.1-0.5-5.1-3.4-4.6-6.5l0.2-2.3c0.5-3.1,3.4-5.1,6.5-4.6
					l0,0c3.1,0.5,5.1,3.4,4.6,6.5L561.9-694.2z"/>
				<path fill="#FFD9B3" d="M556.3-683.4c0.2,1.1-0.6,2.1-1.7,2.3l0,0c-1.1,0.2-2.1-0.6-2.3-1.7l-0.9-9.5c-0.2-1.1,0.6-2.1,1.7-2.3
					l0,0c1.1-0.2,2.1,0.6,2.3,1.7L556.3-683.4z"/>
				<path fill="#FFD9B3" d="M553.8-686.1c0.1,1-0.7,1.8-1.6,1.8l0,0c-1,0.1-1.8-0.7-1.8-1.6l0-8.3c-0.1-1,0.7-1.8,1.6-1.8l0,0
					c1-0.1,1.8,0.7,1.8,1.6L553.8-686.1z"/>
				<path fill="#FFD9B3" d="M560.1-682.6c0.3,1.1-0.3,2.2-1.3,2.5l0,0c-1.1,0.3-2.2-0.3-2.5-1.3l-2.2-9.3c-0.3-1.1,0.3-2.2,1.3-2.5
					l0,0c1.1-0.3,2.2,0.3,2.5,1.3L560.1-682.6z"/>
				<path fill="#FFD9B3" d="M563.9-691c0.4,1-0.2,2.2-1.2,2.6l0,0c-1,0.4-2.2-0.2-2.6-1.2l-1.3-4.3c-0.4-1,0.2-2.2,1.2-2.6l0,0
					c1-0.4,1.5-2.3,1.9-1.3L563.9-691z"/>
			</g>
		</g>
		<path fill="#0071BC" d="M625.5-743.7c0,9-15.9,16.3-21.6,16.3h-17.7c-5.7,0-21.6-7.3-21.6-16.3l0,0c0-9,0.2-16.3,11-16.3h36.2
			C622.7-760.1,625.5-752.8,625.5-743.7L625.5-743.7z"/>
		<g>
			<path fill="#0071BC" d="M573.5-700.9h44.3c0.2-1.5,0.4-3.1,0.3-4.8l0.9-34.4c0.1-15-10.4-17.2-23.3-17.2
				c-13,0-23.6,2.1-23.6,17.2l1,34.5C573.1-703.9,573.2-702.3,573.5-700.9z"/>
			<path fill="#0071BC" d="M592.6-700.9v-24.4c0-14.2-4.6-19.5-10.2-19.5c-5.6,0-9.3,25.1-9.3,39.2l0.2,4.7H592.6z"/>
			<path fill="#0071BC" d="M617.8-700.9l0.2-4.6c0-14.2-3.7-39.2-9.3-39.2c-5.6,0-10.2,5.3-10.2,19.5v24.4H617.8z"/>
		</g>
		<g>
			<path fill="#999999" d="M573.2-701.6c1.6,12,10.6,15.9,22.4,15.9c11.8,0,20.7-3.9,22.3-15.9H573.2z"/>
			<path fill="#999999" d="M573.1-701.6l2.6,77c0-1,0.1-7.6,6-7.6c5.9,0,10.7,6.6,10.7,7.6v-77H573.1z"/>
			<path fill="#999999" d="M598.7-701.6v77.1c0-1,4.8-7.6,10.7-7.6c5.9,0,6,6.6,6,7.6l2.5-77.1H598.7z"/>
			<path fill="#47331F" d="M571-624.1v-0.8c0-7,5.4-12.6,12.1-12.6l0,0c6.7,0,12.1,5.6,12.1,12.6v0.8H571z"/>
			<path fill="#47331F" d="M597.3-624.1v-0.8c0-7,5.4-12.6,12.1-12.6l0,0c6.7,0,12.1,5.6,12.1,12.6v0.8H597.3z"/>
		</g>
		<path fill="#7D6B59" d="M599.6-699.8c0.7,1.4,0.7,3.2,0.1,4.6h17.9l0.2-4.6H599.6z"/>
		<path fill="#7D6B59" d="M590.3-699.8h-17.2l0.2,4.6h16.9C589.6-696.7,589.7-698.4,590.3-699.8z"/>
		<g>
			<path fill="#FFD9B3" d="M563.6-750.2l-8.9,24.9c4.2,0.8,8.8,2.5,12.1,5l4.9-10.3c-0.1-0.6-0.1-1.2,0-1.9c0.8-4.4,2.1-9.3,2.4-14
				C571-748.1,566.9-748.7,563.6-750.2z"/>
			<path fill="#0071BC" d="M575.6-759c-4.2-1.6-8.9,0.4-10.5,4.6l-7.2,20.2c4.9,1.6,9.3,1.9,13.5,4.4l8.9-18.7
				C581.9-752.7,579.8-757.4,575.6-759z"/>
		</g>
		<g>
			<path fill="#FFD9B3" d="M619.4-732c-1.4-4.3-3.3-8.9-4.2-13.6c2.9-2,6.9-3.1,9.9-5.1l23.8,46.3c2.2,3.9-0.2,3.8-4.1,6
				c-3.9,2.2-3.6,2-5.8-1.9l-19.3-29.9C619.7-730.7,619.6-731.3,619.4-732z"/>
			<path fill="#0071BC" d="M612.1-757.8c3.9-2.2,8.9-0.7,11,3.2l7.3,14.1c-3.8,3.3-7.3,6.9-10.2,11.1l-11.3-17.4
				C606.7-750.7,608.1-755.7,612.1-757.8z"/>
			<g>
				<path fill="#FFD9B3" d="M640.8-695.4c1.5,2.7,4.9,3.7,7.7,2.2l0,0c2.7-1.5,3.7-4.9,2.2-7.7l-1-2.1c-1.5-2.7-4.9-3.7-7.7-2.2l0,0
					c-2.7,1.5-3.7,4.9-2.2,7.7L640.8-695.4z"/>
				<path fill="#FFD9B3" d="M649.7-687.1c0.2,1.1,1.2,1.8,2.3,1.6l0,0c1.1-0.2,1.8-1.2,1.6-2.3l-2.3-9.3c-0.2-1.1-1.2-1.8-2.3-1.6
					l0,0c-1.1,0.2-1.8,1.2-1.6,2.3L649.7-687.1z"/>
				<path fill="#FFD9B3" d="M651.1-690.5c0.3,0.9,1.2,1.4,2.1,1.2l0,0c0.9-0.3,1.4-1.2,1.2-2.1l-2.8-7.8c-0.3-0.9-1.2-1.4-2.1-1.2
					l0,0c-0.9,0.3-1.4,1.2-1.2,2.1L651.1-690.5z"/>
				<path fill="#FFD9B3" d="M646.3-685.1c0,1.1,1,2,2.1,1.9l0,0c1.1-0.1,2-1,1.9-2.1l-1-9.5c-0.1-1.1-1-2-2.1-1.9l0,0
					c-1.1,0.1-2,1-1.9,2.1L646.3-685.1z"/>
				<path fill="#FFD9B3" d="M639.9-691.7c0,1.1,0.9,2,2,2l0,0c1.1,0,2-0.9,2-2l-0.2-4.5c0-1.1-0.9-2-2-2l0,0c-1.1,0-2.2-1.7-2.2-0.6
					L639.9-691.7z"/>
			</g>
		</g>
		<g>
			<path fill="#E3C09E" d="M605.1-764.1c0,5.8-4.7,10.6-10.6,10.6l0,0c-5.8,0-10.6-4.7-10.6-10.6v-1.8c0-5.8,4.7-10.6,10.6-10.6l0,0
				c5.8,0,10.6,4.7,10.6,10.6V-764.1z"/>
			<circle fill="#B3B3B3" cx="574.4" cy="-806.9" r="25.7"/>
			<circle fill="#B3B3B3" cx="614.2" cy="-806.9" r="25.7"/>
			<path fill="#FFD9B3" d="M627.2-794.2c0,18.1-14.6,32.7-32.7,32.7l0,0c-18.1,0-32.7-14.6-32.7-32.7v-21.5
				c0-18.1,14.6-32.7,32.7-32.7l0,0c18.1,0,32.7,14.6,32.7,32.7V-794.2z"/>
			<g>
				<g>
					<path fill="#EA8363" d="M594.1-781c-6.6,0-12.9-0.5-18.5-1.4c4.3,6.8,11.1,11.2,18.9,11.2c7.8,0,14.7-4.5,19-11.3
						C607.6-781.5,601-781,594.1-781z"/>
				</g>
				<path fill="#FFFFFF" d="M594.1-778.5c6.1,0,12-0.5,17.3-1.3c0.7-0.9,1.4-1.8,2-2.8c-5.9,1-12.4,1.6-19.3,1.6
					c-6.6,0-12.9-0.5-18.5-1.4c0.6,1,1.3,1.9,2,2.8C582.8-778.9,588.3-778.5,594.1-778.5z"/>
				<path fill="#E06E4A" d="M583.8-774.3c3.2,1.9,6.9,3,10.7,3c3.9,0,7.5-1.1,10.7-3c-2.7-1.3-6.5-2.1-10.7-2.1
					C590.3-776.4,586.5-775.6,583.8-774.3z"/>
			</g>
			<g>
				<path fill="#333333" d="M580.8-804c0,1.8-1.4,3.2-3.2,3.2l0,0c-1.8,0-3.2-1.4-3.2-3.2v-2.1c0-1.8,1.4-3.2,3.2-3.2l0,0
					c1.8,0,3.2,1.4,3.2,3.2V-804z"/>
				<path fill="#FFD9B3" d="M581.8-799.6c0,1.8-1.9,3.2-4.2,3.2l0,0c-2.3,0-4.2-1.4-4.2-3.2v-0.8c0-1.8,1.9-3.2,4.2-3.2l0,0
					c2.3,0,4.2,1.4,4.2,3.2V-799.6z"/>
				<path fill="#FFFFFF" d="M576.9-806.1c0,0.4-0.3,0.7-0.7,0.7l0,0c-0.4,0-0.7-0.3-0.7-0.7v-0.8c0-0.4,0.3-0.7,0.7-0.7l0,0
					c0.4,0,0.7,0.3,0.7,0.7V-806.1z"/>
			</g>
			<g>
				<path fill="#333333" d="M615-804c0,1.8-1.4,3.2-3.2,3.2l0,0c-1.8,0-3.2-1.4-3.2-3.2v-2.1c0-1.8,1.4-3.2,3.2-3.2l0,0
					c1.8,0,3.2,1.4,3.2,3.2V-804z"/>
				<path fill="#FFD9B3" d="M616.1-799.6c0,1.8-1.9,3.2-4.2,3.2l0,0c-2.3,0-4.2-1.4-4.2-3.2v-0.8c0-1.8,1.9-3.2,4.2-3.2l0,0
					c2.3,0,4.2,1.4,4.2,3.2V-799.6z"/>
				<path fill="#FFFFFF" d="M611.2-806.1c0,0.4-0.3,0.7-0.7,0.7l0,0c-0.4,0-0.7-0.3-0.7-0.7v-0.8c0-0.4,0.3-0.7,0.7-0.7l0,0
					c0.4,0,0.7,0.3,0.7,0.7V-806.1z"/>
			</g>
			<path fill="#FFD9B3" d="M569.9-800.8c0,4.5-3.7,8.2-8.2,8.2l0,0c-4.5,0-8.2-3.7-8.2-8.2l0,0c0-4.5,3.7-8.2,8.2-8.2l0,0
				C566.3-809,569.9-805.3,569.9-800.8L569.9-800.8z"/>
			<path fill="#FFD9B3" d="M635.4-800.8c0,4.5-3.7,8.2-8.2,8.2l0,0c-4.5,0-8.2-3.7-8.2-8.2l0,0c0-4.5,3.7-8.2,8.2-8.2l0,0
				C631.7-809,635.4-805.3,635.4-800.8L635.4-800.8z"/>
			<path fill="#B3B3B3" d="M580.8-821.5c0.3,0.6,0.1,1.3-0.5,1.6l-8.5,4.6c-0.6,0.3-1.3,0.1-1.6-0.5l0,0c-0.3-0.6-0.1-1.3,0.5-1.6
				l8.5-4.6C579.7-822.3,580.5-822.1,580.8-821.5L580.8-821.5z"/>
			<path fill="#B3B3B3" d="M606.1-821.5c-0.3,0.6-0.1,1.3,0.5,1.6l8.5,4.6c0.6,0.3,1.3,0.1,1.6-0.5l0,0c0.3-0.6,0.1-1.3-0.5-1.6
				l-8.5-4.6C607.2-822.3,606.4-822.1,606.1-821.5L606.1-821.5z"/>
			<ellipse fill="#B3B3B3" cx="559" cy="-813.5" rx="7.7" ry="9.8"/>
			<ellipse fill="#B3B3B3" cx="629.1" cy="-813.5" rx="7.7" ry="9.8"/>
			<path fill="#B3B3B3" d="M616.7-784c0,2.2-1.8,4-4,4h-36.5c-2.2,0-4-1.8-4-4l0,0c0-2.2,1.8-4,4-4h36.5
				C615-787.9,616.7-786.2,616.7-784L616.7-784z"/>
			<g>
				<path fill="#AB9279" d="M604.3-789.9c0,2.5-2,4.5-4.5,4.5h-10.5c-2.5,0-4.5-2-4.5-4.5l0,0c0-2.5,2-4.5,4.5-4.5h10.5
					C602.3-794.4,604.3-792.4,604.3-789.9L604.3-789.9z"/>
				<path fill="#AB9279" d="M587.3-810.2v19.5c0,4,3.2,7.2,7.2,7.2c4,0,7.2-3.2,7.2-7.2v-19.5H587.3z"/>
				<path fill="#FFD9B3" d="M603.2-790.1c0,2.2-1.8,4-4,4h-9.3c-2.2,0-4-1.8-4-4l0,0c0-2.2,1.8-4,4-4h9.3
					C601.4-794.1,603.2-792.3,603.2-790.1L603.2-790.1z"/>
				<path fill="#FFD9B3" d="M588-810.8v19.9c0,3.6,2.9,6.5,6.5,6.5c3.6,0,6.5-2.9,6.5-6.5v-19.9H588z"/>
			</g>
		</g>
		<circle fill="#CAE7ED" cx="595.1" cy="-747.2" r="2"/>
		<circle fill="#CAE7ED" cx="595.1" cy="-734.4" r="2"/>
		<circle fill="#CAE7ED" cx="595.1" cy="-721.6" r="2"/>
		<circle fill="#CAE7ED" cx="595.1" cy="-708.9" r="2"/>
	</g>
	<g>
		<g>
			<path fill="#FFD9B3" d="M716.1-736c0.2-0.3,0.4-0.6,0.6-0.9c0,0,0,0,0,0c1.6-0.2,3.1-0.5,4.5-1.4c0.2-0.1,0.3-0.2,0.5-0.3
				l12.2,38.3c1.6,4-0.1,2-2.2,2.8c-3.5,1.2-2.7,3.4-4.3-0.8L714.9-728c0.1-0.5,0.1-1,0-1.5c-0.2-1.1-0.4-2.3-0.7-3.4
				C714.8-734,715.4-735,716.1-736z"/>
			<path fill="#C1272D" d="M711.7-748.6c1.8-0.9,1.5-1.1,3.5,0c2.4,1.5,6.9,8.4,9.1,16.9c-2.4,1.2-6.7,1.2-9.1,4.3l-6.2-14.1
				C707.9-744.5,709-747.2,711.7-748.6z"/>
			<g>
				<path fill="#FFD9B3" d="M728.1-694.5c0.9,2.4,3.1,3.5,4.9,2.3l0,0c1.8-1.2,2.4-4,1.5-6.3l-0.6-1.7c-0.9-2.2-3-3.2-4.7-2.2l0,0
					c-1.8,1-2.5,3.8-1.6,6.1L728.1-694.5z"/>
				<path fill="#FFD9B3" d="M733.8-686.7c0.1,1,0.8,1.7,1.5,1.6l0,0c0.7-0.1,1.2-1.1,1.1-2.1l-1.5-8.3c-0.1-0.9-0.8-1.6-1.5-1.5l0,0
					c-0.7,0.1-1.2,0.9-1.1,1.9L733.8-686.7z"/>
				<path fill="#FFD9B3" d="M734.7-689.7c0.2,0.8,0.8,1.4,1.4,1.2l0,0c0.6-0.2,0.9-1,0.8-1.8l-1.8-6.8c-0.2-0.8-0.8-1.3-1.3-1.1l0,0
					c-0.6,0.2-0.9,0.9-0.8,1.7L734.7-689.7z"/>
				<path fill="#FFD9B3" d="M731.5-685c0,1,0.6,1.9,1.4,1.9l0,0c0.8,0,1.3-0.8,1.3-1.9l-0.6-8.6c0-0.9-0.6-1.7-1.3-1.7l0,0
					c-0.7,0-1.3,0.7-1.3,1.7L731.5-685z"/>
				<path fill="#FFD9B3" d="M727.4-691.3c-0.1,1,0.5,1.8,1.2,1.9l0,0c0.7,0.1,1.4-0.7,1.4-1.7l0-3.9c0-0.9-0.5-1.8-1.2-1.8l0,0
					c-0.7-0.1-1.4-1.5-1.4-0.6L727.4-691.3z"/>
			</g>
		</g>
		<path fill="#FFD9B3" d="M683.6-678l4.4,51.3l8.3-1.8l4.2-49.3C694.8-677.7,689.2-677.7,683.6-678z"/>
		<path fill="#47331F" d="M696.4-629.6c-1,1-2.5,1.7-4.4,1.7c-1.9,0-3.4-0.7-4.4-1.7c-1.7,1.4-2.8,3.5-2.8,5.9v0.5h14.5l0-0.5
			C699.3-626,698.2-628.2,696.4-629.6z"/>
		<path fill="#FFD9B3" d="M702.8-678l4.4,51.3l8.3-1.8l4.2-49.3C714-677.7,708.4-677.7,702.8-678z"/>
		<g opacity="0.1">
			<path d="M698.3-652.8l2.1-24.9c-5.6,0-11.2,0-16.9-0.2l2.1,25.1H698.3z"/>
			<path d="M717.5-652.8l2.1-24.9c-5.6,0-11.2,0-16.9-0.2l2.1,25.1H717.5z"/>
		</g>
		<path fill="#47331F" d="M715.6-629.6c-1,1-2.5,1.7-4.4,1.7c-1.9,0-3.4-0.7-4.4-1.7c-1.7,1.4-2.8,3.5-2.8,5.9v0.5h14.5l0-0.5
			C718.4-626,717.3-628.2,715.6-629.6z"/>
		<polygon fill="#C1272D" points="686.4,-736.2 670.7,-657.9 733.2,-657.9 715.1,-734.6 		"/>
		<path fill="#C1272D" d="M680.1-739.5c-0.4,6.6,10.6,5,14.6,5h12.6c4,0,14.6,1.6,13.6-5l0,0c-0.9-6.2-7.5-11.4-12.2-11.4h-15.9
			C687.8-751.1,680.5-745.7,680.1-739.5L680.1-739.5z"/>
		<g>
			<path fill="#FFD9B3" d="M683.8-737.9c-0.1-0.4-0.2-0.7-0.3-1.1c0,0,0,0,0,0c-1.5-0.8-3-1.7-4.1-3c-0.1-0.2-0.3-0.3-0.4-0.5
				l-26.4,31.4c-3.1,3.5-1.2,3.9,1.3,7c2.5,3.1,2.3,2.9,5.4-0.7l22.9-24.3c0.1-0.5,0.3-1,0.6-1.6c0.6-1.1,1.3-2.1,1.9-3.2
				C684.4-735.4,684.2-736.7,683.8-737.9z"/>
			<path fill="#C1272D" d="M692.9-749.2c-1.5-1.5-1.1-1.7-3.6-1.2c-3,0.6-10.1,6-15.4,14c2,2.1,6.5,3.7,7.8,7.7l11.5-12.2
				C695.3-743.6,695.1-746.9,692.9-749.2z"/>
			<g>
				<path fill="#FFD9B3" d="M656.2-700.2c-2.2,2.6-5.4,2.9-7.1,0.7l0,0c-1.7-2.2-1.2-6,1-8.5l1.5-1.9c2.1-2.4,5.1-2.7,6.8-0.6l0,0
					c1.7,2.1,1.4,5.8-0.7,8.3L656.2-700.2z"/>
				<path fill="#FFD9B3" d="M645.7-693c-0.6,1.2-1.8,1.8-2.6,1.3l0,0c-0.8-0.5-1-1.9-0.4-3l5.5-9.6c0.6-1.1,1.7-1.6,2.5-1.2l0,0
					c0.8,0.4,1,1.7,0.5,2.8L645.7-693z"/>
				<path fill="#FFD9B3" d="M645.9-697.1c-0.6,1-1.6,1.3-2.2,0.8l0,0c-0.7-0.5-0.7-1.7-0.1-2.6l5.2-7.6c0.5-0.9,1.5-1.2,2.1-0.8l0,0
					c0.6,0.5,0.7,1.6,0.2,2.5L645.9-697.1z"/>
				<path fill="#FFD9B3" d="M647.8-689.9c-0.5,1.3-1.6,2.1-2.5,1.7l0,0c-0.9-0.3-1.3-1.6-0.8-2.9l4.5-10.4c0.4-1.2,1.5-1.9,2.4-1.6
					l0,0c0.9,0.3,1.3,1.5,0.8,2.7L647.8-689.9z"/>
				<path fill="#FFD9B3" d="M655.7-696c-0.4,1.2-1.4,2.1-2.4,1.8l0,0c-0.9-0.2-1.4-1.4-1-2.7l1.7-4.8c0.4-1.2,1.4-1.9,2.3-1.7l0,0
					c0.9,0.2,2.4-1.3,2-0.1L655.7-696z"/>
			</g>
		</g>
		<circle fill="#CAE7ED" cx="700" cy="-736.4" r="2"/>
		<path fill="#CAE7ED" d="M698.4-727.2c0,0.9,0.7,1.7,1.6,1.7c0.9,0,1.6-0.7,1.5-1.7c0-0.9-0.7-1.6-1.6-1.6
			C699.1-728.9,698.4-728.1,698.4-727.2z"/>
		<path fill="#CAE7ED" d="M698.3-716.4c0,1,0.8,1.7,1.7,1.7c0.9,0,1.6-0.8,1.6-1.7c0-1-0.8-1.7-1.7-1.7
			C699-718.2,698.3-717.4,698.3-716.4z"/>
		<path fill="#CAE7ED" d="M698.3-705.1c0,1,0.8,1.8,1.7,1.8c0.9,0,1.6-0.8,1.6-1.8c0-1-0.8-1.8-1.7-1.8
			C699-707,698.3-706.2,698.3-705.1z"/>
		<g>
			<circle fill="#B3B3B3" cx="701.1" cy="-796.5" r="36.5"/>
			<path fill="#E3C09E" d="M694.6-750.4c0,3.6,2.9,6.5,6.5,6.5l0,0c3.6,0,6.5-2.9,6.5-6.5v-6.2c0-3.6-2.9-6.5-6.5-6.5l0,0
				c-3.6,0-6.5,2.9-6.5,6.5V-750.4z"/>
			<path fill="#FFD9B3" d="M674.5-780.2c0,14.9,19.2,27,27,27l0,0c11,0.4,27.1-12.1,27.1-27v-17.7c0-14.9-12.1-27-27.1-27l0,0
				c-14.9,0-27,12.1-27,27V-780.2z"/>
			<g>
				<g>
					<path fill="#EA8363" d="M701.8-765.8c3.8,0,7.5-0.3,10.8-0.8c-2.5,4-6.5,6.5-11,6.5c-4.6,0-8.6-2.6-11.1-6.6
						C693.9-766.2,697.7-765.8,701.8-765.8z"/>
				</g>
				<path fill="#FFFFFF" d="M701.8-764.4c-3.6,0-7-0.3-10.1-0.7c-0.4-0.5-0.8-1.1-1.2-1.6c3.4,0.6,7.3,0.9,11.3,0.9
					c3.8,0,7.5-0.3,10.8-0.8c-0.4,0.6-0.8,1.1-1.2,1.6C708.4-764.6,705.2-764.4,701.8-764.4z"/>
				<path fill="#E06E4A" d="M707.8-761.9c-1.9,1.1-4,1.8-6.3,1.8c-2.3,0-4.4-0.6-6.3-1.8c1.6-0.8,3.8-1.2,6.3-1.2
					C704-763.2,706.2-762.7,707.8-761.9z"/>
			</g>
			<path fill="#FFD9B3" d="M721.9-785.6c0,3.7,3,6.8,6.8,6.8l0,0c3.7,0,6.8-3,6.8-6.8l0,0c0-3.7-3-6.8-6.8-6.8l0,0
				C724.9-792.4,721.9-789.3,721.9-785.6L721.9-785.6z"/>
			<path fill="#FFD9B3" d="M667.8-785.6c0,3.7,3,6.8,6.8,6.8l0,0c3.7,0,6.8-3,6.8-6.8l0,0c0-3.7-3-6.8-6.8-6.8l0,0
				C670.8-792.4,667.8-789.3,667.8-785.6L667.8-785.6z"/>
			<g>
				<path fill="#AB9279" d="M698.3-773.4c0,0.8,0.7,1.5,1.5,1.5h3.4c0.8,0,1.5-0.7,1.5-1.5l0,0c0-0.8-0.7-1.5-1.5-1.5h-3.4
					C699-774.9,698.3-774.2,698.3-773.4L698.3-773.4z"/>
				<path fill="#AB9279" d="M703.9-780.1v6.4c0,1.3-1.1,2.4-2.4,2.4c-1.3,0-2.4-1.1-2.4-2.4v-6.4H703.9z"/>
				<path fill="#FFD9B3" d="M698.7-773.5c0,0.7,0.6,1.3,1.3,1.3h3.1c0.7,0,1.3-0.6,1.3-1.3l0,0c0-0.7-0.6-1.3-1.3-1.3H700
					C699.3-774.8,698.7-774.2,698.7-773.5L698.7-773.5z"/>
				<path fill="#FFD9B3" d="M703.7-780.3v6.6c0,1.2-1,2.1-2.1,2.1c-1.2,0-2.1-1-2.1-2.1v-6.6H703.7z"/>
			</g>
			
				<path fill="none" stroke="#B3B3B3" stroke-width="0.9377" stroke-linecap="round" stroke-linejoin="round" stroke-miterlimit="10" d="
				M681.5-787.4c1.7-1.8,4.2-2.9,6.9-2.9c0.9,0,1.8,0.1,2.7,0.4"/>
			
				<path fill="none" stroke="#B3B3B3" stroke-width="0.9377" stroke-linecap="round" stroke-linejoin="round" stroke-miterlimit="10" d="
				M720.3-786.9c-1.7-1.8-4.2-2.9-6.9-2.9c-0.9,0-1.8,0.1-2.7,0.4"/>
			<path fill="#B3B3B3" d="M709.2-828.7c-3.4,3.3-5.6,7.5-6,12.1c-1,12.6,11.6,23.9,28.3,25.2c0.5,0,0.9,0.1,1.4,0.1v-7.1
				C732.8-813,722.8-825.3,709.2-828.7z"/>
			<path fill="#B3B3B3" d="M670.3-798.3v5.6c3.3,0.9,6.9,1.5,10.7,1.5c16.7,0,30.2-10.2,30.2-22.9c0-5.9-3-11.4-7.9-15.4
				c-0.6,0-1.1,0-1.7,0C684.3-829.6,670.3-815.6,670.3-798.3z"/>
			
				<path fill="none" stroke="#333333" stroke-width="0.9377" stroke-linecap="round" stroke-linejoin="round" stroke-miterlimit="10" d="
				M684.8-782.5c0.2-3.9,6-4.4,7.6-1.1"/>
			
				<path fill="none" stroke="#333333" stroke-width="0.9377" stroke-linecap="round" stroke-linejoin="round" stroke-miterlimit="10" d="
				M718-783.3c-0.8-3.1-5.4-3.6-6.8-1"/>
			<circle fill="#FBB03B" cx="673.3" cy="-781.1" r="1.2"/>
			<circle fill="#FBB03B" cx="730.8" cy="-781.1" r="1.2"/>
			<circle opacity="0.2" fill="#EA8363" cx="684.8" cy="-772.6" r="5.9"/>
			<circle opacity="0.2" fill="#EA8363" cx="719.2" cy="-772.6" r="5.9"/>
			<path fill="#808080" d="M671.4-792.1c1.2-13.7,15-21.5,29.7-21.5c14.7,0,26.6,8.6,29.9,22.2l0,0c-1.2-17.7-11-29.4-29.9-29.4
				C682.2-820.9,672.6-809.8,671.4-792.1L671.4-792.1z"/>
		</g>
	</g>
</g>
<circle cx="1154.5" cy="-721.6" r="23.2"/>
<circle cx="1229.2" cy="-721.6" r="23.2"/>
<path d="M1292.2-656.9l-15.5-26.8c-4.3-7.4-12.4-11.3-20.4-10.5v-0.1h-56.2l0,0c0,0,0,0,0,0l-15.2,0h-1.5H1097l-44.7-25.8
	c-4.6-2.7-10.6-1.1-13.2,3.5c-2.7,4.6-1.1,10.6,3.5,13.2l47,27.1c0.2,0.1,0.3,0.1,0.5,0.2c0.3,0.2,0.6,0.3,1,0.4
	c0.3,0.1,0.6,0.2,0.9,0.3c0.3,0.1,0.6,0.1,0.9,0.2c0.4,0.1,0.7,0.1,1.1,0.1c0.2,0,0.3,0.1,0.5,0.1h31c1,0,1.8,0.7,1.9,1.7h0v195.9
	c0,6.4,5.2,11.6,11.6,11.6c6.4,0,11.6-5.2,11.6-11.6v-93c0-2.1,1.7-3.9,3.9-3.9s3.9,1.7,3.9,3.9v93c0,6.4,5.2,11.6,11.6,11.6
	c6.4,0,11.6-5.2,11.6-11.6v-186v-1.9c0-1.1,0.9-1.9,1.9-1.9l16.6,0c0.3,0,0.7,0.1,1,0.2c0.6,0.4,0.9,1,0.9,1.7h0v187.9
	c0,6.4,5.2,11.6,11.6,11.6c6.4,0,11.6-5.2,11.6-11.6v-93c0-2.1,1.7-3.9,3.9-3.9s3.9,1.7,3.9,3.9v93c0,6.4,5.2,11.6,11.6,11.6
	c6.4,0,11.6-5.2,11.6-11.6v-118c3.5,0.1,6.9-1.6,8.8-4.8l27.1-47c0.4-0.6,0.7-1.4,0.9-2.1C1293.8-651.8,1293.5-654.7,1292.2-656.9z
	 M1256.3-623.8v-47.4v-1.9h0c0-0.7,0.3-1.3,0.9-1.7c0.9-0.5,2.1-0.2,2.6,0.7l12.7,22L1256.3-623.8z"/>
<g>
	<g>
		<g>
			<circle cx="1693.5" cy="-752.9" r="16"/>
			<path d="M1720.2-685.3c0,5.7-4.6,10.3-10.3,10.3h-32.8c-5.7,0-10.3-4.6-10.3-10.3v-37.1c0-5.7,4.6-10.3,10.3-10.3h32.8
				c5.7,0,10.3,4.6,10.3,10.3L1720.2-685.3L1720.2-685.3z"/>
			<path d="M1707.4-621c0,4.4-3.5,7.9-7.9,7.9h-12c-4.4,0-7.9-3.5-7.9-7.9v-53.5c0-4.4,3.5-7.9,7.9-7.9h12c4.4,0,7.9,3.5,7.9,7.9
				C1707.4-674.5,1707.4-621,1707.4-621z"/>
		</g>
		<g>
			<circle cx="1760.6" cy="-752.9" r="16"/>
			<path d="M1787.3-685.3c0,5.7-4.6,10.3-10.3,10.3h-32.8c-5.7,0-10.3-4.6-10.3-10.3v-37.1c0-5.7,4.6-10.3,10.3-10.3h32.8
				c5.7,0,10.3,4.6,10.3,10.3V-685.3z"/>
			<path d="M1774.5-621c0,4.4-3.5,7.9-7.9,7.9h-12c-4.4,0-7.9-3.5-7.9-7.9v-53.5c0-4.4,3.5-7.9,7.9-7.9h12c4.4,0,7.9,3.5,7.9,7.9
				V-621z"/>
		</g>
		<g>
			<circle cx="1827.7" cy="-752.9" r="16"/>
			<path d="M1854.4-685.3c0,5.7-4.6,10.3-10.3,10.3h-32.8c-5.7,0-10.3-4.6-10.3-10.3v-37.1c0-5.7,4.6-10.3,10.3-10.3h32.8
				c5.7,0,10.3,4.6,10.3,10.3V-685.3L1854.4-685.3z"/>
			<path d="M1841.6-621c0,4.4-3.5,7.9-7.9,7.9h-12c-4.4,0-7.9-3.5-7.9-7.9v-53.5c0-4.4,3.5-7.9,7.9-7.9h12c4.4,0,7.9,3.5,7.9,7.9
				V-621z"/>
		</g>
		<g>
			<circle cx="1894.8" cy="-752.9" r="16"/>
			<path d="M1921.5-685.3c0,5.7-4.6,10.3-10.3,10.3h-32.8c-5.7,0-10.3-4.6-10.3-10.3v-37.1c0-5.7,4.6-10.3,10.3-10.3h32.8
				c5.7,0,10.3,4.6,10.3,10.3V-685.3z"/>
			<path d="M1908.8-621c0,4.4-3.5,7.9-7.9,7.9h-12c-4.4,0-7.9-3.5-7.9-7.9v-53.5c0-4.4,3.5-7.9,7.9-7.9h12c4.4,0,7.9,3.5,7.9,7.9
				V-621z"/>
		</g>
		<g>
			<circle cx="1961.9" cy="-752.9" r="16"/>
			<path d="M1988.6-685.3c0,5.7-4.6,10.3-10.3,10.3h-32.8c-5.7,0-10.3-4.6-10.3-10.3v-37.1c0-5.7,4.6-10.3,10.3-10.3h32.8
				c5.7,0,10.3,4.6,10.3,10.3V-685.3z"/>
			<path d="M1975.9-621c0,4.4-3.5,7.9-7.9,7.9h-12c-4.4,0-7.9-3.5-7.9-7.9v-53.5c0-4.4,3.5-7.9,7.9-7.9h12c4.4,0,7.9,3.5,7.9,7.9
				V-621z"/>
		</g>
	</g>
	<g>
		<g>
			<circle cx="1727.1" cy="-584.4" r="16"/>
			<path d="M1753.7-516.8c0,5.7-4.6,10.3-10.3,10.3h-32.8c-5.7,0-10.3-4.6-10.3-10.3v-37.1c0-5.7,4.6-10.3,10.3-10.3h32.8
				c5.7,0,10.3,4.6,10.3,10.3V-516.8z"/>
			<path d="M1741-452.5c0,4.4-3.5,7.9-7.9,7.9h-12c-4.4,0-7.9-3.5-7.9-7.9V-506c0-4.4,3.5-7.9,7.9-7.9h12c4.4,0,7.9,3.5,7.9,7.9
				V-452.5z"/>
		</g>
		<g>
			<circle cx="1794.2" cy="-584.4" r="16"/>
			<path d="M1820.8-516.8c0,5.7-4.6,10.3-10.3,10.3h-32.8c-5.7,0-10.3-4.6-10.3-10.3v-37.1c0-5.7,4.6-10.3,10.3-10.3h32.8
				c5.7,0,10.3,4.6,10.3,10.3V-516.8z"/>
			<path d="M1808.1-452.5c0,4.4-3.5,7.9-7.9,7.9h-12c-4.4,0-7.9-3.5-7.9-7.9V-506c0-4.4,3.5-7.9,7.9-7.9h12c4.4,0,7.9,3.5,7.9,7.9
				V-452.5z"/>
		</g>
		<g>
			<circle cx="1861.3" cy="-584.4" r="16"/>
			<path d="M1888-516.8c0,5.7-4.6,10.3-10.3,10.3h-32.8c-5.7,0-10.3-4.6-10.3-10.3v-37.1c0-5.7,4.6-10.3,10.3-10.3h32.8
				c5.7,0,10.3,4.6,10.3,10.3V-516.8z"/>
			<path d="M1875.2-452.5c0,4.4-3.5,7.9-7.9,7.9h-12c-4.4,0-7.9-3.5-7.9-7.9V-506c0-4.4,3.5-7.9,7.9-7.9h12c4.4,0,7.9,3.5,7.9,7.9
				V-452.5z"/>
		</g>
		<g>
			<circle cx="1928.4" cy="-584.4" r="16"/>
			<path d="M1955.1-516.8c0,5.7-4.6,10.3-10.3,10.3H1912c-5.7,0-10.3-4.6-10.3-10.3v-37.1c0-5.7,4.6-10.3,10.3-10.3h32.8
				c5.7,0,10.3,4.6,10.3,10.3L1955.1-516.8L1955.1-516.8z"/>
			<path d="M1942.3-452.5c0,4.4-3.5,7.9-7.9,7.9h-12c-4.4,0-7.9-3.5-7.9-7.9V-506c0-4.4,3.5-7.9,7.9-7.9h12c4.4,0,7.9,3.5,7.9,7.9
				V-452.5z"/>
		</g>
	</g>
</g>
<g>
	<ellipse cx="-1025.7" cy="-90.4" rx="32.2" ry="32.4"/>
	<polygon points="-1007.3,-49.3 -1025.7,-38.3 -1044,-49.3 -1044,-26.7 -1025.7,-37.6 -1007.3,-26.7 	"/>
	<path d="M-846.4,34.5l12,105.9l20.7-18.2l-27.6-159.6l-31.2,0c-4.1,5.2-11.4,8.8-19.8,8.8c-8.4,0-15.7-3.6-19.8-8.8l-30.6,0
		l-9.6,63c29.3,2.6,52.2,27.2,52.2,57.2c0,24.6-15.5,45.5-37.2,53.7l-10.4,135.3h29.1l6.4,58.1l19.6,0.5l0.2-58.6h8.4l-0.1,58.1
		h17.9l7.2-58.1h32.6l-27-237.1H-846.4z"/>
	<path d="M-1015,82.6c0-31.6,25.5-57.2,57.1-57.4l-9.8-71.7l-25.2,0l-32.7,68.5l-32.7-68.5l-30.5,0l-16.8,184.3l20.1,15.8l7.8-117.5
		l6.8,0.2l-15.1,293.8h29.4l29.4-186.2l30.3,186h28.2l-10.4-194C-1000.2,127.2-1015,106.6-1015,82.6z"/>
	<path d="M-941.5,50.9c-17.7,0-32.1,14.4-32.1,32.1c0,6.5,2,12.6,5.3,17.6c2.9-1,5.4-2.7,7.5-4.9c-2.4-3.7-3.8-8-3.8-12.8
		c0-12.8,10.4-23.1,23.1-23.1c12.8,0,23.1,10.4,23.1,23.1s-10.4,23.1-23.1,23.1c-1.4,0-2.9-0.2-4.2-0.4c-2.2,2.7-4.7,5.1-7.5,7.1
		c3.7,1.4,7.6,2.3,11.8,2.3c17.7,0,32.1-14.4,32.1-32.1S-923.8,50.9-941.5,50.9z"/>
	<path d="M-947.6,65.4c-2.9,1-5.4,2.7-7.5,4.9c2.4,3.7,3.8,8,3.8,12.7c0,12.8-10.4,23.1-23.1,23.1s-23.1-10.4-23.1-23.1
		c0-12.8,10.4-23.1,23.1-23.1c1.5,0,2.9,0.2,4.3,0.4c2.2-2.7,4.7-5.1,7.5-7.1c-3.6-1.4-7.6-2.3-11.8-2.3
		c-17.7,0-32.1,14.4-32.1,32.1s14.4,32.1,32.1,32.1s32.1-14.4,32.1-32.1C-942.3,76.5-944.2,70.5-947.6,65.4z"/>
	<path d="M-880.4-106.8c-2.8-1-5.9-1.5-9-1.6c-16.8-0.4-30.6,13-31,29.8s12.9,30.9,29.6,31.3c10.6,0.2,20.1-5.1,25.7-13.3
		c8.9,6.4,21.4,28.7,35.8-3.7C-849.5-45.5-852.9-99.5-880.4-106.8z"/>
</g>
<g>
	<path d="M-552.1-38.5c0.1,0.1,0.2,0.2,0.3,0.3c0.8,0.9,1.6,1.7,2.4,2.5c4.5,4.2,10,6.7,16,6.7c5.8,0,11.2-2.3,15.6-6.3
		c0.9-0.8,1.7-1.6,2.5-2.5c0.1-0.1,0.2-0.2,0.2-0.3c0.8-0.9,1.5-1.9,2.3-2.9c4.1-6.1,6.6-14.1,6.6-22.8c0-19.2-6.4-34.9-27.2-34.9
		c-20,0-27.1,15.6-27.1,34.9c0,8.5,2.4,16.3,6.3,22.3C-553.6-40.4-552.9-39.4-552.1-38.5z"/>
	<path d="M-455.5,25.9c-4.5-22-14.2-42.4-36.6-46.5c-11.3-2.1-22.9-3.3-34.8-3.6l5.5,0.7l-8.1,11.6v4.6l12.1,59.6L-533,73.2
		l-15.5-20.9l12.1-59.6V-12l-6.3-11.8l3.7-0.5c-11.9,0.3-23.5,1.5-34.9,3.6c-22.5,4.2-37.8,24.3-36.6,46.5l5.1,94h22.1V30h6.8v96.8
		h19.5l11.5,153.7h16.3h11.5l12.7-153.7h15.7V30h6.8l16.7,89.9h22.1L-455.5,25.9z"/>
</g>
<path d="M-369.8,114.7h-28.2c-0.7,0-1.2,1-1.2,2.2v8.6h30.7v-8.6C-368.6,115.7-369.2,114.7-369.8,114.7z"/>
<path d="M-448.4,211.5c0,1.2,1.1,2.2,2.4,2.2h125.2c1.3,0,2.4-1,2.4-2.2v-47.2h-130V211.5z"/>
<path d="M-315.2,125.5h-41.9v-13.5c0-1.2-1-2.2-2.2-2.2h-49.5c-1.2,0-2.2,1-2.2,2.2v13.5h-40.8c-1.2,0-2.2,1-2.2,2.2v28.6
	c0,0.7,0.6,1.3,1.3,1.3h138.2c0.7,0,1.3-0.6,1.3-1.3v-28.6C-313,126.5-314,125.5-315.2,125.5z M-399.3,125.5v-8.6
	c0-1.2,0.5-2.2,1.2-2.2h28.3c0.7,0,1.2,1,1.2,2.2v8.6H-399.3z"/>
<path d="M153.2,113.8c-2.3,0-4.6,0.9-6.2,2.6c-1.6,1.6-2.6,3.7-2.6,6v129.5c0,2.3,1,4.6,2.6,6.2c1.6,1.6,3.9,2.6,6.2,2.6h32.3
	c2.3,0,4.6-0.9,6.2-2.6c1.6-1.6,2.6-3.9,2.6-6.2V122.4c0-2.3-0.9-4.6-2.6-6.2c-1.6-1.6-3.9-2.4-6.2-2.4H153.2z"/>
<path d="M293.3,121.5c-40.4,0.5-80.3,13.6-80.3,13.6c-3.5,1.1-6.2,4.8-6.2,8.4V230c0.2,5.9,4.1,9.9,9.2,10.4c2.8,0.2,7,0.8,15.7,2
	c0.4,0,3.9,1,8.3,2.7c4.3,1.7,9.9,4.2,16.1,7.1c12.5,5.7,27.9,13.3,43.6,20.8c15.6,7.5,31.5,14.9,44.8,20.7
	c13.3,5.8,22.7,10.2,31.4,10.9c13.1,1,35.5-2.7,58.5-6.3c23-3.6,46.4-7.5,52.6-7.8c18.4-0.9,33.6-14.8,43.6-21.3
	c13-8.4,28-17.5,40.4-29.2c4.5-4.3,7.8-9.8,7.7-17c-0.8-6-6.2-4.5-7.5-6.9c1.8-1.9,7.1-6.8,7.5-10.6c1.3-11.1-10-16.7-19.3-17.5
	c-17.1-0.9-32.7,9.5-41.3,17.6c-13.3,12.7-27.5,16.9-47.2,19.1c-23.5,2.7-45.6,4.5-66.6-2.1c-3.1-1-10.3-4.1-16.9-6.9
	c-3.3-1.4-6.6-2.7-9.5-3.8c-2.2-0.8-3.6-1.5-6-1.8c7.2-0.9,18.9-2.6,29.7-1.4c13,1.5,53.4,1.6,70.1,4.7c6.4,1.2,12.8-0.3,17.5-3.3
	c4.7-3,7.9-7.4,10.1-11.9c4.5-9,6.3-14-0.2-22.9c-5.8-8.1-14.9-10.7-24.9-13.6c-10-2.8-21.2-4.7-31.2-6.3
	c-20.7-3.3-36.1-2.5-51.4-5.4c-5.5-1-15-6.6-28.2-12.8c-13.1-6.2-30.2-12.7-52.6-14.8C304.9,121.7,299,121.4,293.3,121.5z"/>
<path d="M304.2-98.4h138.4v0.3c-8.2,11.9-12.8,18.2-13.8,19.1h-37c5.1,5.6,8.5,12.5,10.4,20.5h39.4c0.5,0.1,0.7,0.3,0.7,0.5
	c-8.8,12.5-13.3,18.8-13.5,18.8h-25.6c-0.6,6.4-3.8,14.2-9.8,23.3C385.5-6.8,378-0.9,370.8,1.8c-13.4,6.1-26.3,9.1-38.6,9.1v0.3
	c0,0.9,3,4.7,9.1,11.3l68.3,78v3.7c0,0.4-0.2,0.5-0.7,0.5h-30.1c-54.1-59.6-81.2-89.5-81.2-89.8V-3.2l0.3-0.7c4.8,0.6,10.4,1,16.8,1
	c30.3,0,49.2-9.3,56.5-27.9c1.2-2.7,1.7-5.5,1.7-8.4h-82.3c-0.4,0-0.6-0.2-0.6-0.5c9.1-12.5,13.8-18.8,14-18.8h65.3v-0.3
	c-3.7-7.2-11-12.7-21.7-16.7c-7.7-2.4-14.6-3.5-20.7-3.5h-36.5v-0.7C299.3-92.2,303.9-98.4,304.2-98.4z"/>
<path d="M-700.2,2727h114v0.2c-6.7,9.8-10.5,15-11.4,15.7H-628c4.2,4.6,7,10.3,8.5,16.9h32.5c0.4,0.1,0.6,0.2,0.6,0.4
	c-7.3,10.3-11,15.5-11.1,15.5h-21.1c-0.5,5.3-3.2,11.7-8.1,19.2c-6.5,7.5-12.7,12.4-18.6,14.7c-11.1,5-21.6,7.5-31.8,7.5v0.2
	c0,0.7,2.5,3.8,7.5,9.3l56.3,64.2v3c0,0.3-0.2,0.4-0.6,0.4h-24.8c-44.6-49.1-66.8-73.7-66.8-74v-14.9l0.2-0.6
	c4,0.5,8.6,0.8,13.9,0.8c25,0,40.5-7.7,46.6-23c0.9-2.2,1.4-4.6,1.4-6.9h-67.8c-0.3,0-0.5-0.1-0.5-0.4c7.5-10.3,11.3-15.5,11.5-15.5
	h53.8v-0.2c-3.1-5.9-9-10.5-17.9-13.8c-6.3-1.9-12-2.9-17.1-2.9h-30.1v-0.6C-704.2,2732.1-700.4,2727-700.2,2727z"/>
<g>
	<path fill="none" d="M992.3-42.1l4.9-1.7c0.5-0.2,0.8-0.9,0.8-1.6v-1c0-0.7-0.3-1.4-0.8-1.6l-4.9-1.7c-2-0.7-4.2,0.2-4.2,2.3v2.8
		C988.1-42.3,990.3-41.4,992.3-42.1z"/>
	<circle fill="none" cx="1001.5" cy="-45.8" r="3"/>
	<path fill="none" d="M1010.7-42.1c2,0.7,4.2-0.2,4.2-2.3v-2.8c0-2.1-2.2-3-4.2-2.3l-4.9,1.7c-0.5,0.2-0.8,0.9-0.8,1.6v1
		c0,0.7,0.3,1.4,0.8,1.6L1010.7-42.1z"/>
	<path fill="none" d="M1042.8-10.1l11.9,52.4c0.4,1.2,0.6,2.5,0.8,3.7c0.2,0.8,0.4,1.6,0.5,2.4c0.1,0.3,0.2,0.7,0.2,1l0.2,0.9
		l-0.1,0c0.1,0.8,0.2,1.6,0.3,2.4c0,0.3,0.1,0.5,0.1,0.8c0.2,1.7,0.3,3.4,0.3,5.1c0,0.1,0,0.3,0,0.4c7-19,19.8-43.1,23.7-50.4
		c-4.5-1.6-8.7-3.3-11.5-4.7C1063.1,0.9,1051.2-5.4,1042.8-10.1z M1070.6,22c-12.1-9.8-22.5-19.9-19.7-24.1c0-0.1,0.1-0.1,0.2-0.2
		c6.5,3.5,13,6.9,17.1,8.9c2.4,1.2,5.5,2.5,8.7,3.7C1074.5,14.3,1072.5,18.2,1070.6,22z"/>
	<path fill="none" d="M1227.7,49.8c-0.5,3.2-0.8,6.4-0.8,9.7c0,6.5,1,12.7,2.8,18.4c0.9,1.4,1.7,2.9,2.4,4.4
		c5.8-13.1,18.4-31.8,24.4-40.5c-4.3-1.9-8.3-4.1-10.9-5.7c-2.6-1.6-6.3-4-10.3-6.6C1234.4,37,1231.7,43.9,1227.7,49.8z"/>
	<path fill="none" d="M1183.6-14c0-0.8,0.1-1.5,0.3-2.2c-2.4,1-4.2,3.4-4.2,6.1c0,3.7,3,6.6,6.6,6.6c2.1,0,4-1,5.2-2.6
		C1187.2-6,1183.6-9.6,1183.6-14z"/>
	<path fill="none" d="M1191.8-5.9c1.2,1.5,3.1,2.5,5.2,2.5c3.7,0,6.6-3,6.6-6.6c0-2.8-1.7-5.1-4.1-6.1c0.2,0.7,0.3,1.4,0.3,2.1
		C1199.8-9.6,1196.2-6,1191.8-5.9z"/>
	<path fill="none" d="M985.3-70.7c0.2,0.9,0.4,2.3,1,2.6c1,0.6,2.4,0.5,3.3-0.8c0.6-0.8,1.4-1.4,2.2-2c0.4,0.1,0.9,0.2,1.4,0.1
		c3-0.4,5-2.2,6.6-4.6c0.6-0.9,1.1-1.9,1.6-2.9c0.5,1,1,2,1.6,2.9c1.6,2.4,3.6,4.2,6.6,4.6c0.5,0.1,1,0,1.4-0.1
		c0.8,0.6,1.6,1.2,2.2,2c0.9,1.3,2.3,1.4,3.3,0.8c0.6-0.4,0.8-1.7,1-2.6c0.2-0.7,0-1.5-0.1-2.3c0,0,0,0,0,0
		c-0.1-2.4,0.1-4.9-0.3-7.3c-1-5.4-6.5-9.5-11.4-8.8c-0.8,0.1-3.2,1.1-4.4,1.6c-1.2-0.5-3.6-1.4-4.4-1.6c-4.9-0.7-10.4,3.4-11.4,8.8
		c-0.4,2.4-0.2,4.8-0.3,7.3c0,0,0,0,0,0C985.4-72.2,985.2-71.4,985.3-70.7z"/>
	<path d="M1051-2.3c-0.1,0.1-0.1,0.1-0.2,0.2c-2.7,4.2,7.7,14.4,19.7,24.1c1.9-3.8,4-7.7,6.2-11.8c-3.2-1.2-6.2-2.5-8.7-3.7
		C1064,4.6,1057.5,1.2,1051-2.3z"/>
	<path d="M931.9,133.6c-0.7,2.8-1.6,5.3-2.5,7.4c2,2.5,3.3,5.6,3.3,9.1h0v196.4h7V149.2h-0.1C939.4,142.9,936.4,137.4,931.9,133.6z"
		/>
	<path d="M896.6,150.1h7.1c0-5.9,3.5-10.9,8.5-13.2c-0.7-2.1-1.3-4.4-1.9-6.9C902.3,133.2,896.6,140.9,896.6,150.1z"/>
	<path d="M1001.5-61.6c21.3,0,38.6-17.3,38.6-38.6s-17.3-38.6-38.6-38.6s-38.6,17.3-38.6,38.6S980.2-61.6,1001.5-61.6z M985.4-72.9
		c0.1-2.4-0.1-4.9,0.3-7.3c1-5.4,6.5-9.5,11.4-8.8c0.8,0.1,3.2,1.1,4.4,1.6c1.2-0.5,3.6-1.4,4.4-1.6c4.9-0.7,10.4,3.4,11.4,8.8
		c0.4,2.4,0.2,4.8,0.3,7.3c0,0,0,0,0,0c0,0.8,0.2,1.5,0.1,2.3c-0.2,0.9-0.4,2.3-1,2.6c-1,0.6-2.4,0.5-3.3-0.8
		c-0.6-0.8-1.4-1.4-2.2-2c-0.4,0.1-0.9,0.2-1.4,0.1c-3-0.4-5-2.2-6.6-4.6c-0.6-0.9-1.1-1.9-1.6-2.9c-0.5,1-1,2-1.6,2.9
		c-1.6,2.4-3.6,4.2-6.6,4.6c-0.5,0.1-1,0-1.4-0.1c-0.8,0.6-1.6,1.2-2.2,2c-0.9,1.3-2.3,1.4-3.3,0.8c-0.6-0.4-0.8-1.7-1-2.6
		C985.2-71.4,985.4-72.2,985.4-72.9C985.4-72.9,985.4-72.9,985.4-72.9z"/>
	<path d="M1277.5,50.3c2.1-2.9,2.6-6.5,1.7-9.7c0-0.1,0-0.1,0-0.2c-8.6-33.9-62.7-56-69.5-56.3c-5.4-2.6-11.5-4.1-18-4.1
		c-6.4,0-12.4,1.5-17.7,4c-4.7-0.2-43.5,15.1-61.6,39.9c-1-0.6-2.3-1.4-3.8-2.4c-2,3.4-6.4,10.9-12,19.7c3.2,2.2,5.2,3.5,5.2,3.5
		c1.5,0.9,3.1,1.5,4.7,1.7c6.4,2.6,24.1-5.8,31.6-10.4c2.6-1.6,6.3-4,10.3-6.6c0.7,6.8,3,13.1,6.4,18.6c0.7,3.7,1.1,7.5,1.1,11.5
		c0,6.5-1.6,15.1-3.4,20.9c0,0,0,0,0,0c-0.5,0.9-1,1.9-1.4,2.9c0,0-0.1-0.1-0.1-0.1c-2.5,5.4-10.3,28.1-13.5,56.2h0
		c0,0.2,0,0.4-0.1,0.6c-0.3,2.7-0.6,5.4-0.8,8.2c-4.5,44.9-18.6,149.2-18.6,149.2c11.1,3.2,21.8,5.6,31.9,7.3
		c2.8,24,7.4,45.3,15.3,45.3c7.5,0,12.1-19.4,14.9-42.2c7.5,0.3,14.5,0.3,21.1-0.1c2.8,22.2,7.4,40.9,14.8,40.9
		c7.8,0,12.5-20.8,15.2-44.5c21.1-4.2,32.9-10.1,32.9-10.1s-16.5-127.6-21.2-165.2c-1.8-13.1-4.4-24.5-6.7-32.9
		C1249.4,89.9,1277.5,50.3,1277.5,50.3z M1256.4,41.9c-6,8.6-18.6,27.3-24.4,40.5c-0.7-1.5-1.5-3-2.4-4.4
		c-1.8-5.7-2.8-11.9-2.8-18.4c0-3.3,0.3-6.5,0.8-9.7c4.1-5.9,6.8-12.8,7.5-20.3c4,2.6,7.7,5,10.3,6.6
		C1248.1,37.8,1252.1,39.9,1256.4,41.9z M1199.5-16.1c2.4,1,4.1,3.4,4.1,6.1c0,3.7-3,6.6-6.6,6.6c-2.1,0-4-1-5.2-2.5
		c4.4,0,8-3.6,8-8.1C1199.8-14.7,1199.6-15.5,1199.5-16.1z M1186.4-3.4c-3.7,0-6.6-3-6.6-6.6c0-2.8,1.7-5.2,4.2-6.1
		c-0.2,0.7-0.3,1.4-0.3,2.2c0,4.4,3.6,8,8,8.1C1190.4-4.4,1188.5-3.4,1186.4-3.4z"/>
	<path d="M1154.5-52.2c0,1.6,1,3,2.5,3.6c-0.8,0.5-1.3,1.3-1.3,2.3c0,1.5,1.2,2.8,2.8,2.8c1.1,0,2.1-0.7,2.5-1.6
		c7.4,8.3,18.1,13.5,30.1,13.5c12,0,22.7-5.2,30.1-13.5c0.4,1,1.4,1.6,2.5,1.6c1.5,0,2.8-1.2,2.8-2.8c0-1-0.5-1.8-1.3-2.3
		c1.4-0.6,2.5-2,2.5-3.6c0-0.6-0.2-1.2-0.4-1.7c2.7-5.5,4.3-11.6,4.3-18.1c0-22.3-18.1-40.4-40.4-40.4c-22.3,0-40.4,18.1-40.4,40.4
		c0,6.5,1.6,12.7,4.3,18.1C1154.6-53.4,1154.5-52.8,1154.5-52.2z"/>
	<path d="M1190.9-113.7c6.2,0,12,1.4,17.2,3.8c0.1-0.8,0.2-1.6,0.2-2.5c0-9.6-7.8-17.4-17.4-17.4s-17.4,7.8-17.4,17.4
		c0,0.8,0.1,1.7,0.2,2.5C1179-112.3,1184.8-113.7,1190.9-113.7z"/>
	<path d="M1107.1,9c0.2-1.1,0.1-2.4-0.5-4.1c-8.5-23.5-37.8-39.5-59.1-47.6c-13.3-8.5-29.1-13.4-46-13.4
		c-27.6,0-52.2,13.1-67.9,33.3c-1.3,1.3-3.7,4.7-6.5,9.6c-0.4,0.6-0.8,1.2-1.1,1.9h0c-9.2,16.6-21.7,47.1-17.7,72.2
		c-0.5,1.4-0.8,2.9-0.8,4.5c0,0,1,80.4,14,80.4c13,0,13.5-80.5,13.5-80.5c0-2.8-0.9-5.4-2.3-7.6c2.2-4.3,4.1-8.5,5.2-11.5
		c3.6-9.7,19.8-52.5,20.9-57.5h1.6L948,43.4c-0.2,0.6-0.3,1.3-0.4,1.9c-0.3,1.1-0.6,2.3-0.8,3.4c0,0.1-0.1,0.2-0.1,0.3l-0.2,0.9
		l0.1,0c0,0.3-0.1,0.6-0.1,0.8c-0.2,1.1-0.3,2.3-0.4,3.4c0,0.5,0,1-0.1,1.4c-0.1,1.1-0.2,2.2-0.2,3.4c0,11.8,3.7,22.7,10,31.7
		c-5.5,24.9-11.3,73.7,2,109.9c-0.3,1.4-0.5,2.7-0.5,4.2v124.3c0,10,6.8,18,15.3,18h0.1c8.4,0,15.3-8.1,15.3-18V206.9
		c2.9-12,4.5-26.4,5.2-34.6c1.3-14.4,2.8-48,2.5-58c1.9,0.2,3.8,0.3,5.7,0.3c1.5,0,3-0.1,4.5-0.2c-0.2,10.5,1.3,43.4,2.5,57.6
		c0.7,8.2,2.3,22.6,5.2,34.6v122.2c0,10,6.8,18,15.3,18h0.1c8.4,0,15.3-8.1,15.3-18V204.4c0-1.4-0.2-2.8-0.5-4.2
		c13.1-35.5,7.8-83,2.4-108.4c2.6-3.5,4.8-7.2,6.5-11.3c0.3,1.2,0.8,2.2,1.6,2.7C1065.7,89.7,1106,20,1106,20
		C1108,16.6,1108.2,12.6,1107.1,9z M1005-46.3c0-0.7,0.3-1.4,0.8-1.6l4.9-1.7c2-0.7,4.2,0.2,4.2,2.3v2.8c0,2.1-2.2,3-4.2,2.3
		l-4.9-1.7c-0.5-0.2-0.8-0.9-0.8-1.6V-46.3z M1001.5-48.8c1.7,0,3,1.4,3,3c0,1.7-1.4,3-3,3c-1.7,0-3-1.4-3-3
		C998.4-47.5,999.8-48.8,1001.5-48.8z M988.1-47.2c0-2.1,2.2-3,4.2-2.3l4.9,1.7c0.5,0.2,0.8,0.9,0.8,1.6v1c0,0.7-0.3,1.4-0.8,1.6
		l-4.9,1.7c-2,0.7-4.2-0.2-4.2-2.3V-47.2z M1057.1,59c0-0.1,0-0.3,0-0.4c0-1.7-0.1-3.4-0.3-5.1c0-0.3-0.1-0.5-0.1-0.8
		c-0.1-0.8-0.2-1.6-0.3-2.4l0.1,0l-0.2-0.9c-0.1-0.3-0.2-0.7-0.2-1c-0.2-0.8-0.4-1.6-0.5-2.4c-0.3-1.2-0.5-2.5-0.8-3.7l-11.9-52.4
		c8.4,4.7,20.3,11,26.6,14.1c2.9,1.4,7,3.1,11.5,4.7C1077,15.9,1064.2,40,1057.1,59z"/>
</g>
<path d="M1932.8,171.8c-0.5-5.4-2.4-10.4-4.4-15.3c-2.4-5.9-7.3-9.9-12.2-13.3c-9.3-6.4-19.5-10.4-29.7-14.8
	c-7.3-3-14.6-5.9-21.9-9.4c-20.5-9.4-23.4-16.8-23.9-17.8c0-0.5-0.5-1.5-0.5-2s0-0.5,0-1v-8.4c0,0,38.5,1,57-17.8
	c0,0-26.8-7.9-21.9-56.8c4.9-49.4-5.8-92.4-44.8-88.9c0,0-17.1-20.8-50.7-7.9c-11.7,4.4-42.4,15.8-40.9,84
	c1.5,68.2-23.9,68.7-23.9,68.7s13.2,19.3,58,18.8v4c0,1.5,0,3-0.5,4.9c0,0.5,0,1.5-0.5,2c-0.5,1-2.9,8.4-23.9,17.8
	c-7.3,3-14.6,5.9-21.9,9.4c-10.2,4.4-20.5,8.4-29.7,14.8c-4.9,3.5-9.7,7.4-12.2,13.3c-1.9,4.9-3.9,9.9-4.4,15.3
	c-0.5,3.5-0.5,6.9,0.5,10.4c41.9,0,83.3,0,125.3,0c0.5,0,1,0,1.5,0c41.9,0,83.3,0,125.3,0C1933.3,178.8,1933.3,175.3,1932.8,171.8z"
	/>
<g>
	<path d="M954.7,933h-60.8c-4.9,0-9-4.1-9-9l-0.5-64.9H820c-4.9,0-9-4.1-9-9v-61.1c0-4.9,4.1-9,9-9h64.1l0.8-64.9c0-4.9,4.1-9,9-9
		h60.8c4.9,0,9,4.1,9,9c0,4.9-3.8,9-9,9h-52.1l-0.8,64.9c0,4.9-4.1,9-9,9H829v43.1h64.4c4.9,0,9,4.1,9,9l0.5,64.9H946l0.5-64.9
		c0-4.9,4.1-9,9-9h64.4v-43.1h-64.4c-4.9,0-9-3.8-9-9l-0.5-36.9c0-4.9,3.8-9,9-9c4.9,0,9,3.8,9,9l0.3,28.2h64.4c4.9,0,9,4.1,9,9
		v61.1c0,4.9-4.1,9-9,9h-64.4l-0.5,64.9C963.7,928.9,959.8,933,954.7,933z"/>
</g>
<g>
	<g>
		<path d="M1693.4,952.4h141.8V668.9h-141.8V952.4z M1814,924.1h-35.4v-35.4h35.4V924.1z M1814,860.3h-35.4v-35.4h35.4V860.3z
			 M1714.7,725.6h35.4v-35.4h28.4v35.4h35.4v28.4h-35.4v35.4h-28.4v-35.4h-35.4L1714.7,725.6L1714.7,725.6z M1714.7,824.8h35.4v35.4
			h-35.4V824.8z M1714.7,888.6h35.4v35.4h-35.4V888.6z"/>
		<path d="M1856.5,952.4h35.4v-70.9h49.6v70.9h35.4v-156h-120.5V952.4z"/>
		<path d="M1856.5,761v14.2H1977V761L1856.5,761L1856.5,761z"/>
	</g>
</g>
<g>
	<g>
		<path d="M-1013.6,1007.7L-1013.6,1007.7c-20.5,0-37.8-14.7-41-35c-3.6-22.6,11.9-43.9,34.5-47.5l59.6-9.4
			c23.1-3.7,43.9,12.1,47.5,34.5c1.7,10.9-0.9,21.9-7.4,30.9c-6.5,9-16.1,14.9-27.1,16.6l-59.6,9.5
			C-1009.3,1007.5-1011.4,1007.7-1013.6,1007.7z M-993,928.8l-25.8,4.1c-18.3,2.9-30.9,20.2-28,38.5c2.6,16.4,16.6,28.4,33.2,28.4
			c0,0,0,0,0,0c1.7,0,3.5-0.1,5.3-0.4l25.2-4c-11.3-10.9-17-23.7-17-38.2C-1000.1,945.4-996.2,935.2-993,928.8z"/>
	</g>
	<g>
		<g>
			<path d="M-934.5,795l-64.1-2.2l-1.6,0c-23.7,0-43,18.6-43.8,42.3c-0.8,24.2,18.1,44.5,42.3,45.4l64.1,2.3l1.6,0c0,0,0,0,0,0
				c23.7,0,43-18.6,43.8-42.4C-891.3,816.2-910.3,795.8-934.5,795z M-936,874.9l-29.5-1c5.9-7.5,14.4-21.4,14.4-38.7
				c0-11.5-3.8-22.7-11.3-33.2l27.6,1c19.8,0.7,35.4,17.4,34.7,37.3C-900.8,859.6-916.5,874.9-936,874.9z"/>
		</g>
	</g>
	<g>
		<path d="M-703.9,801.8c-3.4-6.6-9.1-11.5-16.1-13.7l-71.2-23c-2.7-0.9-5.5-1.3-8.4-1.3c-12.4,0-23.4,8.2-27.4,20.5l-75.8,234.8
			c-2.4,7.4-1.9,15.3,1.5,22.1c3.4,6.9,9.1,12,16.3,14.3l71.2,23c2.7,0.9,5.5,1.3,8.4,1.3c12.4,0,23.4-8.2,27.4-20.5l75.8-234.8
			C-699.7,816.9-700.3,808.8-703.9,801.8z M-792.4,788.7c8.4,0,15.2,6.8,15.2,15.2c0,8.4-6.8,15.2-15.2,15.2
			c-8.4,0-15.2-6.8-15.2-15.2C-807.7,795.6-800.8,788.7-792.4,788.7z M-807.1,832.8c8.4,0,15.2,6.8,15.2,15.2
			c0,8.4-6.8,15.2-15.2,15.2c-8.4,0-15.2-6.8-15.2-15.2C-822.3,839.6-815.5,832.8-807.1,832.8z M-821.8,876.9
			c8.4,0,15.2,6.8,15.2,15.2s-6.8,15.2-15.2,15.2c-8.4,0-15.2-6.8-15.2-15.2C-837,883.7-830.2,876.9-821.8,876.9z M-836.5,921
			c8.4,0,15.2,6.8,15.2,15.2c0,8.4-6.8,15.2-15.2,15.2c-8.4,0-15.2-6.8-15.2-15.2C-851.7,927.8-844.9,921-836.5,921z M-865.9,1039.6
			c-8.4,0-15.2-6.8-15.2-15.2c0-8.4,6.8-15.2,15.2-15.2s15.2,6.8,15.2,15.2C-850.7,1032.8-857.5,1039.6-865.9,1039.6z M-851.2,995.5
			c-8.4,0-15.2-6.8-15.2-15.2c0-8.4,6.8-15.2,15.2-15.2c8.4,0,15.2,6.8,15.2,15.2C-836,988.7-842.9,995.5-851.2,995.5z
			 M-813.1,1055.5c-8.4,0-15.2-6.8-15.2-15.2c0-8.4,6.8-15.2,15.2-15.2s15.2,6.8,15.2,15.2C-797.9,1048.7-804.8,1055.5-813.1,1055.5
			z M-798.4,1011.4c-8.4,0-15.2-6.8-15.2-15.2s6.8-15.2,15.2-15.2c8.4,0,15.2,6.8,15.2,15.2S-790.1,1011.4-798.4,1011.4z
			 M-783.7,967.3c-8.4,0-15.2-6.8-15.2-15.2c0-8.4,6.8-15.2,15.2-15.2c8.4,0,15.2,6.8,15.2,15.2
			C-768.5,960.5-775.4,967.3-783.7,967.3z M-769,923.2c-8.4,0-15.2-6.8-15.2-15.2c0-8.4,6.8-15.2,15.2-15.2
			c8.4,0,15.2,6.8,15.2,15.2C-753.8,916.4-760.6,923.2-769,923.2z M-754.3,879.1c-8.4,0-15.2-6.8-15.2-15.2s6.8-15.2,15.2-15.2
			c8.4,0,15.2,6.8,15.2,15.2S-746,879.1-754.3,879.1z M-739.6,835c-8.4,0-15.2-6.8-15.2-15.2c0-8.4,6.8-15.2,15.2-15.2
			c8.4,0,15.2,6.8,15.2,15.2C-724.4,828.1-731.3,835-739.6,835z"/>
	</g>
</g>
<path d="M-150.2,710.7c-9.7,0-17.7,6.6-22.5,14.9L-214,797l0.1-27.9c0.1-6.4-5-11.7-11.4-11.8c-0.1,0-0.2,0-0.3,0
	c-6.4,0.1-11.5,5.3-11.4,11.7l-0.4,69.6c0,4.3,2.4,8.4,6.2,10.4c3.6,2.6,8.4,3,12.3,0.9l61.7-32.3c5.7-2.9,8-9.8,5.1-15.5
	c-2-4-6.2-6.5-10.7-6.4c-1.8,0.1-3.6,0.5-5.2,1.4l-27.7,14.5l42.9-74.5c1.3-2.3,2.2-3.1,2.5-3.2c0.3,0.2,1.1,0.9,2.5,3.2l58,100.7
	c2.7,5.8,9.5,8.3,15.4,5.7c5.8-2.7,8.3-9.5,5.7-15.4c-0.3-0.6-0.7-1.3-1.1-1.8l-58-100.7C-132.6,717.3-140.5,710.7-150.2,710.7z
	 M-147,828.8c-2.9,0-5.3,2.4-5.3,5.3v12.6c-10.5,0.9-20.7,4.4-27.2,10.9c-6.3,6.3-9.5,14.5-9.5,24.4c0,7.6,1.6,13.8,4.8,18.7
	c3.2,4.8,7.4,8.5,12.6,11.1c5.2,2.6,11.6,5,19.3,7.1v40.4c-0.1,0-0.1-0.1-0.1-0.1c-3.9-1.1-6.7-2.7-9.1-4.8c-2.3-2.1-4-4.4-5.2-6.9
	c-1.2-2.5-2.6-6.2-4.1-10.9c-0.7-2.2-1.8-3.8-3.6-5.1c-1.8-1.2-4-1.9-6.6-1.9c-3.2,0-5.9,1.2-8,3.4c-2.2,2.2-3.2,4.8-3.2,7.5
	c0,3.7,0.7,7.5,2.3,11.4c1.6,3.9,4.1,7.7,7.5,11.3c3.4,3.6,7.5,6.5,12.6,8.9c5.2,2.4,11.3,4,17.6,4.5v12.6c0,2.9,2.4,5.3,5.3,5.3
	c2.9,0,5.2-2.4,5.2-5.3v-12.6c7.7-0.7,15.4-2.7,21.9-6.3c6-3.6,10.5-8.4,13.6-14.1c3.1-5.7,4.5-11.8,4.5-18.4c0-5.2-0.9-10-2.9-14.4
	c-1.9-4.4-4.7-8.2-8.3-11.4c-3.3-3-7-5.4-11.3-7c-4.2-1.6-10-3.4-17.1-5.3l-0.5-0.3v-35.8c0.2,0,0.4,0,0.5,0
	c7.3,2.4,11.8,7.2,13.7,14.4c1.7,6.1,5.4,9.2,11,9.2c3,0,5.5-1.1,7.6-3.2c2.1-2.1,3.1-4.5,3.1-7.4c0-2.6-0.7-5.4-2.1-8.6
	c-1.4-3.1-3.5-6.1-6.1-9.1c-3.3-3.9-7.1-6.8-11.5-8.7c-4.7-2-10.4-3.2-16.3-3.6v-12.6C-141.8,831.2-144,828.8-147,828.8z
	 M-152.3,863.4v33c-5.1-1.9-9-4-11.5-6.3c-2.5-2.3-3.8-5.8-3.8-10.4c0-4.8,1.3-8.3,4-10.6C-160.9,866.7-156.3,863.8-152.3,863.4z
	 M-46.4,875.8c-2.3,0-4.7,0.6-6.6,1.9c-4.1,1.9-6.7,6-6.7,10.5l-1.2,69.4c-0.7,6.4,4,12,10.3,12.7c6.4,0.7,12-4,12.7-10.3
	c0.1-0.6,0.1-1.2,0-1.9l0.5-30.3l47.6,82.4c3.2,5.6,3,6.8,3.1,6.6c-0.7,1.6-1.1,2.5-3.4,2.5h-130.3c-6.4,0-11.6,5.2-11.6,11.6
	c0,6.4,5.2,11.6,11.6,11.6l0,0H9.9c12.1,0,21.2-8.3,24.7-16.7c4.3-10.2-0.2-19.9-4.4-27.2l-47.2-81.5l25.7,14.1
	c5.4,3.5,12.5,2,16-3.4c3.5-5.4,2-12.5-3.4-16c-0.5-0.3-1-0.6-1.5-0.8L-41,877.4C-42.6,876.4-44.5,875.9-46.4,875.8z M-258.3,885
	c-3.8,0.3-7.2,2.5-9.1,5.8l-66,112.3c-6.4,11-2.9,23.1,2.5,30.1c6.7,8.8,17.2,9.8,25.7,9.8h95.2l-26,15.7c-5.5,3.3-7.3,10.4-4,15.9
	c2,3.3,5.5,5.5,9.4,5.7c2.3,0.1,4.6-0.5,6.6-1.7l59.6-35.9c3.8-2.2,6-6.3,5.8-10.6c0-0.4,0-0.8,0-1.2c0.2-4.3-2.1-8.4-5.8-10.5
	l-59.6-35.9c-2-1.3-4.3-1.9-6.6-1.8c-6.4,0.2-11.4,5.6-11.2,12c0.1,4,2.4,7.7,5.9,9.7l25.8,15.5h-95c-6.4,0-7.4-0.8-7.3-0.6
	c-1.2-1.6-1.7-2.9-0.9-4.3l66-112.5c3.3-5.5,1.5-12.6-4-15.9c-1.7-1-3.7-1.6-5.7-1.6C-257.5,885-257.9,885-258.3,885z M-141.8,921.9
	l0.5,0.1c6,1.9,10.5,4.3,13.6,7c3.1,2.7,4.7,6.5,4.7,11.5c0,4.7-1.6,8.8-4.8,12.3c-3.2,3.5-7.7,5.8-13.5,7c-0.2,0-0.4,0-0.5,0V921.9
	z"/>
<g>
	<path d="M-873.9,1753.4h-280.7c-5.5,0-10-4.5-10-10c0-5.5,4.5-10,10-10h272.7l67.9-293.6c0.7-3,2.7-5.5,5.4-6.8
		c2.7-1.3,5.9-1.3,8.7,0l82.9,39.6c5,2.4,7.1,8.4,4.7,13.4c-2.4,5-8.4,7.1-13.4,4.7l-71.6-34.2l-66.9,289.2
		C-865.2,1750.2-869.2,1753.4-873.9,1753.4z"/>
	<path d="M-921.3,1702.2h-211.4c-4.8,0-8.9-3.3-9.8-8l-50.2-243.1c-0.6-3,0.1-6,2-8.4c1.9-2.3,4.8-3.7,7.8-3.7h311.7
		c3,0,5.9,1.4,7.8,3.7c1.9,2.3,2.7,5.4,2,8.4l-50.1,243.1C-912.5,1698.8-916.6,1702.2-921.3,1702.2z M-1124.5,1682.1h195l46-223
		h-287L-1124.5,1682.1z"/>
	<path d="M-1087.7,1845.7c-21.1,0-38.3-17.2-38.3-38.3c0-21.1,17.2-38.3,38.3-38.3c21.1,0,38.3,17.2,38.3,38.3
		C-1049.4,1828.5-1066.6,1845.7-1087.7,1845.7z M-1087.7,1789.2c-10.1,0-18.2,8.2-18.2,18.2c0,10.1,8.2,18.2,18.2,18.2
		c10.1,0,18.2-8.2,18.2-18.2C-1069.5,1797.4-1077.7,1789.2-1087.7,1789.2z"/>
	<path d="M-938,1845.7c-21.1,0-38.3-17.2-38.3-38.3s17.2-38.3,38.3-38.3c21.1,0,38.3,17.2,38.3,38.3
		C-899.7,1828.5-916.9,1845.7-938,1845.7z M-938,1789.2c-10,0-18.2,8.2-18.2,18.2c0,10.1,8.2,18.2,18.2,18.2
		c10.1,0,18.2-8.2,18.2-18.2C-919.8,1797.4-927.9,1789.2-938,1789.2z"/>
	<g>
		<path d="M-960.7,1580.6h-132.7c-5.5,0-10-4.5-10-10s4.5-10,10-10h132.7c5.5,0,10,4.5,10,10S-955.2,1580.6-960.7,1580.6z"/>
		<path d="M-1027,1646.9c-5.5,0-10-4.5-10-10v-132.7c0-5.5,4.5-10,10-10c5.5,0,10,4.5,10,10v132.7
			C-1017,1642.4-1021.5,1646.9-1027,1646.9z"/>
	</g>
</g>
<g>
	<path d="M24.7,1524.9c16.1,16.3,27.6,37.1,32.4,60.4c14.6,1.2,26.1,13.4,26.1,28.3c0,15.7-12.7,28.4-28.4,28.4
		s-28.4-12.7-28.4-28.4c0-13.3,9.1-24.4,21.4-27.5c-6.4-29.7-24.3-55.5-48.8-71.9c-0.2-0.1-0.5-0.2-0.7-0.2l-61.3,108.6l-58.1-108.5
		c-4.5,1.5-8.9,3.1-13.3,4.9c-23.7,19.1-37.1,49.1-38.2,85.9c24.1,2.1,43.2,31.9,43.2,68.5l-8.9,7.6c0.8,1.2,1.2,2.5,1.2,4
		c0,4.1-3.3,7.4-7.4,7.4c-4.1,0-7.4-3.3-7.4-7.4s3.3-7.4,7.4-7.4c1.4,0,2.8,0.4,3.9,1.1l7.7-5.3c0-35-19-63.3-42.3-63.3
		s-42.3,28.3-42.3,63.3l7,4.9c0.9-0.4,2-0.7,3.1-0.7c4.1,0,7.4,3.3,7.4,7.4s-3.3,7.4-7.4,7.4c-4.1,0-7.4-3.3-7.4-7.4
		c0-1.8,0.7-3.5,1.8-4.8l-8-6.8c0-34.5,17-63,39.2-67.9c1.1-31.4,10.4-59.8,31-80.7c-57.4,28.8-94.5,85.6-101.1,152.4
		c38,58.7,109.3,82.3,190.9,82.3c81.7,0,153-23.6,190.9-82.3C123,1610.4,82,1553.7,24.7,1524.9z M16.6,1681.5h-19v19h-16.2v-19h-19
		v-16.2h19v-19h16.2v19h19V1681.5z"/>
	<path d="M58.7,1595.4c-1.3-0.3-2.6-0.5-4-0.5c-1.9,0-3.7,0.4-5.4,0.9c-7.6,2.3-13.2,9.4-13.2,17.8c0,10.3,8.4,18.7,18.7,18.7
		s18.7-8.4,18.7-18.7C73.4,1604.7,67.1,1597.2,58.7,1595.4z"/>
	<path d="M-61.3,1329.4c-51,0-92.3,41.3-92.3,92.3c0,32.8,17.1,61.5,42.8,77.9c1.8,1.2,3.7,2.3,5.5,3.3c13.1,7.1,28,11.1,43.9,11.1
		c14.9,0,29-3.6,41.4-9.8c2.8-1.4,5.5-2.9,8.1-4.6c25.7-16.4,42.8-45.1,42.8-77.9C30.9,1370.7-10.4,1329.4-61.3,1329.4z"/>
</g>
<path d="M-707.5,2953.5c-41.7-19.3-72.2-52.9-88.4-92.7c-35.9-88.8,7-189.6,95.4-225.5c88.8-35.9,190,7,225.9,95.4
	c34.8,86.1-4.6,184.6-89.2,222.8c-13.9,6.2-23.2-14.7-9.7-21.2c73.4-33.2,107.3-118.5,77.2-193.1c-30.9-76.5-118.5-113.5-195.4-82.6
	c-76.8,31.3-113.9,118.9-82.6,195.8c13.9,34.8,40.9,64.1,77.6,80.7l3.5-18.5c0.4-1.9,3.1-2.7,4.2-0.8l28.6,49.4l-57.1,7
	c-1.9,0.4-3.5-2.3-1.9-3.9L-707.5,2953.5z"/>
<line fill="none" stroke="#B3B3B3" stroke-width="14" stroke-miterlimit="10" x1="-1105.3" y1="2235.9" x2="2044.1" y2="2265.9"/>
<g>
	<path d="M683.2,1467.6c0-7.3-5.9-13.2-13.2-13.2c-7.3,0-13.2,5.9-13.2,13.2v95.1c0,7.3,5.9,13.2,13.2,13.2
		c7.3,0,13.2-5.9,13.2-13.2V1467.6z"/>
	<path d="M673.2,1382v-24.6c0-1.7-1.4-3.1-3.1-3.1c-1.7,0-3.1,1.4-3.1,3.1v24.5c-23.5,1.6-42.1,21.2-42.1,45.1
		c0,18.8,11.5,35,27.9,41.8v-1.2c0-9.6,7.8-17.3,17.3-17.3c9.6,0,17.3,7.8,17.3,17.3v1.2c16.4-6.8,27.9-22.9,27.9-41.8
		C715.2,1403.1,696.7,1383.6,673.2,1382z M670,1421.9c-5.9,0-10.7-4.8-10.7-10.7c0-4.8,3.2-8.9,7.6-10.2v4.4c0,1.7,1.4,3.1,3.1,3.1
		c1.7,0,3.1-1.4,3.1-3.1v-4.4c4.4,1.3,7.6,5.4,7.6,10.2C680.8,1417.1,676,1421.9,670,1421.9z"/>
	<path d="M818,1559.7h-60.5c-13,0-23.9,14.5-27.2,34.3l7.6,1.3l-76.4-2.4c-6.5,0.2-12.4,2.9-16.7,7.1c-2.2,2.3-4,4.9-5.4,7.7
		c-1.5,3.3-2.4,7.1-2.3,11c0.3,13.6,11.6,24.6,25.2,24.6l0.8,0l0.2,0l62.4,4.4l32.3-1.7l-28.2,4.3l-66.9,3.9l-0.6,0
		c-19.4,0-35.6-15.8-36.1-35.2c-0.1-5,0.8-9.8,2.6-14.2l-57.9-21.7c-15.8-5.9-32.1-1.7-36.2,9.3c-0.8,2.1-1.1,4.3-0.9,6.5l-3.5-1.1
		c-16.3-4.5-32.3,2-35.8,14.6c-3.4,12.4,6.7,26,22.6,30.7c-0.5,1-0.9,1.9-1.2,3c-3.4,12.1,7.1,25.6,23.4,30.1l62.6,19
		c15.7,14.3,42.5,23.5,80.2,23.5c39.9,0,75.6-11.4,97.2-28H818c15.6,0,28.3-21,28.3-46.8v-37.3
		C846.3,1580.6,833.7,1559.7,818,1559.7z"/>
</g>
<g>
	<path d="M1103.9,1468.9h40.5c0.4,0,0.7-0.1,1.1-0.1l47.6,57.6c7.2,7.8,19.1,8.6,27.4,2.4v16.4c-16.5,1.1-29.6,14.9-29.6,31.7
		c0,13.2,8.1,24.6,19.6,29.4v-0.9c0-6.7,5.5-12.2,12.2-12.2c6.7,0,12.2,5.5,12.2,12.2v0.9c11.5-4.8,19.6-16.1,19.6-29.4
		c0-16.8-13.1-30.6-29.6-31.7v-16.8c3,2.9,6.9,4.6,11.1,4.6c9.8,0,17.7-9.2,17.7-20.5V1448l25.8,19.9c9.2,6.6,21.5,5.2,27.6-3.2
		c6.1-8.4,3.6-20.6-5.6-27.2l-25-19.2h39.1c11.3,0,20.5-7.7,20.5-17.2s-9.2-17.2-20.5-17.2h-79.7c-10.8-6.8-26.5-10.9-47.3-10.9
		c-17.1,0-33.1,3.2-46.2,8.3h-38.5c-10.5,0-18.9,14-18.9,31.3v25C1085,1454.9,1093.5,1468.9,1103.9,1468.9z M1222.6,1563.8
		c1.2,0,2.2-1,2.2-2.2v-3.1c3.1,0.9,5.4,3.8,5.4,7.2c0,4.2-3.4,7.5-7.6,7.5c-4.2,0-7.6-3.4-7.6-7.5c0-3.4,2.3-6.2,5.4-7.2v3.1
		C1220.4,1562.9,1221.4,1563.8,1222.6,1563.8z M1201.6,1435.4c8.4,0,16.6,8,16.6,16.4v40.8l-31.4-38.1c-0.1-1-0.2-2.3-0.4-3.9
		C1185.4,1442.3,1193.2,1435.4,1201.6,1435.4z"/>
	<path d="M1317.4,1654.6h-43.7c-9.4,0-17.3,10.5-19.7,24.8l5.5,1l-31-1c2-1.7,3.3-4.2,3.3-7.1v-66.9c0-5.1-4.2-9.3-9.3-9.3
		c-5.1,0-9.3,4.2-9.3,9.3v66.9c0,2.6,1.1,5,2.8,6.7l-11.8-0.4c-4.7,0.1-8.9,2.1-12.1,5.1c-1.6,1.6-2.9,3.5-3.9,5.6
		c-1.1,2.4-1.7,5.1-1.6,7.9c0.2,9.8,8.4,17.8,18.2,17.8l0.6,0l0.1,0l45.1,3.2l23.3-1.3l-20.3,3.1l-48.3,2.8l-0.5,0
		c-14,0-25.7-11.4-26-25.4c-0.1-3.6,0.6-7.1,1.8-10.2l-41.8-15.7c-11.4-4.3-23.1-1.3-26.1,6.7c-0.6,1.5-0.8,3.1-0.7,4.7l-2.5-0.8
		c-11.8-3.3-23.3,1.4-25.9,10.5c-2.5,8.9,4.8,18.8,16.4,22.2c-0.3,0.7-0.6,1.4-0.9,2.2c-2.4,8.8,5.2,18.5,16.9,21.8l45.2,13.7
		c11.4,10.3,30.7,17,57.9,17c28.8,0,54.6-8.3,70.2-20.2h28c11.3,0,20.4-15.1,20.4-33.8v-27
		C1337.8,1669.8,1328.7,1654.6,1317.4,1654.6z"/>
</g>
<g>
	<path d="M-89.4,2741.2l-34.3,127.9c-2.8,10.6,3.5,21.6,14.1,24.4l65.7,17.6L-89.4,2741.2z"/>
	<path d="M-51.6,2779.5l37.8,141.2c2.9,10.6,13.8,17,24.4,14.1l73.4-19.7L-51.6,2779.5z"/>
	<path d="M61.7,2746.8c-1.2-2-2.6-3.9-4.3-5.6l-5.7-5.5c-1.7-1.7-3.7-3-5.8-4.1c-2.1-1.1-4.2-1.7-6.4-1.9c-2.2-0.2-4.4,0.1-6.6,0.9
		c-2.2,0.8-4.3,2.2-6.2,4.2c-2,2-3.3,4.2-4,6.4c-0.7,2.2-0.9,4.4-0.6,6.6c0.3,2.2,1,4.3,2.2,6.3c1.1,2.1,2.6,3.9,4.3,5.6l5.7,5.5
		c1.7,1.7,3.6,3,5.7,4.1c2.1,1,4.2,1.7,6.4,1.9c2.2,0.2,4.4-0.1,6.6-0.9c2.2-0.8,4.3-2.2,6.3-4.3c1.9-2,3.2-4.1,3.9-6.3
		c0.7-2.2,0.9-4.4,0.6-6.5C63.6,2750.9,62.9,2748.8,61.7,2746.8z"/>
	<path d="M244.9,2756.2L83.4,2594.7l-114.5,0c-14.7,0-26.6,11.9-26.6,26.6l0,114.5l161.5,161.5c7.8,7.8,20.4,7.8,28.2,0l112.9-112.9
		C252.7,2776.6,252.7,2764,244.9,2756.2z M1.8,2654.2c-7.8,7.8-20.4,7.8-28.2,0c-7.8-7.8-7.8-20.4,0-28.2c7.8-7.8,20.4-7.8,28.2,0
		C9.6,2633.8,9.6,2646.4,1.8,2654.2z M75.4,2763.6c-1.4,3.9-3.8,7.5-7.1,11c-3.4,3.5-7,6-10.8,7.6c-3.9,1.6-7.7,2.4-11.6,2.4
		s-7.7-0.8-11.4-2.4c-3.7-1.6-7.1-3.9-10.1-6.8l-5.7-5.5c-3.1-3-5.5-6.3-7.2-9.9c-1.7-3.6-2.7-7.4-2.9-11.3
		c-0.2-3.9,0.4-7.8,1.9-11.7c1.5-3.9,3.9-7.6,7.2-11c3.4-3.5,7-6,10.8-7.6c3.9-1.6,7.7-2.4,11.6-2.3s7.6,0.9,11.3,2.5
		c3.7,1.6,7.1,3.9,10.2,6.9l5.7,5.5c3,2.9,5.4,6.2,7.2,9.8c1.8,3.6,2.7,7.3,2.9,11.2C77.5,2755.8,76.9,2759.7,75.4,2763.6z
		 M110.3,2824.1l-33.8-134.9l12.5-3.1l33.8,134.9L110.3,2824.1z M187.7,2769.7c-1.4,3.9-3.8,7.5-7.1,11c-3.4,3.5-7,6-10.8,7.6
		c-3.9,1.6-7.7,2.4-11.6,2.4c-3.9,0-7.7-0.8-11.4-2.4c-3.7-1.6-7.1-3.9-10.2-6.9l-5.8-5.6c-3-2.9-5.4-6.2-7.2-9.9
		c-1.8-3.7-2.7-7.4-2.9-11.3c-0.2-3.9,0.5-7.7,2-11.7c1.5-3.9,3.9-7.6,7.2-11c3.4-3.5,7-6,10.8-7.6c3.9-1.6,7.7-2.4,11.6-2.4
		c3.9,0,7.7,0.9,11.4,2.5c3.7,1.6,7.1,3.9,10.1,6.8l5.8,5.6c3.1,3,5.5,6.3,7.2,9.9c1.7,3.6,2.7,7.4,2.8,11.2
		C189.8,2762,189.1,2765.8,187.7,2769.7z"/>
	<path d="M173.9,2752.9c-1.2-2-2.6-3.9-4.4-5.6l-5.8-5.6c-1.7-1.7-3.7-3-5.8-4.1c-2.1-1.1-4.2-1.7-6.4-1.9c-2.2-0.2-4.3,0.1-6.5,0.9
		c-2.2,0.8-4.3,2.2-6.2,4.2c-1.9,2-3.2,4.1-3.9,6.3c-0.7,2.2-0.9,4.4-0.6,6.6c0.3,2.2,1,4.3,2.1,6.3c1.1,2.1,2.6,3.9,4.3,5.6
		l5.8,5.6c1.7,1.7,3.7,3,5.8,4.1c2.1,1.1,4.3,1.7,6.5,1.9c2.2,0.2,4.4-0.1,6.6-0.9c2.2-0.8,4.3-2.2,6.3-4.3c1.9-2,3.2-4.1,3.9-6.3
		c0.7-2.2,0.9-4.4,0.6-6.6C175.8,2757,175,2754.9,173.9,2752.9z"/>
</g>
<g>
	<g>
		<path d="M836.5,2729.7c-7.3-15.3-14.7-30.5-21.9-45.8c-3.8-8-7.4-16.1-11-24.1c-2.3-5.2-6.4-6.5-10.9-3.4
			c-9.3,6.4-37.5,25.7-53.4,25.8c-8.5,0.1-16.8-1.1-24.9-3.3c-5.3-1.4-10.5-3.2-15.7-5.3c-7.9-3.2-15.8-6.5-23-6.8
			c-5.5,0-8.9,0.4-12.1,3.1l-0.7,0.6l-6.5,5.9c0,0,0,0,0,0l-24.9,22.8c-0.5,0.4-0.9,0.9-1.4,1.4c-0.5,0.4-1.1,0.8-1.6,1.3
			l-24.9,22.8c-0.4,0.4-0.9,0.8-1.2,1.2c-0.3,0.2-0.5,0.5-0.7,0.8c-0.7,0.9-1.3,2-1.5,3.1c-1.5,7.5,6.5,18.3,14.1,19.7
			c9.8,1.8,18.9,0,26.9-5.8c4.9-3.6,10.2-7.6,15.7-11.7c1.5-1.2,3-2.3,4.5-3.4c0.1-0.1,0.2-0.2,0.3-0.2c1.4-1.1,2.9-2.2,4.3-3.3
			c0,0,0,0,0,0c4.2-2.7,9.2-4.1,14.3-4.1c2.4,0,4.8,0.3,7.1,0.9c3.7,1,7.1,2.8,10.1,5.2c0.1,0,0.2,0.1,0.3,0.2
			c0.5,0.4,1,0.9,1.5,1.3c0.1,0.1,0.2,0.2,0.4,0.4c1.2,1,2.3,2,3.4,3.1c3.2,3.1,6.3,6.2,9.3,9.6l11.2,11.2c0.5,0.5,0.9,1,1.4,1.5
			c0.5,0.4,1,0.8,1.5,1.3l23.9,23.8c0,0,0,0,0,0l10.4,10.4c3.1,1.6,6.2,1.1,9.6-1.6c5.1-4.2,12.9-10.4,18.1-14.5
			c7.7-6.1,38-27.8,45.9-33.7C837.6,2737.3,838.6,2734,836.5,2729.7z"/>
		<path d="M566,2767.5c-5.3-5.3-13.9-5.3-19.3,0l-23.9,23.9c-5.3,5.3-5.3,13.9,0,19.3c5.3,5.3,14,5.3,19.3,0l23.9-23.9
			C571.3,2781.4,571.3,2772.8,566,2767.5z"/>
		<path d="M594.4,2789c-5.3-5.3-13.9-5.3-19.3,0l-23.9,23.9c-5.3,5.3-5.3,13.9,0,19.3c5.3,5.3,13.9,5.3,19.3,0l23.9-23.9
			C599.7,2802.9,599.7,2794.3,594.4,2789z"/>
		<path d="M624.1,2806.6c-5.3-5.3-13.9-5.3-19.3,0l-23.9,23.9c-5.3,5.3-5.3,13.9,0,19.3c5.3,5.3,13.9,5.3,19.3,0l23.9-23.9
			C629.4,2820.5,629.4,2811.9,624.1,2806.6z"/>
		<path d="M654.7,2844.7c2.9-4.1,3.2-9.3,1.1-13.7c-0.6-1.3-1.5-2.6-2.6-3.7c-1.1-1.1-2.3-2-3.7-2.6c-4.1-2-9.1-1.8-13,0.6
			c-0.9,0.5-1.8,1.2-2.6,2l-23.9,23.9c-5.3,5.3-5.3,13.9,0,19.3s13.9,5.3,19.3,0l23.9-23.9C653.7,2846,654.2,2845.4,654.7,2844.7z"
			/>
		<path d="M724.1,2765.7c-0.3-0.3-0.6-0.6-0.9-0.9l-5-5l-0.9-0.9l-7.7-7.8l-4.5-4.4l-6.6-6.6l-0.4-0.4l-1.9-1.9l-2.7-2.7
			c-1.2-1.2-2.4-2.2-3.8-2.9c-1.6-1-3.5-1.7-5.4-2.1c-1.3-0.4-2.6-0.5-4-0.5c-3.4,0-6.6,0.9-9.4,2.6c-0.7,0.4-1.3,0.7-1.9,1.2
			c-0.7,0.5-1.3,1.1-1.9,1.7c-0.1,0.1-0.2,0.2-0.3,0.3c-1.7,1.5-3.4,2.9-5.2,4.3c-1.7,1.4-3.5,2.7-5.2,4c-1,0.8-2.1,1.5-3.1,2.3v0
			c-4.9,3.5-10.1,6.6-15.5,9.3c-17.7,8.6-35.5,4.6-45.8-13.5c-0.4-0.7-0.8-1.4-1-2.2c-0.4-1-0.6-1.9-0.8-3c-0.9-5.6,1-11.8,5.1-15.7
			c11.3-10.6,22.6-21.3,33.8-32c4.2-3.9,8.5-7.9,12.7-12c1.1-1,2.2-2,3.3-3.1c-3.2-2.7-6.9-3.3-10.5-3.5c-0.4,0-0.8-0.1-1.2-0.1
			c-13.9-0.6-27.2,2.4-40.5,5.8c-0.6,0.1-1.1,0.3-1.7,0.4c-0.3,0.1-0.6,0.2-0.9,0.3c-1.7,0.6-3.4,1.2-5.1,1.6
			c-0.6,0.2-1.2,0.4-1.8,0.5c-3.7,1.1-7.4,2.2-11.2,2.7c-5.5,0.8-10.6,0.8-13.8,0.6c-6.3-0.5-14.5-3.1-22.7-7.2
			c-12.5-6.2-25.1-14.8-30.7-18.7c-2.2-1.5-4.2-1.9-6.1-1.5c-2,0.5-3.7,2.2-4.9,4.9c-3.6,8.1-7.3,16.2-11,24.2
			c-7.3,15.3-14.7,30.5-21.9,45.8c-2,4.3-1.1,7.6,2.5,10.4c7.8,6,38.2,27.6,45.9,33.7c1.2,0.9,2.4,1.9,3.8,3
			c0.2,0.1,0.4,0.3,0.5,0.4c2.5,1.8,4.6,3.4,6.4,4.8l20.5-20.5c4.2-4.2,9.7-6.5,15.6-6.5c4.4,0,8.5,1.3,12.1,3.6
			c1.2,0.8,2.4,1.8,3.5,2.8c0.5,0.5,1,1,1.4,1.5c0.3,0.4,0.6,0.7,0.8,1.1c0.3,0.4,0.6,0.8,0.8,1.2c0.3,0.5,0.6,1,0.8,1.5
			c0,0.1,0.2,0.3,0.2,0.4c0.2,0.4,0.4,0.8,0.5,1.2c0.2,0.3,0.3,0.7,0.4,1.1c0.1,0.4,0.2,0.7,0.3,1c0.2,0.6,0.4,1.1,0.4,1.7
			c0.1,0.5,0.2,0.9,0.3,1.4c0.1,0.6,0.2,1.2,0.2,1.9c0.1,0.7,0.1,1.5,0.1,2.2c0.1,0,0.2-0.1,0.3-0.1c0.6-0.2,1.1-0.3,1.7-0.4
			c0.5-0.1,1-0.2,1.6-0.2c0.4-0.1,0.7-0.1,1.1-0.1c0.6,0,1.1-0.1,1.7-0.1c0.7,0,1.4,0,2,0.1c0.2,0,0.4,0,0.5,0
			c1.3,0.2,2.6,0.4,3.8,0.8c1.7,0.5,3.4,1.2,5,2.2c0,0,0.1,0,0.1,0.1c0.4,0.2,0.8,0.5,1.1,0.7c0.4,0.2,0.7,0.5,1.1,0.8
			c0.3,0.2,0.6,0.4,0.8,0.7c0.4,0.3,0.8,0.7,1.1,1c0.5,0.5,0.9,1,1.3,1.5c0.2,0.2,0.3,0.4,0.5,0.7c0.4,0.4,0.7,0.9,1,1.3
			c0.4,0.5,0.7,1.1,1,1.7c0.7,1.3,1.3,2.6,1.7,4c0.2,0.6,0.4,1.1,0.4,1.7c0.1,0.6,0.3,1.2,0.3,1.7c2.5-1,5.1-1.5,7.8-1.5
			c5.9,0,11.5,2.3,15.6,6.5c2.6,2.6,4.4,5.7,5.4,9c0.5,1.5,0.8,3,0.9,4.6c0,0.6,0.1,1.2,0.1,1.8c0.9-0.3,1.9-0.6,2.8-0.7
			c0.6-0.1,1.1-0.2,1.7-0.3h0.4c0.7-0.1,1.3-0.1,2-0.1c0.4,0,0.9,0,1.3,0c5.4,0.3,10.4,2.6,14.3,6.5c4.3,4.3,6.5,10,6.5,15.6
			c0,0.7,0,1.4-0.1,2c0,0,0,0.1,0,0.1c0,0.5-0.1,1-0.2,1.4c0,0.1,0,0.1,0,0.2c-0.1,0.9-0.3,1.7-0.6,2.5c-0.1,0.5-0.3,1.1-0.5,1.6
			c0,0,0,0,0,0.1c-0.1,0.2-0.2,0.5-0.3,0.8c-0.1,0.3-0.3,0.7-0.4,1c-0.1,0.2-0.3,0.5-0.4,0.8c-0.5,1-1.2,1.9-1.9,2.9
			c-0.1,0.1-0.2,0.3-0.4,0.4c-0.2,0.2-0.4,0.4-0.5,0.6c-0.3,0.4-0.7,0.8-1.1,1.2l-19.5,19.5c2.7,1.5,5.8,2.3,9,2.3
			c4.3,0,8.5-1.5,11.8-4.2c0.1,0,0.1-0.1,0.2-0.2c0.4-0.3,0.8-0.7,1.2-1.1c1.9-1.9,3.3-4.1,4.2-6.5c0.8-2,1.2-4.1,1.2-6.2
			c2.8,1.6,5.9,2.4,9.2,2.4c5,0,9.7-1.9,13.2-5.5c4.4-4.4,6.2-10.6,5.1-16.4c3.4,2.9,7.6,4.4,12.1,4.4c5,0,9.6-1.9,13.2-5.5
			c4.7-4.6,6.3-11.1,5.1-17c2.9,1.8,6.2,2.7,9.6,2.7c5,0,9.7-2,13.2-5.5c7.3-7.3,7.3-19.1,0-26.4L724.1,2765.7z"/>
	</g>
</g>
<path d="M1165.9,2578.4v50.6h-33.8v-50.6c0-9.5,7.4-16.9,16.9-16.9S1165.9,2569,1165.9,2578.4z"/>
<path d="M1165.9,2696.6v185.6c0,9.5-7.4,16.9-16.9,16.9s-16.9-7.4-16.9-16.9v-185.6H1165.9z"/>
<path d="M1300.9,2578.4v185.6h-33.8v-185.6c0-9.5,7.4-16.9,16.9-16.9C1293.5,2561.6,1300.9,2569,1300.9,2578.4z"/>
<path d="M1267.2,2831.6h33.8v50.6c0,9.5-7.4,16.9-16.9,16.9c-9.5,0-16.9-7.4-16.9-16.9V2831.6z"/>
<path d="M1250.3,2645.9v33.8h-185.6c-9.5,0-16.9-7.4-16.9-16.9c0-9.5,7.4-16.9,16.9-16.9H1250.3z"/>
<path d="M1385.3,2662.8c0,9.5-7.4,16.9-16.9,16.9h-50.6v-33.8h50.6C1377.6,2645.9,1385.3,2653.4,1385.3,2662.8z"/>
<path d="M1064.7,2780.9h50.6v33.8h-50.6c-9.5,0-16.9-7.4-16.9-16.9C1047.8,2788.4,1055.2,2780.9,1064.7,2780.9z"/>
<path d="M1385.3,2797.8c0,9.5-7.4,16.9-16.9,16.9h-185.6v-33.8h185.6C1377.6,2780.9,1385.3,2788.4,1385.3,2797.8z"/>
<g>
	<path d="M1658.7,2914.7h-17c-1.9,0-3.2-1.3-3.2-3.2v-344.4c0-1.9,1.3-3.2,3.2-3.2h17c1.9,0,3.2,1.3,3.2,3.2v344.4
		C1662.4,2913.4,1660.6,2914.7,1658.7,2914.7z"/>
	<path d="M1694,2914.7h-5c-1.9,0-3.2-1.3-3.2-3.2v-344.4c0-1.9,1.3-3.2,3.2-3.2h5c1.9,0,3.2,1.3,3.2,3.2v344.4
		C1697.1,2913.4,1695.9,2914.7,1694,2914.7z"/>
	<path d="M1728.7,2914.7h-5c-1.9,0-3.2-1.3-3.2-3.2v-344.4c0-1.9,1.3-3.2,3.2-3.2h5c1.9,0,3.2,1.3,3.2,3.2v344.4
		C1732.5,2913.4,1730.6,2914.7,1728.7,2914.7z"/>
	<path d="M1781.7,2914.7h-24.6c-1.9,0-3.2-1.3-3.2-3.2v-344.4c0-1.9,1.3-3.2,3.2-3.2h24.6c1.9,0,3.2,1.3,3.2,3.2v344.4
		C1784.8,2913.4,1783.6,2914.7,1781.7,2914.7z"/>
	<path d="M1826.5,2615.1v-47.9c0-1.9-1.3-3.2-3.2-3.2h-5.7c-1.9,0-3.2,1.3-3.2,3.2v56.8c0,2.5,3.2,3.8,5,1.3s4.4-5.7,6.3-8.2
		C1825.8,2616.3,1826.5,2615.7,1826.5,2615.1z"/>
	<path d="M1814.5,2740.6v170.9c0,1.9,1.3,3.2,3.2,3.2h5.7c1.9,0,3.2-1.3,3.2-3.2v-157.1v-0.6c-1.3-1.3-6.9-8.2-10.1-13.9
		C1815.1,2739.9,1814.5,2739.9,1814.5,2740.6z"/>
	<path d="M1852.9,2593.6v-26.5c0-1.9-1.3-3.2-3.2-3.2h-5.7c-1.9,0-3.2,1.3-3.2,3.2v30.9c0,1.9,2.5,3.2,4.4,1.9
		c1.9-1.3,4.4-3.2,6.3-4.4C1852.3,2594.9,1852.9,2594.2,1852.9,2593.6z"/>
	<path d="M1841,2773.4v138.8c0,1.9,1.3,3.2,3.2,3.2h5.7c1.9,0,3.2-1.3,3.2-3.2v-135c0-0.6-0.6-1.9-1.3-2.5c-1.9-1.3-4.4-2.5-6.3-4.4
		C1843.5,2769.6,1841,2770.9,1841,2773.4z"/>
	<path d="M1901.5,2578.5v-11.4c0-1.9-1.3-3.2-3.2-3.2h-17c-1.9,0-3.2,1.3-3.2,3.2v14.5c0,1.9,1.9,3.2,3.2,2.5
		c5.7-1.3,12-1.9,18.3-2.5C1900.9,2581.6,1901.5,2580.4,1901.5,2578.5z"/>
	<path d="M1878.2,2789.1v122.4c0,1.9,1.3,3.2,3.2,3.2h17.7c1.9,0,3.2-1.3,3.2-3.2v-119.8c0-1.3-1.3-2.5-2.5-2.5
		c-6.3,0-12-1.3-18.3-2.5C1879.4,2786.6,1878.2,2787.9,1878.2,2789.1z"/>
	<path d="M1930.5,2581v-13.9c0-1.9-1.3-3.2-3.2-3.2h-5.7c-1.9,0-3.2,1.3-3.2,3.2v13.2c0,1.3,1.3,2.5,2.5,2.5
		c1.9,0.6,4.4,0.6,6.3,1.3C1928.6,2584.1,1930.5,2582.9,1930.5,2581z"/>
	<path d="M1918.5,2790.4v121.1c0,1.9,1.3,3.2,3.2,3.2h5.7c1.9,0,3.2-1.3,3.2-3.2v-122.4c0-1.9-1.9-3.2-3.2-2.5
		c-1.9,0.6-4.4,0.6-6.3,1.3C1919.2,2788.5,1918.5,2789.1,1918.5,2790.4z"/>
	<path d="M1955.1,2589.8v-22.7c0-1.9-1.3-3.2-3.2-3.2h-5.7c-1.9,0-3.2,1.3-3.2,3.2v20.2c0,1.3,0.6,1.9,1.9,2.5
		c1.9,0.6,4.4,1.9,6.3,3.2C1953.2,2593.6,1955.1,2592.3,1955.1,2589.8z"/>
	<path d="M1943.1,2783.5v128c0,1.9,1.3,3.2,3.2,3.2h5.7c1.9,0,3.2-1.3,3.2-3.2v-131.2c0-1.9-1.9-3.2-3.8-2.5
		c-1.9,1.3-4.4,1.9-6.3,3.2C1943.8,2781.6,1943.1,2782.2,1943.1,2783.5z"/>
	<path d="M1982.3,2610v-42.9c0-1.9-1.3-3.2-3.2-3.2h-5.7c-1.9,0-3.2,1.3-3.2,3.2v36.6c0,0.6,0.6,1.3,0.6,1.9
		c1.9,1.3,4.4,3.8,6.3,6.3C1979.1,2613.2,1982.3,2612.5,1982.3,2610z"/>
	<path d="M1981.6,2818.2c0,0-5.7-5.7-8.8-8.8c-0.6-0.6-1.9,0-1.9,0.6v101.6c0,1.9,1.3,3.2,3.2,3.2h5.7c1.9,0,3.2-1.3,3.2-3.2v-91.5
		C1982.3,2819.4,1981.6,2818.8,1981.6,2818.2z"/>
	<g>
		<path d="M2005.6,2707.8v31.5c0,1.3,0.6,1.9,1.9,1.9c6.9,1.9,13.9,5,18.9,10.7l11.4,11.4c1.3,1.3,3.8,0.6,3.8-1.3v-194.9
			c0-1.9-1.3-3.2-3.2-3.2h-29.6c-1.9,0-3.2,1.3-3.2,3.2v95.9C2008.7,2677.5,2008.7,2692.6,2005.6,2707.8z"/>
		<path d="M2010,2847.2c-1.9-1.9-4.4-0.6-4.4,1.9v63.1c0,1.9,1.3,3.2,3.2,3.2h29.6c1.9,0,3.2-1.3,3.2-3.2v-30.9
			c0-1.9-0.6-3.2-1.9-4.4C2032.7,2869.9,2010,2847.2,2010,2847.2z"/>
	</g>
	<path d="M1964.6,2624.5c-34.7-34.7-90.8-33.4-124.3,3.2c-29,31.5-29.6,81.4-1.3,114.2c30.3,34.7,81.4,39.1,116.7,12.6
		c1.3-1.3,3.2-1.3,4.4,0l17,17c0.6,0.6,1.3,1.9,0.6,3.2c-1.9,6.9,0,14.5,5.7,19.6l66.2,66.2c6.9,6.9,18.3,8.8,26.5,3.2
		c11.4-7.6,12.6-23.3,3.2-32.8l-65.6-65.6c-5.7-5.7-13.2-6.9-19.6-5.7c-1.3,0-2.5,0-3.2-0.6l-17-17c-1.3-1.3-1.3-3.2,0-4.4
		C1998,2703.4,1995.5,2655.4,1964.6,2624.5z M1856.1,2733c-26.5-26.5-26.5-69.4,0-95.9s69.4-26.5,95.9,0c26.5,26.5,26.5,69.4,0,95.9
		C1925.5,2759.5,1882.6,2759.5,1856.1,2733z"/>
</g>
<path d="M1952.3,3356.4v1.5c0,21-17.1,38.1-38.1,38.1s-38.1-17.1-38.1-38.1c0,21-17.1,38.1-38.1,38.1s-38.1-17.1-38.1-38.1
	c0,21-17.1,38.1-38.1,38.1s-38.1-17.1-38.1-38.1c0,21-17.1,38.1-38.1,38.1c-21,0-38.1-17.1-38.1-38.1c0,21-17.1,38.1-38.1,38.1
	s-38.1-17.1-38.1-38.1l-0.1-1.5l34.3-65.4h312.1L1952.3,3356.4z M1887.8,3402.9c8.2,5,17.6,7.7,27.9,7.7V3566c0,1.8-0.2,3.6-0.5,5.3
	v145.2c0,30.9-25,55.9-55.9,55.9h-195.1c-30.9,0-55.9-25-55.9-55.9v-146.1c0-0.8,0-1.7,0.1-2.5c0-0.6-0.1-1.3-0.1-1.9v-155.3
	c10.6,0,20.4-3,28.8-8.3v106.4c0,0.1,0,0.1,0,0.2v12.5v160.7c0,6,4.8,10.8,10.8,10.8h229c6,0,10.8-4.8,10.8-10.8V3510
	c0-0.4,0.1-0.9,0.1-1.3V3402.9L1887.8,3402.9z M1788.1,3731.5c0-14.6-11.8-26.4-26.4-26.4s-26.4,11.8-26.4,26.4s11.8,26.4,26.4,26.4
	C1776.3,3757.9,1788.1,3746.1,1788.1,3731.5z M1915.5,3274.9h-306.9v-8.8c0-31,25.2-56.2,56.2-56.2h194.5c31,0,56.2,25.2,56.2,56.2
	V3274.9z M1792.1,3253.1c0-1.9-1.6-3.5-3.5-3.5h-53.2c-1.9,0-3.5,1.6-3.5,3.5s1.6,3.5,3.5,3.5h53.2
	C1790.5,3256.5,1792.1,3255,1792.1,3253.1z M1802.6,3566c3.8,0,7-2.5,7.7-5.9l5.8-29.1c0.8-4.1-2.4-8-6.9-8.4l-87.3-8.1
	c-0.5,0-0.9,0-1.4,0l-3.5-16.9c-0.2-1.1-0.9-2-1.7-2.7c-0.1-0.1-0.2-0.2-0.3-0.3c-0.1,0-0.2-0.1-0.2-0.1c-0.4-0.3-0.8-0.6-1.4-0.7
	l-20.8-6.1c-2.6-0.8-5.3,0.7-6,3.3c-0.8,2.6,0.7,5.3,3.3,6l18.2,5.4l16.7,80.7c0.2,1,0.8,1.8,1.4,2.4l0,0c0.4,0.4,0.9,0.7,1.4,0.9
	c0.1,0.1,0.3,0.1,0.4,0.2c0.4,0.1,0.8,0.2,1.2,0.2c0.2,0,0.3,0.1,0.5,0.1l71.8,0c2.7,0,4.9-2.2,4.9-4.9c0-2.7-2.2-4.9-4.9-4.9l-68,0
	l-2.3-11L1802.6,3566L1802.6,3566z M1734.3,3599.8c0,4.3,3.5,7.8,7.8,7.8c4.3,0,7.8-3.5,7.8-7.8s-3.5-7.8-7.8-7.8
	C1737.8,3592,1734.3,3595.5,1734.3,3599.8z M1780.5,3599.8c0,4.3,3.5,7.8,7.8,7.8s7.8-3.5,7.8-7.8s-3.5-7.8-7.8-7.8
	S1780.5,3595.5,1780.5,3599.8z"/>
<g>
	<path d="M1006.3,3393c40.2,0,74.5,28.7,87.2,68.7c6-3.2,12.4-5.7,19.1-7.4c13.9-16.3,22.5-38.5,22.5-62.9c0-15.6-3.5-30.2-9.6-43
		c-13.6-28.6-40.4-48-71.1-48c-44.6,0-80.7,40.7-80.7,91c0,2.7,0.1,5.4,0.3,8.1C984.1,3395.3,995,3393,1006.3,3393z"/>
	<path d="M1129.2,3451.9c1.3-0.1,2.7-0.1,4.1-0.1c13.2,0,25.8,3.1,37.2,8.7c15.2-21.9,38.3-36.8,64.4-39.6
		c-5.3-44.5-39.1-78.8-80-78.8c-6.3,0-12.4,0.8-18.2,2.4c6.5,14.1,10.2,30,10.2,46.9C1146.9,3413.3,1140.6,3434.4,1129.2,3451.9z"/>
	<path d="M1324.3,3523.2c0-50.3-36.1-91-80.7-91c-2.7,0-5.4,0.2-8,0.5c-22.2,2.5-41.8,15.1-55,33.7c27,18,45.1,50.8,45.1,88.2
		c0,18.8-4.6,36.9-13.1,52.7c7.8,3.6,16.1,6,24.9,6.7l-9,15.5h30.1l-9-15.5C1291.4,3610.4,1324.3,3571.1,1324.3,3523.2z"/>
	<path d="M1145.2,3644.4c1.1-0.2,2.1-0.4,3.2-0.6c0.5-0.1,0.9-0.2,1.4-0.3c1.2-0.3,2.3-0.6,3.4-0.9c0.3-0.1,0.6-0.2,0.9-0.2
		c1.4-0.4,2.9-0.9,4.3-1.5c0.2-0.1,0.5-0.2,0.7-0.3c1.2-0.5,2.4-0.9,3.5-1.5c0.4-0.2,0.7-0.3,1.1-0.5c1.1-0.5,2.2-1,3.3-1.6
		c0.3-0.1,0.6-0.3,0.8-0.4c2.7-1.5,5.4-3.1,7.9-4.9c0.2-0.1,0.3-0.2,0.5-0.3c1.1-0.8,2.3-1.7,3.4-2.5c0.2-0.1,0.3-0.3,0.5-0.4
		c1.9-1.5,3.7-3.1,5.5-4.8c1.8-1.7,3.5-3.5,5.1-5.3c0,0,0.1-0.1,0.1-0.1c1-1.2,2-2.4,2.9-3.6c0.3-0.3,0.5-0.7,0.8-1
		c0.7-0.9,1.4-1.8,2-2.8c0.3-0.4,0.5-0.8,0.8-1.2c0.7-1,1.4-2.1,2-3.1c0.2-0.3,0.4-0.5,0.5-0.8c0.8-1.3,1.6-2.7,2.4-4.1
		c0-0.1,0.1-0.1,0.1-0.2c0.1-0.2,0.2-0.4,0.3-0.6c0.7-1.3,1.3-2.6,2-4c0.2-0.4,0.4-0.8,0.6-1.2c0.7-1.6,1.4-3.2,2.1-4.8
		c0-0.1,0.1-0.1,0.1-0.2c1.4-3.6,2.6-7.3,3.5-11.1c0-0.2,0.1-0.4,0.1-0.6c0.4-1.7,0.8-3.3,1.1-5c0.1-0.3,0.1-0.6,0.2-0.9
		c0.3-1.9,0.6-3.7,0.9-5.6c0-0.2,0.1-0.5,0.1-0.7c0.2-1.6,0.4-3.3,0.5-4.9c0-0.5,0.1-1,0.1-1.5c0.1-1.9,0.2-3.8,0.2-5.7
		c0-1.9-0.1-3.7-0.2-5.6c0-0.5-0.1-1.1-0.1-1.6c-0.1-1.4-0.2-2.7-0.4-4c-0.1-0.5-0.1-1.1-0.2-1.6c-0.2-1.7-0.5-3.4-0.8-5.1
		c0-0.1,0-0.2,0-0.3c-0.3-1.8-0.7-3.5-1.1-5.3c-0.1-0.5-0.2-0.9-0.3-1.4c-0.3-1.3-0.7-2.6-1.1-3.9c-0.1-0.5-0.3-0.9-0.4-1.4
		c-0.5-1.6-1-3.2-1.6-4.8c0-0.1,0-0.1-0.1-0.2c-0.6-1.7-1.3-3.3-2-5c-0.1-0.3-0.3-0.7-0.4-1c-0.6-1.3-1.2-2.6-1.8-3.9
		c-0.2-0.3-0.4-0.7-0.5-1c-1.6-3.1-3.4-6.2-5.4-9c-0.1-0.2-0.2-0.4-0.4-0.5c-0.9-1.3-1.8-2.5-2.7-3.7c-0.2-0.2-0.4-0.5-0.5-0.7
		c-2.2-2.8-4.5-5.4-6.9-7.9c-0.1-0.1-0.1-0.1-0.2-0.2c-1.2-1.2-2.4-2.3-3.6-3.4c-0.2-0.1-0.3-0.3-0.5-0.4c-2.6-2.3-5.4-4.4-8.3-6.4
		l0,0c0,0,0,0,0,0c-1.5-1-3.1-2-4.7-2.9c-0.2-0.1-0.4-0.2-0.5-0.3c-1.5-0.8-2.9-1.6-4.4-2.3c-0.2-0.1-0.3-0.2-0.5-0.3c0,0,0,0,0,0
		c-9.6-4.5-20-7-31-7c-4.9,0-9.6,0.5-14.3,1.5c0,0,0,0,0.1-0.1c-0.8,0.2-1.5,0.3-2.3,0.5c-0.6,0.1-1.1,0.3-1.7,0.4
		c-0.7,0.2-1.5,0.4-2.2,0.6c-0.7,0.2-1.3,0.4-2,0.6c-0.6,0.2-1.3,0.4-1.9,0.6c-1.2,0.4-2.5,0.9-3.7,1.4c-0.3,0.1-0.7,0.3-1,0.4
		c-1,0.4-2,0.9-3,1.4c-0.4,0.2-0.8,0.4-1.3,0.6c-0.9,0.5-1.9,1-2.8,1.5c-0.2,0.1-0.5,0.2-0.7,0.4v0c0.6,2.8,1,5.7,1.4,8.6
		c0.6,4.5,0.9,9.1,0.9,13.7c0,0.9,0,1.8-0.1,2.7c-0.6,24.8-9.1,48.5-24.3,66.8c-5.4,6.6-11.5,12.2-18.1,16.9
		c1.5,5.4,3.5,10.6,5.9,15.5c0,0,0,0,0,0c1.9,3.9,4,7.6,6.3,11.1c0,0.1,0.1,0.1,0.1,0.2c0.5,0.8,1.1,1.6,1.7,2.4
		c0.1,0.1,0.2,0.3,0.3,0.4c2.3,3.2,4.8,6.2,7.5,9c0.2,0.2,0.4,0.5,0.6,0.7c0.5,0.6,1.1,1.1,1.7,1.7c0.3,0.3,0.5,0.5,0.8,0.8
		c0.6,0.5,1.1,1,1.7,1.5c0.3,0.2,0.5,0.5,0.8,0.7c1,0.9,2.1,1.8,3.1,2.6c0.4,0.3,0.7,0.6,1.1,0.8c0.5,0.4,1,0.8,1.5,1.1
		c0.4,0.3,0.9,0.6,1.3,1c0.5,0.3,1,0.7,1.5,1c0.5,0.3,1,0.6,1.5,1c0.5,0.3,0.9,0.6,1.4,0.9c0.6,0.4,1.3,0.8,1.9,1.1
		c0.5,0.3,1,0.6,1.5,0.8c0.8,0.4,1.6,0.9,2.4,1.3c0.4,0.2,0.8,0.4,1.3,0.6c0.6,0.3,1.3,0.6,2,0.9c0.4,0.2,0.9,0.4,1.3,0.6
		c0.7,0.3,1.4,0.6,2.1,0.8c0.4,0.1,0.8,0.3,1.2,0.4c1,0.4,2,0.7,2.9,1c0.1,0,0.3,0.1,0.4,0.1c1.1,0.3,2.2,0.6,3.3,0.9
		c0.4,0.1,0.7,0.2,1.1,0.3c0.8,0.2,1.6,0.4,2.4,0.5c0.4,0.1,0.8,0.2,1.2,0.2c0.8,0.1,1.6,0.3,2.4,0.4c0.4,0.1,0.7,0.1,1.1,0.2
		c1.2,0.2,2.4,0.3,3.5,0.4l-9,15.5h30.2l-9-15.5c1.5-0.1,3-0.3,4.5-0.5C1144.3,3644.6,1144.8,3644.5,1145.2,3644.4z"/>
	<path d="M1021.4,3602l-9-15.5c15.3-1.3,29.4-7.4,41.2-17c20.3-16.5,33.5-43.4,33.5-73.7c0-5.1-0.4-10.1-1.1-15c0,0,0,0,0,0
		c-0.6-4.3-1.5-8.5-2.7-12.6c-10.4-36.7-40.9-63.4-76.9-63.4c-10.9,0-21.2,2.4-30.6,6.8c-29.4,13.6-50.1,46.2-50.1,84.2
		c0,47.9,32.9,87.2,74.6,90.7l-9,15.5L1021.4,3602L1021.4,3602z"/>
	<polygon points="1134.9,3911.6 1134.9,3668.8 1131,3668.8 1131,3912.2 1010.6,3610.1 1006.4,3610.1 1133,3927.8 1242,3638.1 
		1237.8,3638.1 	"/>
</g>
<path d="M140.8,3608.4c2.1-73.6,57.3-134,128.6-144.2l35.6-35.6l-33.2-33.2c-110,9.5-196.9,100.9-199.2,212.8l34-34L140.8,3608.4z"
	/>
<path d="M286.5,3762.6c-73.6-2.1-134.1-57.3-144.2-128.6l-35.6-35.6l-33.2,33.2c9.5,110,100.9,196.9,212.8,199.2l-34-34
	L286.5,3762.6z"/>
<path d="M508.8,3617.2l-34,34l-34.2-34.2c-2.1,73.6-57.3,134-128.6,144.2l-35.6,35.6l33.2,33.2
	C419.6,3820.5,506.5,3729.1,508.8,3617.2z"/>
<path d="M295,3462.8c73.6,2.1,134,57.3,144.2,128.6l35.6,35.6l33.2-33.2c-9.5-110-100.9-196.9-212.8-199.2l34,34L295,3462.8z"/>
<g>
	<circle cx="-679.4" cy="3742.1" r="43.4"/>
	<path d="M-755.5,3886.4h151.6c3.4,0,6.2-2.8,6.2-6.8c-3.4-42.3-38.9-75.5-81.7-75.5c-43.4,0-78.3,33.3-81.7,75.5
		C-761.7,3883.6-758.9,3886.4-755.5,3886.4z"/>
	<circle cx="-561.1" cy="3529.6" r="43.4"/>
	<path d="M-637.2,3673.9h151.6c3.4,0,6.2-2.8,6.2-6.8c-3.4-42.3-38.9-75.5-81.7-75.5c-42.8,0-78.9,33.8-81.7,76.1
		C-643.4,3671.1-640.6,3673.9-637.2,3673.9z"/>
	<circle cx="-797.8" cy="3529.6" r="43.4"/>
	<path d="M-873.3,3673.9h151.6c3.4,0,6.2-2.8,6.2-6.8c-3.4-41.7-38.9-75-82.3-75c-43.4,0-78.3,33.3-81.7,75.5
		C-879.5,3671.1-877.3,3673.9-873.3,3673.9z"/>
	<g>
		<g>
			<path d="M-778.6,3827.8c-1.7,0-3.9-0.6-5.1-1.7c-54.7-43.4-51.3-113.3-51.3-116.1c0-4.5,3.9-8.5,9-7.9c4.5,0,8.5,4.5,7.9,9l0,0
				c0,0.6-2.8,64.3,45.1,102c3.9,2.8,4.5,8.5,1.1,11.8C-774.1,3826.7-776.4,3827.8-778.6,3827.8z"/>
		</g>
		<g>
			<path d="M-580.2,3827.8c-2.3,0-5.1-1.1-6.8-3.4c-2.8-3.9-2.3-9,1.1-11.8c47.9-37.8,45.1-101.4,45.1-102c0-4.5,3.4-8.5,7.9-9
				c4.5-0.6,8.5,3.4,9,7.9c0,2.8,3.4,72.7-51.3,116.1C-576.3,3827.2-578,3827.8-580.2,3827.8z"/>
		</g>
	</g>
</g>
<path d="M-1096.3,2947.7c-7.3,0.1-14.4,1.1-20.4,2.9c-7.4,5.3-44.2,32.1-50.1,37.9c-6.5,6.5,13.4,21.2,32.4,12.5
	c16.9-7.8,28.5-20.7,36-21.6c1.6-0.3,2.6-0.4,4.6,1.3l80.3,92.1c3.6-1.9,8-3.7,11.6-3.5v-92.3c0,0-43.1-8.4-57.8-20
	C-1067.9,2950.7-1082.4,2947.6-1096.3,2947.7z M-818.4,2947.7c-0.7,0-1.3,0.2-1.9,0.4l-63.9,22.2c-2.2,0.8-4.1,2.8-4.6,5.1
	s0.6,4.9,2.3,6.5l19.8,17.3c-26.3,31.1-52.4,58.2-77.7,81.8c0.3,6.1,1.1,12.3,0.1,18.2c28.5-25.8,58-55.9,87.8-91l20.8,18.2
	c1.8,1.6,4.4,2.1,6.6,1.3c2.2-0.8,4.1-2.8,4.6-5.1l12.8-66.8c0.4-2-0.2-4.2-1.5-5.7C-814.3,2948.5-816.4,2947.7-818.4,2947.7z
	 M-1229.5,2956.5c-2.6,0-4.7,2.1-4.7,4.7v137c0,2.6,2.1,4.6,4.7,4.6h28.6c2.6,0,4.7-2,4.7-4.6v-137c0-2.6-2.1-4.7-4.7-4.7H-1229.5z
	 M-989.2,2956.5c-2.6,0-4.6,2.1-4.6,4.7v137c0,2.6,2,4.6,4.6,4.6h28.8c2.6,0,4.7-2,4.7-4.6v-137c0-2.6-2.1-4.7-4.7-4.7H-989.2z
	 M-1150.1,2961.8c-9.7,4.6-17.4,9.6-22.3,13.8c0,0,0.7,1.2-15.7,1.2v86.8c0,0,6.3-1.3,16.7,6.9c10.4,8.2,53.9,45.2,62.4,44.5
	c4.7,0.5,14.8-3.7,12.2-12.6c11.9,9.3,20.6,5.9,21.7,5.1c0,0,7.1-3.8,4.8-11.6c3.7,2.6,14.3,9.8,21.6,4.6c3.7-2.6,4.1-10.4,2.6-12.6
	c-1.5-2.2,25.6,11.7,25-10.9c0.1-0.7,0-1.3,0-1.9l-74.1-85.6c-2.1-2.4-6.1,0-9.4,2.2c-5.3,3.4-10,7.8-15.4,11.2
	c-12.6,9.1-30.6,12.7-44.6,4.7c-7.8-3.4-15.6-16-10.3-21.4c8.2-9,17.9-16.4,27.9-23.5C-1147.9,2962.3-1149,2962.1-1150.1,2961.8z
	 M-888.4,3063.4c-3.9,0-7.5,3.6-7.5,7.5v292.2c0,3.9,3.6,7.5,7.5,7.5h69.6c3.9,0,7.5-3.6,7.5-7.5v-292.2c0-3.9-3.6-7.5-7.5-7.5
	H-888.4z M-977.3,3114.5c-1.8,0.3-3.7,0.5-5.7,0.6c-49.7,40.9-95.5,68.5-133.7,87.1c-68,33.1-111.4,37.4-111.4,37.4
	c-1.8,0.2-3.4,1.1-4.6,2.5c-1.1,1.4-1.7,3.2-1.5,5c0.2,1.8,1.1,3.4,2.5,4.6c1.4,1.1,3.2,1.7,5,1.5c0,0,46.2-4.9,115.8-38.8
	c42.4-20.6,93.8-52.1,149.3-99.7C-966.8,3115.2-972.4,3114.7-977.3,3114.5z M-1001.2,3161.6c-3.9,0-7.5,3.6-7.5,7.5v193.9
	c0,3.9,3.6,7.5,7.5,7.5h69.6c3.9,0,7.5-3.6,7.5-7.5v-193.9c0-3.9-3.6-7.5-7.5-7.5H-1001.2z M-1114,3230.5c-3.9,0-7.5,3.6-7.5,7.5
	v125.1c0,3.9,3.6,7.5,7.5,7.5h69.6c3.9,0,7.5-3.6,7.5-7.5V3238c0-3.9-3.6-7.5-7.5-7.5H-1114z M-1226.7,3264.1
	c-3.9,0-7.5,3.6-7.5,7.5v91.5c0,3.9,3.6,7.5,7.5,7.5h69.6c3.9,0,7.5-3.6,7.5-7.5v-91.5c0-3.9-3.6-7.5-7.5-7.5H-1226.7z"/>
</svg>
