<svg xmlns="http://www.w3.org/2000/svg" xmlns:xlink="http://www.w3.org/1999/xlink" version="1.1" x="0px" y="0px" viewBox="0 0 48 48" enable-background="new 0 0 100 100" xml:space="preserve">  <g
     id="layer1">
    
      <g
       transform="translate(-111.04286,-1705.9143)"
       id="g688">
      <g
         id="g690">
        <circle
           cx="135.2"
           cy="1712.7"
           r="4.0999999"
           id="circle692"
            />
        <path
           d="m 144.7,1731.8 -1.2,-10.4 c 0.1,-0.6 0.1,-2 -1,-2.8 -1.4,-1 -6.9,-1.4 -6.9,-1.4 l -0.2,0.9 1,10 -1.4,1.9 -1.6,-2.7 1.3,-9.2 -0.4,-0.6 c 0,0 -3.5,0.2 -5,0.8 -1.3,0.6 -2.2,0.3 -2.6,2.9 0,0.1 0,0.1 0,0.2 l 0,0 c 0,0.3 -0.1,0.6 -0.1,1 0,0.1 0,0.3 0,0.4 l -1,9.1 c -0.1,0.9 0.6,1.8 1.5,1.9 0.9,0.1 1.8,-0.6 1.9,-1.5 l 1.1,-9.9 c 0.1,-0.3 0.3,-1 0.4,0.1 0.2,1.3 0.1,10.8 0.1,10.8 l -1.3,15.7 c 0,0 0.2,1.8 2,1.8 1.8,0 1.8,-1.8 1.8,-1.8 l 1.3,-14.5 1.6,0.1 1.1,14.6 c 0,0 0.6,1.9 2.1,1.7 1.5,-0.2 1.9,-0.8 1.8,-1.7 -0.1,-0.9 -1.2,-16.3 -1.2,-16.3 l -0.1,-11.2 c 0,0 0.2,-0.2 0.4,-0.2 0,0.1 0,0.2 0,0.3 l 1.2,10.5 c 0.1,0.9 1,1.6 1.9,1.5 0.9,-0.2 1.6,-1.1 1.5,-2 z"
           id="path694"
            />
      </g>
      <rect
         width="1"
         height="2.3"
         x="142.7"
         y="1732.6"
         id="rect696"
          />
      <path
         d="M 143.4,1745.6 H 143 c -1.2,0 -2.2,-1 -2.2,-2.2 v -6.8 c 0,-1.2 1,-2.2 2.2,-2.2 h 0.3 c 1.2,0 2.2,1 2.2,2.2 v 6.8 c 0.1,1.2 -0.9,2.2 -2.1,2.2 z"
         id="path698"
        />
    </g>
  </g></svg>