<svg xmlns="http://www.w3.org/2000/svg" xmlns:xlink="http://www.w3.org/1999/xlink" version="1.1" x="0px" y="0px" viewBox="0 0 1000 1250" enable-background="new 0 0 1000 1000" xml:space="preserve"><metadata><?xpacket begin="&#65279;" id="W5M0MpCehiHzreSzNTczkc9d"?><x:xmpmeta xmlns:x="adobe:ns:meta/" x:xmptk="Adobe XMP Core 5.5-c014 79.151739, 2013/04/03-12:12:15        "/><?xpacket end="w"?></metadata><path d="M785.9,602.9c-18.1-100.8-36.1-201.8-54.2-302.6l-2.7,1c-3.5,1.3-7.2,1.9-11,1.9c-16.7,0-32.2-12.1-38.6-30.1  c-7.7-21.6,0.5-44.6,18.4-52.4c-28.7-24.6-70-26.9-102.2-10.7L490,223.1l-52.3-6.5c-33.4-23.1-81.7-23.5-113.9,4.4  c17.3,8.1,25.2,30.7,17.6,52.1c-6.4,18-22,30.1-38.6,30.1c0,0,0,0,0,0c-3.8,0-7.4-0.6-11-1.9l-1.6-0.6  c-18,100.7-36.1,201.5-54.1,302.2c0,0-0.1,0-0.1,0c0,0.2,0,0.3,0,0.5c0,0.1,0,0.2,0,0.2l0,0c0,51.2,0,102.5,0,153.7  c0,58.9,0,117.9,0,176.7c13.4,39.2,68.9,39.2,82.2,0c0-58.9,0-117.9,0-176.7c0-46.3,0-92.7,0-139l13.9,2.5c0,45.5,0,91,0,136.5  c0,58.9,0,117.9,0,176.7c13.4,39.2,68.9,39.2,82.2,0c0-58.9,0-117.9,0-176.7c0-41.2,0-82.5,0-123.7c6.3-35,12.5-70,18.8-105  c6.1,22.9,12.2,45.7,18.3,68.5c12.9,18.6,39.2,15.6,49.5-1.3c9.4,18.6,37.3,22.6,50.7,3.3c9.4-35,18.8-70.2,28.2-105.3h0.6v-11.1  c9,50.3,18,100.5,27,150.8c0,41.2,0,82.5,0,123.7c0,58.9,0,117.9,0,176.7c13.4,39.2,68.9,39.2,82.2,0c0-58.9,0-117.9,0-176.7  c0-45.5,0-91,0-136.5l14.4-2.6c0,46.4,0,92.7,0,139.1c0,58.9,0,117.9,0,176.7c13.4,39.2,68.9,39.2,82.2,0c0-58.9,0-117.9,0-176.7  c0-51.5,0-103,0-154.5C786.3,602.9,786.1,602.9,785.9,602.9z M524.9,484.2c-7.6,28.6-15.3,57.2-23,85.8c-8.3-31-16.6-62-24.9-93  V280.8l12.9-1.6l34.9,4.4V484.2z"/><circle cx="426.9" cy="115.8" r="76.5"/><circle cx="595" cy="115.8" r="76.5"/><path d="M317.6,229.1l-1.5-0.5l-14.7-5.3c-0.5-0.2-1-0.2-1.5-0.2c-6.1,0-16.4,10.3-22.4,27c-6.9,19.4-3.8,34,1.5,35.9l13.1,4.7  l3.2,1.1c2.4,0.9,5,1.3,7.6,1.3c12.3,0,24.3-9.7,29.2-23.5C338.2,252.3,331.7,234.2,317.6,229.1z"/><path d="M743.3,250.1c-6-16.7-16.3-27-22.4-27c-0.5,0-1,0.1-1.5,0.2l-13.9,4.9l-2.4,0.9c-14.1,5-20.6,23.2-14.4,40.5  c4.9,13.8,16.9,23.5,29.2,23.5c2.6,0,5.2-0.4,7.6-1.3l4.3-1.5l12-4.3c2.7-1,4.6-5,5.2-10.8C747.9,268.1,746.5,258.9,743.3,250.1z"/></svg>