<svg xmlns="http://www.w3.org/2000/svg" xmlns:xlink="http://www.w3.org/1999/xlink" version="1.1" x="0px" y="0px" viewBox="0 0 48 48" enable-background="new 0 0 100 100" xml:space="preserve">  <g
     id="layer1">
   
    <g
       transform="translate(-193.25,-522.59999)"
       id="g354">
      <path
         d="m 219.8,538.7 c 0,-0.8 -0.7,-1.5 -1.5,-1.5 -0.8,0 -1.5,0.7 -1.5,1.5 v 11 c 0,0.8 0.7,1.5 1.5,1.5 0.8,0 1.5,-0.7 1.5,-1.5 v -11 z"
         id="own"
          />
      <path
         d="m 218.6,528.9 v -2.8 c 0,-0.2 -0.2,-0.4 -0.4,-0.4 -0.2,0 -0.4,0.2 -0.4,0.4 v 2.8 c -2.7,0.2 -4.8,2.4 -4.8,5.2 0,2.2 1.3,4 3.2,4.8 v -0.1 c 0,-1.1 0.9,-2 2,-2 1.1,0 2,0.9 2,2 v 0.1 c 1.9,-0.8 3.2,-2.6 3.2,-4.8 0,-2.8 -2.1,-5 -4.8,-5.2 z m -0.4,4.6 c -0.7,0 -1.2,-0.6 -1.2,-1.2 0,-0.6 0.4,-1 0.9,-1.2 v 0.5 c 0,0.2 0.2,0.4 0.4,0.4 0.2,0 0.4,-0.2 0.4,-0.4 v -0.5 c 0.5,0.2 0.9,0.6 0.9,1.2 -0.1,0.6 -0.7,1.2 -1.4,1.2 z"
         id="own"
          />
      <path
         d="m 235.3,549.3 h -7 c -1.5,0 -2.8,1.7 -3.1,4 l 0.9,0.2 -8.8,-0.3 c -0.7,0 -1.4,0.3 -1.9,0.8 -0.3,0.3 -0.5,0.6 -0.6,0.9 -0.2,0.4 -0.3,0.8 -0.3,1.3 0,1.6 1.3,2.8 2.9,2.8 l 0.1,0 0,0 7.2,0.5 3.7,-0.2 -3.2,0.5 -7.7,0.5 -0.1,0 c -2.2,0 -4.1,-1.8 -4.2,-4.1 0,-0.6 0.1,-1.1 0.3,-1.6 l -6.7,-2.5 c -1.8,-0.7 -3.7,-0.2 -4.2,1.1 -0.1,0.2 -0.1,0.5 -0.1,0.7 l -0.4,-0.1 c -1.9,-0.5 -3.7,0.2 -4.1,1.7 -0.4,1.4 0.8,3 2.6,3.5 -0.1,0.1 -0.1,0.2 -0.1,0.3 -0.4,1.4 0.8,2.9 2.7,3.5 l 7.2,2.2 c 1.8,1.6 4.9,2.7 9.2,2.7 4.6,0 8.7,-1.3 11.2,-3.2 h 4.5 c 1.8,0 3.3,-2.4 3.3,-5.4 v -4.3 c -0.1,-3 -1.5,-5.5 -3.3,-5.5 z"
         id="own"
          />
    </g>
  </g></svg>