<svg xmlns="http://www.w3.org/2000/svg" xmlns:xlink="http://www.w3.org/1999/xlink" version="1.1" x="0px" y="0px" viewBox="0 0 48 48" enable-background="new 0 0 100 100" xml:space="preserve">  <g
     id="layer1">
   
     <g
       transform="translate(-438.65001,-1162.8)"
       id="g484">
      <path
         d="m 453.2,1174.1 0.5,-0.2 c 0,0 0.1,-0.1 0.1,-0.2 v -0.1 c 0,-0.1 0,-0.1 -0.1,-0.2 l -0.5,-0.2 c -0.2,-0.1 -0.4,0 -0.4,0.2 v 0.3 c 0,0.4 0.2,0.5 0.4,0.4 z"
         id="path486"/>
      <circle
         cx="454.10001"
         cy="1173.7"
         r="0.30000001"
         id="circle488"/>
      <path
         d="m 455,1174.1 c 0.2,0.1 0.4,0 0.4,-0.2 v -0.3 c 0,-0.2 -0.2,-0.3 -0.4,-0.2 l -0.5,0.2 c 0,0 -0.1,0.1 -0.1,0.2 v 0.1 c 0,0.1 0,0.1 0.1,0.2 l 0.5,0 z"
         id="path490"/>
      <path
         d="m 458.2,1177.3 1.2,5.2 c 0,0.1 0.1,0.2 0.1,0.4 0,0.1 0,0.2 0.1,0.2 0,0 0,0.1 0,0.1 l 0,0.1 0,0 c 0,0.1 0,0.2 0,0.2 0,0 0,0.1 0,0.1 0,0.2 0,0.3 0,0.5 0,0 0,0 0,0 0.7,-1.9 2,-4.3 2.4,-5 -0.5,-0.2 -0.9,-0.3 -1.2,-0.5 -0.6,-0.2 -1.7,-0.8 -2.6,-1.3 z m 2.8,3.2 c -1.2,-1 -2.2,-2 -2,-2.4 0,0 0,0 0,0 0.6,0.3 1.3,0.7 1.7,0.9 0.2,0.1 0.5,0.2 0.9,0.4 -0.2,0.3 -0.4,0.7 -0.6,1.1 z"
         id="path492"/>
      <path
         d="m 476.7,1183.3 c -0.1,0.3 -0.1,0.6 -0.1,1 0,0.6 0.1,1.3 0.3,1.8 0.1,0.1 0.2,0.3 0.2,0.4 0.6,-1.3 1.8,-3.2 2.4,-4 -0.4,-0.2 -0.8,-0.4 -1.1,-0.6 -0.3,-0.2 -0.6,-0.4 -1,-0.7 -0.1,0.8 -0.3,1.5 -0.7,2.1 z"
         id="path494"/>
      <path
         d="m 472.3,1176.9 c 0,-0.1 0,-0.1 0,-0.2 -0.2,0.1 -0.4,0.3 -0.4,0.6 0,0.4 0.3,0.7 0.7,0.7 0.2,0 0.4,-0.1 0.5,-0.3 -0.5,0 -0.8,-0.4 -0.8,-0.8 z"
         id="path496"/>
      <path
         d="m 473.1,1177.7 c 0.1,0.2 0.3,0.3 0.5,0.3 0.4,0 0.7,-0.3 0.7,-0.7 0,-0.3 -0.2,-0.5 -0.4,-0.6 0,0.1 0,0.1 0,0.2 0,0.4 -0.4,0.8 -0.8,0.8 z"
         id="path498"/>
      <path
         d="m 452.5,1171.2 c 0,0.1 0,0.2 0.1,0.3 0.1,0.1 0.2,0.1 0.3,-0.1 0.1,-0.1 0.1,-0.1 0.2,-0.2 0,0 0.1,0 0.1,0 0.3,0 0.5,-0.2 0.7,-0.5 0.1,-0.1 0.1,-0.2 0.2,-0.3 0,0.1 0.1,0.2 0.2,0.3 0.2,0.2 0.4,0.4 0.7,0.5 0.1,0 0.1,0 0.1,0 0.1,0.1 0.2,0.1 0.2,0.2 0.1,0.1 0.2,0.1 0.3,0.1 0.1,0 0.1,-0.2 0.1,-0.3 0,-0.1 0,-0.2 0,-0.2 0,0 0,0 0,0 0,-0.2 0,-0.5 0,-0.7 -0.1,-0.5 -0.6,-0.9 -1.1,-0.9 -0.1,0 -0.3,0.1 -0.4,0.2 -0.1,-0.1 -0.4,-0.1 -0.4,-0.2 -0.5,-0.1 -1,0.3 -1.1,0.9 0,0.2 0,0.5 0,0.7 0,0 0,0 0,0 -0.2,0.1 -0.2,0.2 -0.2,0.2 z"
         id="path500"
         />
      <path
         d="m 459,1178.1 c 0,0 0,0 0,0 -0.3,0.4 0.7,1.5 2,2.4 0.2,-0.4 0.4,-0.8 0.6,-1.2 -0.3,-0.1 -0.6,-0.2 -0.9,-0.4 -0.4,-0.2 -1,-0.5 -1.7,-0.8 z"
         id="path502"
        />
      <path
         d="m 447.2,1191.6 c -0.1,0.3 -0.2,0.5 -0.2,0.7 0.2,0.2 0.3,0.6 0.3,0.9 h 0 v 19.6 h 0.7 v -19.7 h 0 c -0.1,-0.6 -0.4,-1.1 -0.8,-1.5 z"
         id="path504"
         />
      <path
         d="m 443.6,1193.3 h 0.7 c 0,-0.6 0.3,-1.1 0.8,-1.3 -0.1,-0.2 -0.1,-0.4 -0.2,-0.7 -0.7,0.3 -1.3,1 -1.3,2 z"
         id="path506"
         />
      <path
         d="m 454.1,1172.1 c 2.1,0 3.9,-1.7 3.9,-3.9 0,-2.2 -1.7,-3.9 -3.9,-3.9 -2.1,0 -3.9,1.7 -3.9,3.9 0,2.2 1.8,3.9 3.9,3.9 z m -1.6,-1.1 c 0,-0.2 0,-0.5 0,-0.7 0.1,-0.5 0.6,-0.9 1.1,-0.9 0.1,0 0.3,0.1 0.4,0.2 0.1,-0.1 0.4,-0.1 0.4,-0.2 0.5,-0.1 1,0.3 1.1,0.9 0,0.2 0,0.5 0,0.7 0,0 0,0 0,0 0,0.1 0,0.2 0,0.2 0,0.1 0,0.2 -0.1,0.3 -0.1,0.1 -0.2,0.1 -0.3,-0.1 -0.1,-0.1 -0.1,-0.1 -0.2,-0.2 0,0 -0.1,0 -0.1,0 -0.3,0 -0.5,-0.2 -0.7,-0.5 -0.1,-0.1 -0.1,-0.2 -0.2,-0.3 0,0.1 -0.1,0.2 -0.2,0.3 -0.2,0.2 -0.4,0.4 -0.7,0.5 -0.1,0 -0.1,0 -0.1,0 -0.1,0.1 -0.2,0.1 -0.2,0.2 -0.1,0.1 -0.2,0.1 -0.3,0.1 -0.1,0 -0.1,-0.2 -0.1,-0.3 0.2,0 0.2,-0.1 0.2,-0.2 0,0 0,0 0,0 z"
         id="path508"/>
      <path
         d="m 481.6,1183.3 c 0.2,-0.3 0.3,-0.6 0.2,-1 0,0 0,0 0,0 -0.9,-3.4 -6.3,-5.6 -6.9,-5.6 -0.5,-0.3 -1.1,-0.4 -1.8,-0.4 -0.6,0 -1.2,0.1 -1.8,0.4 -0.5,0 -4.3,1.5 -6.1,4 -0.1,-0.1 -0.2,-0.1 -0.4,-0.2 -0.2,0.3 -0.6,1.1 -1.2,2 0.3,0.2 0.5,0.4 0.5,0.4 0.1,0.1 0.3,0.1 0.5,0.2 0.6,0.3 2.4,-0.6 3.1,-1 0.3,-0.2 0.6,-0.4 1,-0.7 0.1,0.7 0.3,1.3 0.6,1.9 0.1,0.4 0.1,0.8 0.1,1.1 0,0.7 -0.2,1.5 -0.3,2.1 l 0,0 c -0.1,0.1 -0.1,0.2 -0.1,0.3 0,0 0,0 0,0 -0.3,0.5 -1,2.8 -1.3,5.6 h 0 c 0,0 0,0 0,0.1 0,0.3 -0.1,0.5 -0.1,0.8 -0.4,4.5 -1.9,14.9 -1.9,14.9 1.1,0.3 2.2,0.6 3.2,0.7 0.3,2.4 0.7,4.5 1.5,4.5 0.8,0 1.2,-1.9 1.5,-4.2 0.7,0 1.5,0 2.1,0 0.3,2.2 0.7,4.1 1.5,4.1 0.8,0 1.2,-2.1 1.5,-4.4 2.1,-0.4 3.3,-1 3.3,-1 0,0 -1.6,-12.7 -2.1,-16.5 -0.2,-1.3 -0.4,-2.4 -0.7,-3.3 1.3,-0.8 4.1,-4.8 4.1,-4.8 z m -2.1,-0.8 c -0.6,0.9 -1.9,2.7 -2.4,4 -0.1,-0.2 -0.2,-0.3 -0.2,-0.4 -0.2,-0.6 -0.3,-1.2 -0.3,-1.8 0,-0.3 0,-0.7 0.1,-1 0.4,-0.6 0.7,-1.3 0.8,-2 0.4,0.3 0.8,0.5 1,0.7 0.2,0.1 0.6,0.3 1,0.5 z m -5.7,-5.8 c 0.2,0.1 0.4,0.3 0.4,0.6 0,0.4 -0.3,0.7 -0.7,0.7 -0.2,0 -0.4,-0.1 -0.5,-0.3 0.4,0 0.8,-0.4 0.8,-0.8 0.1,-0.1 0.1,-0.2 0,-0.2 z m -1.3,1.3 c -0.4,0 -0.7,-0.3 -0.7,-0.7 0,-0.3 0.2,-0.5 0.4,-0.6 0,0.1 0,0.1 0,0.2 0,0.4 0.4,0.8 0.8,0.8 -0.1,0.2 -0.2,0.3 -0.5,0.3 z"
         id="path510"/>
      <path
         d="m 469.4,1173.1 c 0,0.2 0.1,0.3 0.2,0.4 -0.1,0 -0.1,0.1 -0.1,0.2 0,0.2 0.1,0.3 0.3,0.3 0.1,0 0.2,-0.1 0.3,-0.2 0.7,0.8 1.8,1.3 3,1.3 1.2,0 2.3,-0.5 3,-1.3 0,0.1 0.1,0.2 0.3,0.2 0.2,0 0.3,-0.1 0.3,-0.3 0,-0.1 -0.1,-0.2 -0.1,-0.2 0.1,-0.1 0.2,-0.2 0.2,-0.4 0,-0.1 0,-0.1 0,-0.2 0.3,-0.5 0.4,-1.2 0.4,-1.8 0,-2.2 -1.8,-4 -4,-4 -2.2,0 -4,1.8 -4,4 0,0.7 0.2,1.3 0.4,1.8 -0.2,0.1 -0.2,0.1 -0.2,0.2 z"
         id="path512"/>
      <path
         d="m 473,1166.9 c 0.6,0 1.2,0.1 1.7,0.4 0,-0.1 0,-0.2 0,-0.2 0,-1 -0.8,-1.7 -1.7,-1.7 -0.9,0 -1.7,0.8 -1.7,1.7 0,0.1 0,0.2 0,0.2 0.5,-0.2 1.1,-0.4 1.7,-0.4 z"
         id="path514"/>
      <path
         d="m 464.6,1179.2 c 0,-0.1 0,-0.2 0,-0.4 -0.9,-2.3 -3.8,-3.9 -5.9,-4.8 -1.3,-0.8 -2.9,-1.3 -4.6,-1.3 -2.8,0 -5.2,1.3 -6.8,3.3 -0.1,0.1 -0.4,0.5 -0.6,1 0,0.1 -0.1,0.1 -0.1,0.2 h 0 c -0.9,1.7 -2.2,4.7 -1.8,7.2 0,0.1 -0.1,0.3 -0.1,0.4 0,0 0.1,8 1.4,8 1.3,0 1.4,-8 1.4,-8 0,-0.3 -0.1,-0.5 -0.2,-0.8 0.2,-0.4 0.4,-0.8 0.5,-1.2 0.4,-1 2,-5.2 2.1,-5.7 h 0.2 l -1.2,5.5 c 0,0.1 0,0.1 0,0.2 0,0.1 -0.1,0.2 -0.1,0.3 0,0 0,0 0,0 l 0,0.1 0,0 c 0,0 0,0.1 0,0.1 0,0.1 0,0.2 0,0.3 0,0 0,0.1 0,0.1 0,0.1 0,0.2 0,0.3 0,1.2 0.4,2.3 1,3.2 -0.6,2.5 -1.1,7.3 0.2,11 0,0.1 0,0.3 0,0.4 v 12.4 c 0,1 0.7,1.8 1.5,1.8 h 0 c 0.8,0 1.5,-0.8 1.5,-1.8 v -12.2 c 0.3,-1.2 0.4,-2.6 0.5,-3.4 0.1,-1.4 0.3,-4.8 0.3,-5.8 0.2,0 0.4,0 0.6,0 0.2,0 0.3,0 0.5,0 0,1 0.1,4.3 0.3,5.7 0.1,0.8 0.2,2.3 0.5,3.4 v 12.2 c 0,1 0.7,1.8 1.5,1.8 h 0 c 0.8,0 1.5,-0.8 1.5,-1.8 v -12.4 c 0,-0.1 0,-0.3 0,-0.4 1.3,-3.5 0.8,-8.3 0.2,-10.8 0.3,-0.3 0.5,-0.7 0.6,-1.1 0,0.1 0.1,0.2 0.2,0.3 1.1,0.6 5.1,-6.3 5.1,-6.3 -0.1,-0.3 -0.1,-0.7 -0.2,-1 z m -10.2,-5.5 c 0,-0.1 0,-0.1 0.1,-0.2 l 0.5,-0.2 c 0.2,-0.1 0.4,0 0.4,0.2 v 0.3 c 0,0.2 -0.2,0.3 -0.4,0.2 l -0.5,-0.2 c 0,0.1 -0.1,0 -0.1,-0.1 l 0,0 z m -0.3,-0.3 c 0.2,0 0.3,0.1 0.3,0.3 0,0.2 -0.1,0.3 -0.3,0.3 -0.2,0 -0.3,-0.1 -0.3,-0.3 0,-0.1 0.1,-0.3 0.3,-0.3 z m -1.3,0.2 c 0,-0.2 0.2,-0.3 0.4,-0.2 l 0.5,0.2 c 0,0 0.1,0.1 0.1,0.2 v 0.1 c 0,0.1 0,0.1 -0.1,0.2 l -0.5,0.2 c -0.2,0.1 -0.4,0 -0.4,-0.2 v -0.5 z m 6.8,10.6 c 0,0 0.1,0 0,0 0,-0.2 0,-0.4 0,-0.5 0,0 0,-0.1 0,-0.1 0,-0.1 0,-0.2 0,-0.2 l 0,0 0,-0.1 c 0,0 0,-0.1 0,-0.1 0,-0.1 0,-0.2 -0.1,-0.2 0,-0.1 0,-0.2 -0.1,-0.4 l -1.2,-5.2 c 0.8,0.5 2,1.1 2.6,1.4 0.3,0.1 0.7,0.3 1.2,0.5 -0.4,0.6 -1.6,3 -2.4,4.9 z"
         id="path516"/>
    </g>
  </g></svg>