<svg xmlns="http://www.w3.org/2000/svg" xmlns:xlink="http://www.w3.org/1999/xlink" version="1.1" x="0px" y="0px" viewBox="0 0 48 48" enable-background="new 0 0 100 100" xml:space="preserve">  <g
     id="layer1">
   
    
    <g
       transform="translate(-442.65,-1614.2)"
       id="g642">
      <path
         d="m 469,1655.6 0,0 0,0 c -0.6,0.8 -1.8,1 -2.5,0.3 l -0.4,-0.3 -0.4,-0.3 c 0,-0.1 0.1,-0.1 0.1,-0.2 l 1.2,-3.4 c 0.1,0 0.1,0.1 0.2,0.1 0.1,0.1 0.2,0.2 0.4,0.3 0.1,0.1 0.1,0.1 0.2,0.1 0.1,0.1 0.2,0.1 0.2,0.2 0,0 0.1,0.1 0.1,0.1 0.1,0.1 0.2,0.2 0.3,0.2 0.2,0.2 0.3,0.3 0.3,0.3 0.8,0.8 0.9,1.9 0.3,2.6 z"
         id="path644"
         />
      <g
         id="g646">
        <path
           d="m 483.3,1649.6 0,0 c -0.6,0.8 -1.8,1 -2.5,0.4 0,0 -0.1,-0.1 -0.3,-0.2 -0.5,-0.4 -1.5,-1.2 -2.8,-2.2 -0.2,-0.1 -0.3,-0.3 -0.5,-0.4 -0.5,-0.4 -1,-0.8 -1.5,-1.2 -0.1,0 -0.1,-0.1 -0.2,-0.1 -0.3,-0.2 -0.6,-0.5 -0.9,-0.7 -2.9,-2.2 -5.7,-4.5 -5.9,-4.6 -0.5,-0.4 -1.1,0.3 -0.6,0.7 0.3,0.2 3.2,2.5 5.8,4.5 0.1,0.1 0.1,0.1 0.2,0.2 0.2,0.1 0.3,0.3 0.5,0.4 0.2,0.2 0.4,0.3 0.6,0.5 0.1,0.1 0.2,0.1 0.3,0.2 0.7,0.5 1.3,1 1.8,1.4 0.1,0.1 0.2,0.2 0.3,0.2 0.1,0.1 0.2,0.2 0.3,0.3 0.1,0 0.1,0.1 0.1,0.1 0,0 0,0 0,0 0,0 0,0 0,0 0.2,0.2 0.4,0.3 0.4,0.3 0.8,0.6 0.9,1.7 0.3,2.5 l 0,0 0,0 0,0 c -0.6,0.8 -1.7,0.9 -2.5,0.3 0,0 -0.1,-0.1 -0.3,-0.2 0,0 -0.1,0 -0.1,-0.1 0,0 0,0 0,0 0,0 -0.1,-0.1 -0.1,-0.1 0,0 0,0 -0.1,-0.1 0,0 -0.1,0 -0.1,-0.1 -0.1,0 -0.1,-0.1 -0.2,-0.2 0,0 0,0 0,0 -0.2,-0.1 -0.4,-0.3 -0.6,-0.5 -0.1,0 -0.1,-0.1 -0.2,-0.1 -0.1,-0.1 -0.2,-0.2 -0.3,-0.3 -0.1,-0.1 -0.2,-0.2 -0.4,-0.3 -0.1,-0.1 -0.2,-0.2 -0.3,-0.2 -0.7,-0.5 -1.5,-1.2 -2.2,-1.8 -2.5,-1.9 -5.1,-4 -5.3,-4.2 -0.5,-0.4 -1.1,0.3 -0.6,0.7 0.3,0.2 3,2.4 5.2,4.1 0.2,0.2 0.4,0.3 0.6,0.5 0.2,0.1 0.3,0.3 0.5,0.4 0.1,0.1 0.3,0.2 0.4,0.3 0.2,0.2 0.4,0.3 0.6,0.5 0.1,0.1 0.1,0.1 0.2,0.2 0,0 0.1,0.1 0.1,0.1 0.1,0.1 0.1,0.1 0.2,0.1 0.1,0.1 0.2,0.2 0.3,0.2 0.2,0.1 0.3,0.2 0.3,0.2 0.8,0.6 0.9,1.7 0.3,2.5 l 0,0 0,0 0,0 c -0.6,0.8 -1.7,0.9 -2.5,0.3 0,0 -0.1,-0.1 -0.3,-0.2 0,0 -0.1,0 -0.1,-0.1 0,0 0,0 0,0 -0.1,-0.1 -0.1,-0.1 -0.2,-0.2 -0.4,-0.3 -1,-0.8 -1.7,-1.3 -0.2,-0.1 -0.3,-0.3 -0.5,-0.4 -0.3,-0.2 -0.6,-0.4 -0.8,-0.7 -0.2,-0.2 -0.4,-0.3 -0.6,-0.5 0,-0.4 0,-0.9 -0.2,-1.3 -0.3,-0.6 -0.8,-1 -1.4,-1.3 -0.3,-0.1 -0.5,-0.1 -0.8,-0.1 -0.3,0 -0.5,0 -0.7,0.1 -0.4,-0.3 -0.7,-0.6 -0.9,-0.7 0,-0.1 -0.1,-0.1 -0.1,-0.2 -0.3,-0.6 -0.8,-1 -1.4,-1.3 -0.3,-0.1 -0.5,-0.1 -0.8,-0.1 -0.8,0 -1.5,0.4 -2,1 -0.2,-0.8 -0.8,-1.5 -1.6,-1.8 -0.3,-0.1 -0.5,-0.1 -0.8,-0.1 -0.8,0 -1.6,0.4 -2,1.1 -0.2,-0.8 -0.8,-1.4 -1.6,-1.7 -0.3,-0.1 -0.5,-0.1 -0.8,-0.1 -1.1,0 -2,0.7 -2.3,1.7 l 0,0.1 c -0.2,-0.1 -0.3,-0.1 -0.4,-0.2 l -5.6,-3.2 c -0.2,-0.1 -0.3,-0.4 -0.2,-0.6 l 6,-10.8 c 0.1,-0.2 0.4,-0.3 0.6,-0.2 l 2.8,1.1 c 0.2,0.1 0.6,0.1 0.9,0 l 6.8,-2.2 c 0.2,-0.1 0.6,-0.1 0.9,-0.1 l 0.5,0.1 c 0.2,0 0.3,0.2 0.1,0.4 l -0.7,0.5 c 0,0 0,0 0,0 -1.6,1.2 -3.7,2.7 -4.7,3.4 -1,0.6 -1.4,1.6 -1.1,2.7 0.4,1.3 1.8,2.3 3.3,2.3 0.5,0 1,-0.1 1.5,-0.3 1.4,-0.6 3.6,-1.5 5.3,-2.2 0,0 0,0 0.1,0 l 0.7,-0.3 c 0.4,-0.2 0.8,-0.3 1.2,-0.5 l 0.3,-0.1 c 0,0 0,0 0.1,0 0,0 0,0 0,0 0.2,-0.1 0.5,0 0.7,0.1 l 1.9,1.5 c 0.2,0.2 0.5,0.4 0.7,0.6 l 6,4.7 5.4,4.2 0.4,0.3 c 0.2,0.5 0.4,1.6 -0.2,2.4 z"
           id="path648"
            />
        <path
           d="m 463.3,1630.4 c 0.2,-0.1 0.6,-0.3 0.8,-0.4 l 6.6,-2.1 c 0.2,-0.1 0.6,-0.1 0.8,0.1 l 8.5,4.1 c 0.2,0.1 0.6,0.1 0.8,0 l 2.8,-1.1 c 0.2,-0.1 0.5,0 0.6,0.2 l 6,10.8 c 0.1,0.2 0.1,0.5 -0.1,0.7 l -5.6,4 c -0.2,0.1 -0.5,0.1 -0.7,0 l -15,-11.9 c -0.2,-0.2 -0.5,-0.2 -0.8,-0.1 0,0 -5.2,2.2 -8.1,3.4 -2.6,1.1 -5.1,-1.8 -2.9,-3.2 1.8,-1.1 6.3,-4.5 6.3,-4.5 z"
           id="path650"
            />
        <g
           id="g652">
          <g
             id="g654">
            <path
               d="m 465.4,1648.9 c 1,0.3 1.5,1.4 1.1,2.3 l -1.3,3.7 c -0.3,0.9 -1.4,1.5 -2.3,1.1 l 0,0 c -1,-0.3 -1.5,-1.4 -1.1,-2.3 l 1.3,-3.7 c 0.3,-0.9 1.3,-1.4 2.3,-1.1 l 0,0 z"
               id="path656"
               />
          </g>
          <g
             id="g658">
            <path
               d="m 461.4,1646.7 c 1,0.3 1.5,1.4 1.1,2.3 l -1.3,3.7 c -0.3,0.9 -1.4,1.5 -2.3,1.1 l 0,0 c -0.9,-0.3 -1.5,-1.4 -1.1,-2.3 l 1.3,-3.7 c 0.4,-0.9 1.4,-1.4 2.3,-1.1 l 0,0 z"
               id="path660"
              />
          </g>
          <g
             id="g662">
            <path
               d="m 457.1,1645.8 c 0.9,0.3 1.5,1.4 1.1,2.3 l -0.8,2.3 c -0.3,1 -1.4,1.5 -2.3,1.1 l 0,0 c -1,-0.3 -1.5,-1.4 -1.1,-2.3 l 0.8,-2.3 c 0.3,-0.9 1.3,-1.4 2.3,-1.1 l 0,0 z"
               id="path664"
                />
          </g>
          <g
             id="g666">
            <path
               d="m 452.6,1645 c 0.9,0.3 1.5,1.4 1.1,2.3 l -0.3,0.8 c -0.3,0.9 -1.4,1.5 -2.3,1.1 l 0,0 c -0.9,-0.3 -1.5,-1.4 -1.1,-2.3 l 0.3,-0.8 c 0.3,-0.9 1.4,-1.4 2.3,-1.1 l 0,0 z"
               id="path668"
               />
          </g>
        </g>
        <path
           d="m 494.8,1624.7 c -0.1,0 -0.1,0 -0.2,0.1 l -8.5,4.6 c -0.3,0.2 -0.5,0.6 -0.3,1 l 6.4,11.8 c 0.2,0.3 0.6,0.5 1,0.3 l 1.6,-0.9 v -16.9 z"
           id="path670"
            />
        <path
           d="m 447.7,1629.4 -8.5,-4.6 v 16.9 l 1.4,0.8 c 0.3,0.2 0.8,0.1 1,-0.3 l 6.4,-11.8 c 0.2,-0.4 0.1,-0.8 -0.3,-1 z"
           id="path672"
           />
      </g>
    </g>
   
  </g></svg>