<svg xmlns="http://www.w3.org/2000/svg" xmlns:xlink="http://www.w3.org/1999/xlink" version="1.1" x="0px" y="0px" viewBox="0 0 100 125" enable-background="new 0 0 100 100" xml:space="preserve"><path d="M58.248,35.088c-1.237-4.371,0.077-5.016,1.189-4.912c-0.818-2.296-0.834-4.554-0.287-6.643  c0.576-2.46,1.905-4.431,3.396-5.955c0.942-1.002,2.01-1.879,3.142-2.597c0.921-0.64,1.94-1.188,3.052-1.564l0.001-0.001  c0.869-0.294,1.795-0.483,2.775-0.529c3.028-0.262,5.321,0.496,6.968,1.472c2.459,1.357,3.392,3.153,3.392,3.153  s6.188,0.435,3.479,13.407c0.833,0.288,1.42,1.431,0.455,4.841c-1.187,4.195-2.266,4.426-2.916,3.984  c-0.803,4.519-3.234,10.342-11.072,10.647c-7.962-0.611-10.484-6.572-11.193-11.162C59.993,39.178,59.152,38.282,58.248,35.088z   M46.982,35.259L46.982,35.259c3.114-14.91-3.998-15.409-3.998-15.409s-1.073-2.064-3.899-3.624  c-1.893-1.122-4.529-1.993-8.009-1.692c-1.127,0.053-2.19,0.27-3.189,0.608l0,0l-0.002,0.001c-1.279,0.432-2.449,1.062-3.508,1.798  c-1.301,0.825-2.528,1.833-3.611,2.984c-1.714,1.751-3.242,4.017-3.904,6.844c-0.63,2.401-0.611,4.997,0.329,7.636  c-1.279-0.12-2.788,0.621-1.366,5.645c1.039,3.671,2.005,4.701,2.737,4.759c0.816,5.276,3.715,12.128,12.865,12.829  c9.009-0.351,11.802-7.043,12.726-12.237c0.747,0.508,1.987,0.242,3.351-4.579C48.614,36.903,47.939,35.59,46.982,35.259z   M93.825,54.263c-6.705-1.705-12.153-5.54-12.153-5.54l-4.25,13.443l-0.801,2.531l-0.012-0.035l-0.698,2.145l-2.241-6.358  c5.667-7.907-1.501-7.6-1.501-7.6S65,52.539,70.667,60.447l-2.262,6.408l-0.692-2.166l-5.049-15.967c0,0-5.448,3.835-12.153,5.54  c-0.891,0.226-1.628,0.598-2.241,1.068c2.352,1.258,5.626,2.761,9.227,3.677c3.565,0.906,6.112,3.351,7.365,7.068  c0.901,2.674,0.95,5.515,0.822,7.473c0.005,0.476,0.003,1.269-0.038,2.191c2.03,0.216,4.198,0.341,6.497,0.341l-0.009-0.369  l0.032,0.369c16.351,0,26.114-6.345,26.114-6.345c0.639-1.61,0.581-5.578,0.581-5.578C99.065,61.302,98.823,55.533,93.825,54.263z   M1.116,73.461c0,0-0.066,4.561,0.668,6.411c0,0,11.221,7.293,30.014,7.293l-0.01-0.424l0.037,0.424  c18.793,0,30.014-7.293,30.014-7.293c0.734-1.85,0.668-6.411,0.668-6.411c0.231-3.282-0.046-9.912-5.79-11.373  c-7.706-1.96-13.968-6.368-13.968-6.368l-4.885,15.45l0,0l0,0l-0.92,2.909l-0.014-0.04l-0.802,2.465l-2.575-7.308  c6.514-9.088-1.726-8.735-1.726-8.735s-8.24-0.354-1.726,8.734L27.5,76.562l-0.795-2.489l-5.803-18.351  c0,0-6.262,4.408-13.968,6.368c-5.748,1.461-6.022,8.099-5.79,11.378L1.116,73.461z"/></svg>