<svg xmlns="http://www.w3.org/2000/svg" xmlns:xlink="http://www.w3.org/1999/xlink" xmlns:sketch="http://www.bohemiancoding.com/sketch/ns" viewBox="0 0 64 117.5" version="1.1" x="0px" y="0px"><title>hairspray</title><desc>Created with Sketch.</desc><g stroke="none" stroke-width="1" fill="none" fill-rule="evenodd" sketch:type="MSPage"><g sketch:type="MSLayerGroup" transform="translate(-1355.000000, -23.000000)"><g transform="translate(1275.000000, 1.000000)" sketch:type="MSShapeGroup"><g transform="translate(80.000000, 22.000000)"><path d="M32.5948553,44 C43.2260824,47.0732321 51,56.8787682 51,68.5 C51,82.5832611 39.5832611,94 25.5,94 C11.4167389,94 0,82.5832611 0,68.5 C0,56.8787682 7.77391764,47.0732321 18.4051447,44 L32.5948553,44 Z" fill="#000path d="M9.1369287,81.25 C6.30769721,77.7206515 4.61538462,73.2406484 4.61538462,68.3653846 C4.61538462,56.9798221 13.8452067,47.75 25.2307692,47.75 C27.0103901,47.75 28.7373435,47.9754962 30.3846154,48.3994747 L30.3846154,48.3994747 L30.3846154,50.3665329 C29.9585012,50.3402558 29.5288845,50.3269231 29.0961538,50.3269231 C17.7105913,50.3269231 8.48076923,59.5567452 8.48076923,70.9423077 C8.48076923,74.6972675 9.48467956,78.2177514 11.2387406,81.25 L9.1369287,81.25 Z" fill="#000000" transform="translate(17.500000, 64.500000) rotate(-12.000000) translate(-17.500000, -64.500000) "/><path d="M29,24.7700785 C30.6889831,24.4449987 32.0171402,23.8004597 32.6301376,23 L32.6301376,23 L37,23 L37,21 L32.6301376,21 C32.0171402,20.1995403 30.6889831,19.5550013 29,19.2299215 L29,17 L24,17 L24,19.2299215 C21.6510482,19.682026 20,20.7520231 20,22 C20,23.2479769 21.6510482,24.317974 24,24.7700785 L24,27 L29,27 L29,24.7700785 L29,24.7700785 Z M17,29 L35,29 L35,42 L17,42 L17,29 Z M37,19 L38,19 L38,25 L37,25 L37,19 Z M15,91 L37,91 L37,94 L15,94 L15,91 Z" fill="#000000"/><path d="M61.5,16 C61.7761424,16 62,15.7761424 62,15.5 C62,15.2238576 61.7761424,15 61.5,15 C61.2238576,15 61,15.2238576 61,15.5 C61,15.7761424 61.2238576,16 61.5,16 Z M59.5,16 C59.7761424,16 60,15.7761424 60,15.5 C60,15.2238576 59.7761424,15 59.5,15 C59.2238576,15 59,15.2238576 59,15.5 C59,15.7761424 59.2238576,16 59.5,16 Z M57.5,16 C57.7761424,16 58,15.7761424 58,15.5 C58,15.2238576 57.7761424,15 57.5,15 C57.2238576,15 57,15.2238576 57,15.5 C57,15.7761424 57.2238576,16 57.5,16 Z M55.5,16 C55.7761424,16 56,15.7761424 56,15.5 C56,15.2238576 55.7761424,15 55.5,15 C55.2238576,15 55,15.2238576 55,15.5 C55,15.7761424 55.2238576,16 55.5,16 Z M53.5,16 C53.7761424,16 54,15.7761424 54,15.5 C54,15.2238576 53.7761424,15 53.5,15 C53.2238576,15 53,15.2238576 53,15.5 C53,15.7761424 53.2238576,16 53.5,16 Z M51.5,16 C51.7761424,16 52,15.7761424 52,15.5 C52,15.2238576 51.7761424,15 51.5,15 C51.2238576,15 51,15.2238576 51,15.5 C51,15.7761424 51.2238576,16 51.5,16 Z M49.5,16 C49.7761424,16 50,15.7761424 50,15.5 C50,15.2238576 49.7761424,15 49.5,15 C49.2238576,15 49,15.2238576 49,15.5 C49,15.7761424 49.2238576,16 49.5,16 Z M47.5,16 C47.7761424,16 48,15.7761424 48,15.5 C48,15.2238576 47.7761424,15 47.5,15 C47.2238576,15 47,15.2238576 47,15.5 C47,15.7761424 47.2238576,16 47.5,16 Z M45.5,16 C45.7761424,16 46,15.7761424 46,15.5 C46,15.2238576 45.7761424,15 45.5,15 C45.2238576,15 45,15.2238576 45,15.5 C45,15.7761424 45.2238576,16 45.5,16 Z M43.5,16 C43.7761424,16 44,15.7761424 44,15.5 C44,15.2238576 43.7761424,15 43.5,15 C43.2238576,15 43,15.2238576 43,15.5 C43,15.7761424 43.2238576,16 43.5,16 Z M41.5,16 C41.7761424,16 42,15.7761424 42,15.5 C42,15.2238576 41.7761424,15 41.5,15 C41.2238576,15 41,15.2238576 41,15.5 C41,15.7761424 41.2238576,16 41.5,16 Z M39.5,16 C39.7761424,16 40,15.7761424 40,15.5 C40,15.2238576 39.7761424,15 39.5,15 C39.2238576,15 39,15.2238576 39,15.5 C39,15.7761424 39.2238576,16 39.5,16 Z" fill="#000000" transform="translate(50.500000, 15.500000) rotate(-27.000000) translate(-50.500000, -15.500000) "/><path d="M56.8999023,10.8491211 C57.1760447,10.8491211 57.3999023,10.6252635 57.3999023,10.3491211 C57.3999023,10.0729787 57.1760447,9.84912109 56.8999023,9.84912109 C56.62376,9.84912109 56.3999023,10.0729787 56.3999023,10.3491211 C56.3999023,10.6252635 56.62376,10.8491211 56.8999023,10.8491211 Z M54.8999023,10.8491211 C55.1760447,10.8491211 55.3999023,10.6252635 55.3999023,10.3491211 C55.3999023,10.0729787 55.1760447,9.84912109 54.8999023,9.84912109 C54.62376,9.84912109 54.3999023,10.0729787 54.3999023,10.3491211 C54.3999023,10.6252635 54.62376,10.8491211 54.8999023,10.8491211 Z M52.8999023,10.8491211 C53.1760447,10.8491211 53.3999023,10.6252635 53.3999023,10.3491211 C53.3999023,10.0729787 53.1760447,9.84912109 52.8999023,9.84912109 C52.62376,9.84912109 52.3999023,10.0729787 52.3999023,10.3491211 C52.3999023,10.6252635 52.62376,10.8491211 52.8999023,10.8491211 Z M50.8999023,10.8491211 C51.1760447,10.8491211 51.3999023,10.6252635 51.3999023,10.3491211 C51.3999023,10.0729787 51.1760447,9.84912109 50.8999023,9.84912109 C50.62376,9.84912109 50.3999023,10.0729787 50.3999023,10.3491211 C50.3999023,10.6252635 50.62376,10.8491211 50.8999023,10.8491211 Z M48.8999023,10.8491211 C49.1760447,10.8491211 49.3999023,10.6252635 49.3999023,10.3491211 C49.3999023,10.0729787 49.1760447,9.84912109 48.8999023,9.84912109 C48.62376,9.84912109 48.3999023,10.0729787 48.3999023,10.3491211 C48.3999023,10.6252635 48.62376,10.8491211 48.8999023,10.8491211 Z M46.8999023,10.8491211 C47.1760447,10.8491211 47.3999023,10.6252635 47.3999023,10.3491211 C47.3999023,10.0729787 47.1760447,9.84912109 46.8999023,9.84912109 C46.62376,9.84912109 46.3999023,10.0729787 46.3999023,10.3491211 C46.3999023,10.6252635 46.62376,10.8491211 46.8999023,10.8491211 Z M44.8999023,10.8491211 C45.1760447,10.8491211 45.3999023,10.6252635 45.3999023,10.3491211 C45.3999023,10.0729787 45.1760447,9.84912109 44.8999023,9.84912109 C44.62376,9.84912109 44.3999023,10.0729787 44.3999023,10.3491211 C44.3999023,10.6252635 44.62376,10.8491211 44.8999023,10.8491211 Z M42.8999023,10.8491211 C43.1760447,10.8491211 43.3999023,10.6252635 43.3999023,10.3491211 C43.3999023,10.0729787 43.1760447,9.84912109 42.8999023,9.84912109 C42.62376,9.84912109 42.3999023,10.0729787 42.3999023,10.3491211 C42.3999023,10.6252635 42.62376,10.8491211 42.8999023,10.8491211 Z M40.8999023,10.8491211 C41.1760447,10.8491211 41.3999023,10.6252635 41.3999023,10.3491211 C41.3999023,10.0729787 41.1760447,9.84912109 40.8999023,9.84912109 C40.62376,9.84912109 40.3999023,10.0729787 40.3999023,10.3491211 C40.3999023,10.6252635 40.62376,10.8491211 40.8999023,10.8491211 Z M38.8999023,10.8491211 C39.1760447,10.8491211 39.3999023,10.6252635 39.3999023,10.3491211 C39.3999023,10.0729787 39.1760447,9.84912109 38.8999023,9.84912109 C38.62376,9.84912109 38.3999023,10.0729787 38.3999023,10.3491211 C38.3999023,10.6252635 38.62376,10.8491211 38.8999023,10.8491211 Z M36.8999023,10.8491211 C37.1760447,10.8491211 37.3999023,10.6252635 37.3999023,10.3491211 C37.3999023,10.0729787 37.1760447,9.84912109 36.8999023,9.84912109 C36.62376,9.84912109 36.3999023,10.0729787 36.3999023,10.3491211 C36.3999023,10.6252635 36.62376,10.8491211 36.8999023,10.8491211 Z M34.8999023,10.8491211 C35.1760447,10.8491211 35.3999023,10.6252635 35.3999023,10.3491211 C35.3999023,10.0729787 35.1760447,9.84912109 34.8999023,9.84912109 C34.62376,9.84912109 34.3999023,10.0729787 34.3999023,10.3491211 C34.3999023,10.6252635 34.62376,10.8491211 34.8999023,10.8491211 Z" fill="#000000" transform="translate(45.899902, 10.349121) rotate(-55.000000) translate(-45.899902, -10.349121) "/><path d="M63,22.7999878 C63.2761424,22.7999878 63.5,22.5761302 63.5,22.2999878 C63.5,22.0238454 63.2761424,21.7999878 63,21.7999878 C62.7238576,21.7999878 62.5,22.0238454 62.5,22.2999878 C62.5,22.5761302 62.7238576,22.7999878 63,22.7999878 Z M61,22.7999878 C61.2761424,22.7999878 61.5,22.5761302 61.5,22.2999878 C61.5,22.0238454 61.2761424,21.7999878 61,21.7999878 C60.7238576,21.7999878 60.5,22.0238454 60.5,22.2999878 C60.5,22.5761302 60.7238576,22.7999878 61,22.7999878 Z M59,22.7999878 C59.2761424,22.7999878 59.5,22.5761302 59.5,22.2999878 C59.5,22.0238454 59.2761424,21.7999878 59,21.7999878 C58.7238576,21.7999878 58.5,22.0238454 58.5,22.2999878 C58.5,22.5761302 58.7238576,22.7999878 59,22.7999878 Z M57,22.7999878 C57.2761424,22.7999878 57.5,22.5761302 57.5,22.2999878 C57.5,22.0238454 57.2761424,21.7999878 57,21.7999878 C56.7238576,21.7999878 56.5,22.0238454 56.5,22.2999878 C56.5,22.5761302 56.7238576,22.7999878 57,22.7999878 Z M55,22.7999878 C55.2761424,22.7999878 55.5,22.5761302 55.5,22.2999878 C55.5,22.0238454 55.2761424,21.7999878 55,21.7999878 C54.7238576,21.7999878 54.5,22.0238454 54.5,22.2999878 C54.5,22.5761302 54.7238576,22.7999878 55,22.7999878 Z M53,22.7999878 C53.2761424,22.7999878 53.5,22.5761302 53.5,22.2999878 C53.5,22.0238454 53.2761424,21.7999878 53,21.7999878 C52.7238576,21.7999878 52.5,22.0238454 52.5,22.2999878 C52.5,22.5761302 52.7238576,22.7999878 53,22.7999878 Z M51,22.7999878 C51.2761424,22.7999878 51.5,22.5761302 51.5,22.2999878 C51.5,22.0238454 51.2761424,21.7999878 51,21.7999878 C50.7238576,21.7999878 50.5,22.0238454 50.5,22.2999878 C50.5,22.5761302 50.7238576,22.7999878 51,22.7999878 Z M49,22.7999878 C49.2761424,22.7999878 49.5,22.5761302 49.5,22.2999878 C49.5,22.0238454 49.2761424,21.7999878 49,21.7999878 C48.7238576,21.7999878 48.5,22.0238454 48.5,22.2999878 C48.5,22.5761302 48.7238576,22.7999878 49,22.7999878 Z M47,22.7999878 C47.2761424,22.7999878 47.5,22.5761302 47.5,22.2999878 C47.5,22.0238454 47.2761424,21.7999878 47,21.7999878 C46.7238576,21.7999878 46.5,22.0238454 46.5,22.2999878 C46.5,22.5761302 46.7238576,22.7999878 47,22.7999878 Z M45,22.7999878 C45.2761424,22.7999878 45.5,22.5761302 45.5,22.2999878 C45.5,22.0238454 45.2761424,21.7999878 45,21.7999878 C44.7238576,21.7999878 44.5,22.0238454 44.5,22.2999878 C44.5,22.5761302 44.7238576,22.7999878 45,22.7999878 Z M43,22.7999878 C43.2761424,22.7999878 43.5,22.5761302 43.5,22.2999878 C43.5,22.0238454 43.2761424,21.7999878 43,21.7999878 C42.7238576,21.7999878 42.5,22.0238454 42.5,22.2999878 C42.5,22.5761302 42.7238576,22.7999878 43,22.7999878 Z M41,22.7999878 C41.2761424,22.7999878 41.5,22.5761302 41.5,22.2999878 C41.5,22.0238454 41.2761424,21.7999878 41,21.7999878 C40.7238576,21.7999878 40.5,22.0238454 40.5,22.2999878 C40.5,22.5761302 40.7238576,22.7999878 41,22.7999878 Z" fill="#000000"/><path d="M61.3647461,29.3403968 C61.6408885,29.3403968 61.8647461,29.1165391 61.8647461,28.8403968 C61.8647461,28.5642544 61.6408885,28.3403968 61.3647461,28.3403968 C61.0886037,28.3403968 60.8647461,28.5642544 60.8647461,28.8403968 C60.8647461,29.1165391 61.0886037,29.3403968 61.3647461,29.3403968 Z M59.3647461,29.3403968 C59.6408885,29.3403968 59.8647461,29.1165391 59.8647461,28.8403968 C59.8647461,28.5642544 59.6408885,28.3403968 59.3647461,28.3403968 C59.0886037,28.3403968 58.8647461,28.5642544 58.8647461,28.8403968 C58.8647461,29.1165391 59.0886037,29.3403968 59.3647461,29.3403968 Z M57.3647461,29.3403968 C57.6408885,29.3403968 57.8647461,29.1165391 57.8647461,28.8403968 C57.8647461,28.5642544 57.6408885,28.3403968 57.3647461,28.3403968 C57.0886037,28.3403968 56.8647461,28.5642544 56.8647461,28.8403968 C56.8647461,29.1165391 57.0886037,29.3403968 57.3647461,29.3403968 Z M55.3647461,29.3403968 C55.6408885,29.3403968 55.8647461,29.1165391 55.8647461,28.8403968 C55.8647461,28.5642544 55.6408885,28.3403968 55.3647461,28.3403968 C55.0886037,28.3403968 54.8647461,28.5642544 54.8647461,28.8403968 C54.8647461,29.1165391 55.0886037,29.3403968 55.3647461,29.3403968 Z M53.3647461,29.3403968 C53.6408885,29.3403968 53.8647461,29.1165391 53.8647461,28.8403968 C53.8647461,28.5642544 53.6408885,28.3403968 53.3647461,28.3403968 C53.0886037,28.3403968 52.8647461,28.5642544 52.8647461,28.8403968 C52.8647461,29.1165391 53.0886037,29.3403968 53.3647461,29.3403968 Z M51.3647461,29.3403968 C51.6408885,29.3403968 51.8647461,29.1165391 51.8647461,28.8403968 C51.8647461,28.5642544 51.6408885,28.3403968 51.3647461,28.3403968 C51.0886037,28.3403968 50.8647461,28.5642544 50.8647461,28.8403968 C50.8647461,29.1165391 51.0886037,29.3403968 51.3647461,29.3403968 Z M49.3647461,29.3403968 C49.6408885,29.3403968 49.8647461,29.1165391 49.8647461,28.8403968 C49.8647461,28.5642544 49.6408885,28.3403968 49.3647461,28.3403968 C49.0886037,28.3403968 48.8647461,28.5642544 48.8647461,28.8403968 C48.8647461,29.1165391 49.0886037,29.3403968 49.3647461,29.3403968 Z M47.3647461,29.3403968 C47.6408885,29.3403968 47.8647461,29.1165391 47.8647461,28.8403968 C47.8647461,28.5642544 47.6408885,28.3403968 47.3647461,28.3403968 C47.0886037,28.3403968 46.8647461,28.5642544 46.8647461,28.8403968 C46.8647461,29.1165391 47.0886037,29.3403968 47.3647461,29.3403968 Z M45.3647461,29.3403968 C45.6408885,29.3403968 45.8647461,29.1165391 45.8647461,28.8403968 C45.8647461,28.5642544 45.6408885,28.3403968 45.3647461,28.3403968 C45.0886037,28.3403968 44.8647461,28.5642544 44.8647461,28.8403968 C44.8647461,29.1165391 45.0886037,29.3403968 45.3647461,29.3403968 Z M43.3647461,29.3403968 C43.6408885,29.3403968 43.8647461,29.1165391 43.8647461,28.8403968 C43.8647461,28.5642544 43.6408885,28.3403968 43.3647461,28.3403968 C43.0886037,28.3403968 42.8647461,28.5642544 42.8647461,28.8403968 C42.8647461,29.1165391 43.0886037,29.3403968 43.3647461,29.3403968 Z M41.3647461,29.3403968 C41.6408885,29.3403968 41.8647461,29.1165391 41.8647461,28.8403968 C41.8647461,28.5642544 41.6408885,28.3403968 41.3647461,28.3403968 C41.0886037,28.3403968 40.8647461,28.5642544 40.8647461,28.8403968 C40.8647461,29.1165391 41.0886037,29.3403968 41.3647461,29.3403968 Z M39.3647461,29.3403968 C39.6408885,29.3403968 39.8647461,29.1165391 39.8647461,28.8403968 C39.8647461,28.5642544 39.6408885,28.3403968 39.3647461,28.3403968 C39.0886037,28.3403968 38.8647461,28.5642544 38.8647461,28.8403968 C38.8647461,29.1165391 39.0886037,29.3403968 39.3647461,29.3403968 Z" fill="#000000" transform="translate(50.364746, 28.840397) rotate(28.000000) translate(-50.364746, -28.840397) "/><path d="M56.8666992,34.7119788 C57.1428416,34.7119788 57.3666992,34.4881212 57.3666992,34.2119788 C57.3666992,33.9358364 57.1428416,33.7119788 56.8666992,33.7119788 C56.5905568,33.7119788 56.3666992,33.9358364 56.3666992,34.2119788 C56.3666992,34.4881212 56.5905568,34.7119788 56.8666992,34.7119788 Z M54.8666992,34.7119788 C55.1428416,34.7119788 55.3666992,34.4881212 55.3666992,34.2119788 C55.3666992,33.9358364 55.1428416,33.7119788 54.8666992,33.7119788 C54.5905568,33.7119788 54.3666992,33.9358364 54.3666992,34.2119788 C54.3666992,34.4881212 54.5905568,34.7119788 54.8666992,34.7119788 Z M52.8666992,34.7119788 C53.1428416,34.7119788 53.3666992,34.4881212 53.3666992,34.2119788 C53.3666992,33.9358364 53.1428416,33.7119788 52.8666992,33.7119788 C52.5905568,33.7119788 52.3666992,33.9358364 52.3666992,34.2119788 C52.3666992,34.4881212 52.5905568,34.7119788 52.8666992,34.7119788 Z M50.8666992,34.7119788 C51.1428416,34.7119788 51.3666992,34.4881212 51.3666992,34.2119788 C51.3666992,33.9358364 51.1428416,33.7119788 50.8666992,33.7119788 C50.5905568,33.7119788 50.3666992,33.9358364 50.3666992,34.2119788 C50.3666992,34.4881212 50.5905568,34.7119788 50.8666992,34.7119788 Z M48.8666992,34.7119788 C49.1428416,34.7119788 49.3666992,34.4881212 49.3666992,34.2119788 C49.3666992,33.9358364 49.1428416,33.7119788 48.8666992,33.7119788 C48.5905568,33.7119788 48.3666992,33.9358364 48.3666992,34.2119788 C48.3666992,34.4881212 48.5905568,34.7119788 48.8666992,34.7119788 Z M46.8666992,34.7119788 C47.1428416,34.7119788 47.3666992,34.4881212 47.3666992,34.2119788 C47.3666992,33.9358364 47.1428416,33.7119788 46.8666992,33.7119788 C46.5905568,33.7119788 46.3666992,33.9358364 46.3666992,34.2119788 C46.3666992,34.4881212 46.5905568,34.7119788 46.8666992,34.7119788 Z M44.8666992,34.7119788 C45.1428416,34.7119788 45.3666992,34.4881212 45.3666992,34.2119788 C45.3666992,33.9358364 45.1428416,33.7119788 44.8666992,33.7119788 C44.5905568,33.7119788 44.3666992,33.9358364 44.3666992,34.2119788 C44.3666992,34.4881212 44.5905568,34.7119788 44.8666992,34.7119788 Z M42.8666992,34.7119788 C43.1428416,34.7119788 43.3666992,34.4881212 43.3666992,34.2119788 C43.3666992,33.9358364 43.1428416,33.7119788 42.8666992,33.7119788 C42.5905568,33.7119788 42.3666992,33.9358364 42.3666992,34.2119788 C42.3666992,34.4881212 42.5905568,34.7119788 42.8666992,34.7119788 Z M40.8666992,34.7119788 C41.1428416,34.7119788 41.3666992,34.4881212 41.3666992,34.2119788 C41.3666992,33.9358364 41.1428416,33.7119788 40.8666992,33.7119788 C40.5905568,33.7119788 40.3666992,33.9358364 40.3666992,34.2119788 C40.3666992,34.4881212 40.5905568,34.7119788 40.8666992,34.7119788 Z M38.8666992,34.7119788 C39.1428416,34.7119788 39.3666992,34.4881212 39.3666992,34.2119788 C39.3666992,33.9358364 39.1428416,33.7119788 38.8666992,33.7119788 C38.5905568,33.7119788 38.3666992,33.9358364 38.3666992,34.2119788 C38.3666992,34.4881212 38.5905568,34.7119788 38.8666992,34.7119788 Z M36.8666992,34.7119788 C37.1428416,34.7119788 37.3666992,34.4881212 37.3666992,34.2119788 C37.3666992,33.9358364 37.1428416,33.7119788 36.8666992,33.7119788 C36.5905568,33.7119788 36.3666992,33.9358364 36.3666992,34.2119788 C36.3666992,34.4881212 36.5905568,34.7119788 36.8666992,34.7119788 Z M34.8666992,34.7119788 C35.1428416,34.7119788 35.3666992,34.4881212 35.3666992,34.2119788 C35.3666992,33.9358364 35.1428416,33.7119788 34.8666992,33.7119788 C34.5905568,33.7119788 34.3666992,33.9358364 34.3666992,34.2119788 C34.3666992,34.4881212 34.5905568,34.7119788 34.8666992,34.7119788 Z" fill="#000000" transform="translate(45.866699, 34.211979) rotate(55.000000) translate(-45.866699, -34.211979) "/><path d="M39.4018753,22.6283867 C39.6780176,22.6283867 39.9018753,22.4045291 39.9018753,22.1283867 C39.9018753,21.8522443 39.6780176,21.6283867 39.4018753,21.6283867 C39.1257329,21.6283867 38.9018753,21.8522443 38.9018753,22.1283867 C38.9018753,22.4045291 39.1257329,22.6283867 39.4018753,22.6283867 Z M38.3786148,24.4397717 C38.5901521,24.6172726 38.9055299,24.5896806 39.0830308,24.3781433 C39.2605317,24.166606 39.2329397,23.8512282 39.0214024,23.6737273 C38.8098651,23.4962264 38.4944873,23.5238184 38.3169864,23.7353557 C38.1394855,23.946893 38.1670775,24.2622708 38.3786148,24.4397717 Z M39.0214024,20.5830461 C39.2329397,20.4055452 39.2605317,20.0901674 39.0830308,19.87863 C38.9055299,19.6670927 38.5901521,19.6395007 38.3786148,19.8170016 C38.1670775,19.9945025 38.1394855,20.3098803 38.3169864,20.5214177 C38.4944873,20.732955 38.8098651,20.760547 39.0214024,20.5830461 Z" fill="#000000"/></g></g></g></g></svg>
