<svg xmlns="http://www.w3.org/2000/svg" xmlns:xlink="http://www.w3.org/1999/xlink" version="1.1" x="0px" y="0px" viewBox="0 0 100 139.20875" enable-background="new 0 0 100 111.367" xml:space="preserve"><g><path  style="fill:#00568d" d="M70.034,61.259C69.9,67.275,50,82.131,50,82.131S30.099,67.275,29.966,61.259C13.162,62.793,0,76.919,0,94.123   c0,18.228,14.776,17.234,33.004,17.234h33.991c18.229,0,33.005,0.993,33.005-17.234C100,76.919,86.837,62.793,70.034,61.259z"/><path fill="#00568d" d="M72.119,27.632c0.001,0.02,0.001,0.04,0.002,0.061l0.017,0C72.133,27.672,72.125,27.652,72.119,27.632z"/><path style="fill:#00568d" d="M50.009,0c-15.199,0-27.52,12.321-27.52,27.52s12.321,38.05,27.52,38.05c15.199,0,27.521-22.852,27.521-38.05   S65.208,0,50.009,0z"/></g></svg>