<svg xmlns="http://www.w3.org/2000/svg" xmlns:xlink="http://www.w3.org/1999/xlink" version="1.1" x="0px" y="0px" viewBox="0 0 48 48" enable-background="new 0 0 100 100" xml:space="preserve">  <g
     id="layer1"
     inkscape:label="Layer 1"
     inkscape:groupmode="layer">
   
    <g
       id="g332"
       transform="translate(-696.34997,-378.64998)">
      <path
         style="fill:#00568d"
         inkscape:connector-curvature="0"
         id="path334"
         d="m 726.3,385.2 h -14.1 c -1.4,0 -2.6,1.2 -2.6,2.6 v 29.5 c 0,1.4 1.2,2.6 2.6,2.6 h 14.1 c 1.4,0 2.6,-1.2 2.6,-2.6 v -29.5 c 0,-1.4 -1.2,-2.6 -2.6,-2.6 z m -9.6,2.2 h 5.1 c 0.2,0 0.3,0.2 0.3,0.3 0,0.2 -0.2,0.3 -0.3,0.3 h -5.1 c -0.2,0 -0.3,-0.2 -0.3,-0.3 0,-0.1 0.2,-0.3 0.3,-0.3 z m 2.6,31.1 c -0.7,0 -1.3,-0.6 -1.3,-1.3 0,-0.7 0.6,-1.3 1.3,-1.3 0.7,0 1.3,0.6 1.3,1.3 0,0.7 -0.6,1.3 -1.3,1.3 z m 8.3,-3.8 H 711 v -24.3 h 16.6 l 0,24.3 0,0 z" />
    </g>
  </g></svg>