<svg xmlns="http://www.w3.org/2000/svg" xmlns:xlink="http://www.w3.org/1999/xlink" version="1.1" x="0px" y="0px" viewBox="0 0 48 60" enable-background="new 0 0 48 48" xml:space="preserve"><g><path style="fill:#00568d" d="M38.561,0H9.441C7.343,0,5.637,1.609,5.637,3.586v40.828C5.637,46.393,7.343,48,9.441,48h29.12   c2.097,0,3.803-1.607,3.803-3.586V3.586C42.363,1.609,40.656,0,38.561,0z M12.503,7.241h22.993v8.813H12.503V7.241z M16.377,39.559   h-3.048c-0.547,0-0.99-0.443-0.99-0.99s0.442-0.989,0.99-0.989h3.048c0.547,0,0.99,0.442,0.99,0.989   C17.367,39.114,16.924,39.559,16.377,39.559z M16.377,32.025h-3.048c-0.547,0-0.99-0.443-0.99-0.989   c0-0.547,0.442-0.989,0.99-0.989h3.048c0.547,0,0.99,0.442,0.99,0.989C17.367,31.582,16.924,32.025,16.377,32.025z M16.377,24.493   h-3.048c-0.547,0-0.99-0.443-0.99-0.989c0-0.547,0.442-0.99,0.99-0.99h3.048c0.547,0,0.99,0.442,0.99,0.99   C17.367,24.049,16.924,24.493,16.377,24.493z M25.523,39.559h-3.047c-0.547,0-0.99-0.443-0.99-0.99s0.442-0.989,0.99-0.989h3.047   c0.547,0,0.99,0.442,0.99,0.989C26.514,39.114,26.07,39.559,25.523,39.559z M25.523,32.025h-3.047c-0.547,0-0.99-0.443-0.99-0.989   c0-0.547,0.442-0.989,0.99-0.989h3.047c0.547,0,0.99,0.442,0.99,0.989C26.514,31.582,26.07,32.025,25.523,32.025z M25.523,24.493   h-3.047c-0.547,0-0.99-0.443-0.99-0.989c0-0.547,0.442-0.99,0.99-0.99h3.047c0.547,0,0.99,0.442,0.99,0.99   C26.514,24.049,26.07,24.493,25.523,24.493z M34.671,39.559h-3.048c-0.547,0-0.99-0.443-0.99-0.99s0.443-0.989,0.99-0.989h3.048   c0.547,0,0.99,0.442,0.99,0.989C35.661,39.114,35.218,39.559,34.671,39.559z M34.671,32.025h-3.048c-0.547,0-0.99-0.443-0.99-0.989   c0-0.547,0.443-0.989,0.99-0.989h3.048c0.547,0,0.99,0.442,0.99,0.989C35.661,31.582,35.218,32.025,34.671,32.025z M34.671,24.493   h-3.048c-0.547,0-0.99-0.443-0.99-0.989c0-0.547,0.443-0.99,0.99-0.99h3.048c0.547,0,0.99,0.442,0.99,0.99   C35.661,24.049,35.218,24.493,34.671,24.493z"/></g>
</svg>