<svg xmlns="http://www.w3.org/2000/svg" xmlns:xlink="http://www.w3.org/1999/xlink" version="1.1" x="0px" y="0px" viewBox="0 0 48 48" enable-background="new 0 0 100 100" xml:space="preserve">  <g
     id="layer1">
    
      <g
       transform="translate(-113.9,-1614.2)"
       id="g566">
      <g
         id="g568">
        <g
           id="g570">
          <circle
             cx="121.1"
             cy="1624.6"
             r="4.0999999"
             id="circle572"
             sodipodi:cx="121.1"
             sodipodi:cy="1624.6"
             sodipodi:rx="4.0999999"
             sodipodi:ry="4.0999999"
            
             d="m 125.2,1624.6 c 0,2.2643 -1.83563,4.1 -4.1,4.1 -2.26437,0 -4.1,-1.8357 -4.1,-4.1 0,-2.2644 1.83563,-4.1 4.1,-4.1 2.26437,0 4.1,1.8356 4.1,4.1 z" />
          <path
             d="m 130.5,1643.7 -1.2,-10.4 c 0.1,-0.6 0.1,-2 -1,-2.8 -1.4,-1 -6.9,-1.4 -6.9,-1.4 l -0.2,0.9 1,10 -1.4,1.9 -1.6,-2.7 1.3,-9.2 -0.4,-0.6 c 0,0 -3.5,0.2 -5,0.8 -1.3,0.6 -2.2,0.3 -2.6,2.9 0,0.1 0,0.1 0,0.2 l 0,0 c 0,0.3 -0.1,0.6 -0.1,1 0,0.1 0,0.3 0,0.4 l -1,9.1 c -0.1,0.9 0.6,1.8 1.5,1.9 0.9,0.1 1.8,-0.6 1.9,-1.5 l 1.1,-9.9 c 0.1,-0.3 0.3,-1 0.4,0.1 0.2,1.3 0.1,10.8 0.1,10.8 l -1.3,15.7 c 0,0 0.2,1.8 2,1.8 1.8,0 1.8,-1.8 1.8,-1.8 l 1.3,-14.5 1.6,0.1 1.1,14.6 c 0,0 0.6,1.9 2.1,1.7 1.5,-0.2 1.9,-0.8 1.8,-1.7 -0.1,-0.9 -1.2,-16.3 -1.2,-16.3 l -0.1,-11.2 c 0,0 0.2,-0.2 0.4,-0.2 0,0.1 0,0.2 0,0.3 l 1.2,10.5 c 0.1,0.9 1,1.6 1.9,1.5 0.9,-0.2 1.6,-1 1.5,-2 z"
             id="path574"
             inkscape:connector-curvature="0"
             />
        </g>
        <rect
           x="128.60001"
           y="1644.6"
           width="1"
           height="2.3"
           id="rect576"
            />
        <path
           d="m 129.2,1657.5 h -0.3 c -1.2,0 -2.2,-1 -2.2,-2.2 v -6.8 c 0,-1.2 1,-2.2 2.2,-2.2 h 0.3 c 1.2,0 2.2,1 2.2,2.2 v 6.8 c 0,1.3 -1,2.2 -2.2,2.2 z"
           id="path578"
           inkscape:connector-curvature="0"
          />
      </g>
      <rect
         x="135"
         y="1645.2"
         width="15.5"
         height="17.299999"
         id="rect580"
          />
      <rect
         x="139.7"
         y="1646"
         width="2.5999999"
         height="4.5"
         id="rect582"
        />
      <rect
         x="143.2"
         y="1646"
         width="2.5999999"
         height="4.5"
         id="rect584"
          />
      <rect
         x="139.7"
         y="1656.5"
         width="2.5999999"
         height="4.5"
         id="rect586"
          />
      <rect
         x="143.2"
         y="1656.5"
         width="2.5999999"
         height="4.5"
         id="rect588"
         />
      <rect
         x="136.5"
         y="1651.2"
         width="2.5999999"
         height="4.5"
         id="rect590"
          />
      <rect
         x="140"
         y="1651.2"
         width="2.5999999"
         height="4.5"
         id="rect592"
         />
      <rect
         x="146.5"
         y="1651.2"
         width="2.5999999"
         height="4.5"
         id="rect594"
         />
      <polygon
         points="154.3,1628.9 151.4,1628.9 151.4,1662.2 163.6,1662.2 163.6,1628.9 160.8,1628.9 160.8,1625.6 154.3,1625.6 "
         id="polygon596"
          />
      <rect
         x="155.2"
         y="1626.3"
         width="4.5999999"
         height="2.5999999"
         id="rect598"
         />
      <rect
         x="156.2"
         y="1630.4"
         width="2.5"
         height="4.4000001"
         id="rect600"
         />
      <rect
         x="159.7"
         y="1630.4"
         width="2.5"
         height="4.4000001"
         id="rect602"
         />
      <rect
         x="152.89999"
         y="1635.6"
         width="2.5"
         height="4.4000001"
         id="rect604"
          />
      <rect
         x="156.39999"
         y="1635.6"
         width="2.5"
         height="4.4000001"
         id="rect606"
          />
      <rect
         x="156.39999"
         y="1651.6"
         width="2.5"
         height="4.4000001"
         id="rect608"
         />
      <rect
         x="156.39999"
         y="1656.4"
         width="2.5"
         height="4.4000001"
         id="rect610"
         />
      <rect
         x="153"
         y="1640.7"
         width="2.5"
         height="4.4000001"
         id="rect612"
         />
      <rect
         x="159.7"
         y="1640.7"
         width="2.5"
         height="4.4000001"
         id="rect614"
          />
      <rect
         x="153"
         y="1646.1"
         width="2.5"
         height="4.4000001"
         id="rect616"
        />
      <rect
         x="159.7"
         y="1646.1"
         width="2.5"
         height="4.4000001"
         id="rect618"
         />
      <rect
         x="153"
         y="1651.3"
         width="2.5"
         height="4.4000001"
         id="rect620"
        />
      <rect
         x="159.7"
         y="1651.3"
         width="2.5"
         height="4.4000001"
         id="rect622"
        />
      <rect
         x="157.2"
         y="1619.5"
         width="0.89999998"
         height="6.4000001"
         id="rect624"
          />
      <polygon
         points="138.1,1636.9 142.2,1636.9 142.2,1638.6 147.4,1635.2 142.2,1631.9 142.2,1633.6 138.1,1633.6 "
         id="polygon626"
         />
    </g>
  </g></svg>
