<svg xmlns="http://www.w3.org/2000/svg" xmlns:xlink="http://www.w3.org/1999/xlink" version="1.1" x="0px" y="0px" viewBox="0 0 48 48" enable-background="new 0 0 100 100" xml:space="preserve">  <g
     id="layer1">
    
    <g
       transform="translate(-767.75715,-1615.0571)"
       id="g674">
      <rect
         width="2.0999999"
         height="44.599998"
         x="813.90002"
         y="161.3"
         id="rect676"
         />
      <path
         d="m 793.4,1621.8 v 41.1 h 19.9 v -46.6 h -19.9 v 5.5 z m 15.2,-2 h 2.1 v 2.3 h -2.1 v -2.3 z m 0,5.3 h 2.1 v 2.3 h -2.1 v -2.3 z m 0,5.4 h 2.1 v 2.3 h -2.1 v -2.3 z m 0,5.3 h 2.1 v 2.3 h -2.1 v -2.3 z m 0,5.5 h 2.1 v 2.3 h -2.1 v -2.3 z m 0,5.3 h 2.1 v 2.3 h -2.1 v -2.3 z m 0,5.4 h 2.1 v 2.3 h -2.1 v -2.3 z m 0,5.3 h 2.1 v 2.3 h -2.1 v -2.3 z m -6.3,-37.5 h 2.1 v 2.3 h -2.1 v -2.3 l 0,0 z m 0,5.3 h 2.1 v 2.3 h -2.1 v -2.3 l 0,0 z m 0,5.4 h 2.1 v 2.3 h -2.1 v -2.3 l 0,0 z m 0,5.3 h 2.1 v 2.3 h -2.1 v -2.3 l 0,0 z m 0,5.5 h 2.1 v 2.3 h -2.1 v -2.3 l 0,0 z m 0,5.3 h 2.1 v 2.3 h -2.1 v -2.3 l 0,0 z m 0,5.4 h 2.1 v 2.3 h -2.1 v -2.3 l 0,0 z m 0,5.3 h 2.1 v 2.3 h -2.1 v -2.3 l 0,0 z m -6.3,-37.5 h 2.1 v 2.3 H 796 v -2.3 z m 0,5.3 h 2.1 v 2.3 H 796 v -2.3 z m 0,5.4 h 2.1 v 2.3 H 796 v -2.3 z m 0,5.3 h 2.1 v 2.3 H 796 v -2.3 z m 0,5.5 h 2.1 v 2.3 H 796 v -2.3 z m 0,5.3 h 2.1 v 2.3 H 796 v -2.3 z m 0,5.4 h 2.1 v 2.3 H 796 v -2.3 z m 0,5.3 h 2.1 v 2.3 H 796 v -2.3 z"
         id="path678"
          />
      <path
         d="m 771.4,1662.9 h 19.9 v -37.2 l -19.9,13.9 v 23.3 z m 15.2,-27.1 h 2.1 v 2.3 h -2.1 v -2.3 l 0,0 z m 0,5.5 h 2.1 v 2.3 h -2.1 v -2.3 l 0,0 z m 0,5.3 h 2.1 v 2.3 h -2.1 v -2.3 l 0,0 z m 0,5.4 h 2.1 v 2.3 h -2.1 v -2.3 l 0,0 z m 0,5.3 h 2.1 v 2.3 h -2.1 v -2.3 l 0,0 z m -6.2,-16 h 2.1 v 2.3 h -2.1 v -2.3 z m 0,5.3 h 2.1 v 2.3 h -2.1 v -2.3 z m 0,5.4 h 2.1 v 2.3 h -2.1 v -2.3 z m 0,5.3 h 2.1 v 2.3 h -2.1 v -2.3 z m -6.4,-10.7 h 2.1 v 2.3 H 774 v -2.3 z m 0,5.4 h 2.1 v 2.3 H 774 v -2.3 z m 0,5.3 h 2.1 v 2.3 H 774 v -2.3 z"
         id="path680"
         />
    </g>
  </g></svg>