<svg xmlns="http://www.w3.org/2000/svg" xmlns:xlink="http://www.w3.org/1999/xlink" version="1.1" x="0px" y="0px" viewBox="0 0 48 48" enable-background="new 0 0 100 100" xml:space="preserve">  <g
     id="layer1">
    
    <g
       transform="translate(-675.90001,-1853.2)"
       id="g896">
      <path
         d="m 703.7,1892.7 h -4.9 c -2.6,0 -4.6,2.1 -4.6,4.6 v 0.1 h 14.2 v -0.1 c -0.1,-2.5 -2.1,-4.6 -4.7,-4.6 z"
         id="path898"/>
      <circle
         cx="701"
         cy="1886.3"
         r="4.6999998"
         id="circle900"/>
      <circle
         cx="689.09998"
         cy="1873.2"
         r="6.5999999"
         id="circle902"/>
      <circle
         cx="710.40002"
         cy="1868.1"
         r="6.5999999"
         id="circle904"/>
      <path
         d="m 714.2,1876.1 h -6.9 c -2.6,0 -4.8,1.5 -5.8,3.7 3.3,0.3 5.9,3 5.9,6.4 0,2 -0.9,3.7 -2.3,4.9 2.8,0.7 4.9,3.2 4.9,6.2 v 0.1 h 10.6 v -14.9 c 0.1,-3.5 -2.8,-6.4 -6.4,-6.4 z"
         id="path906"
        />
      <path
         d="m 696.9,1891.3 c -1.5,-1.2 -2.4,-3 -2.4,-5 0,-1.6 0.6,-3.1 1.6,-4.2 -1,-0.6 -2.1,-0.9 -3.3,-0.9 H 686 c -3.5,0 -6.4,2.9 -6.4,6.4 v 9.8 h 12.9 v -0.1 c 0,-2.8 1.8,-5.2 4.4,-6 z"
         id="path908"
         />
    </g>
  </g></svg>