<svg xmlns="http://www.w3.org/2000/svg" xmlns:xlink="http://www.w3.org/1999/xlink" version="1.1" x="0px" y="0px" viewBox="0 0 100 125" enable-background="new 0 0 100 100" xml:space="preserve"><g><g><g><path d="M5.001,49.903c0-6.628,5.373-12.002,12.002-12.002c5.196,0,9.62,3.302,11.29,7.921l0,0.001     c3.588,5.015,8.876,8.73,15.022,10.305l0.146,0.037c-0.057,0.043-0.113,0.086-0.168,0.13c-2.519,1.98-4.14,5.054-4.14,8.499     c0,2.417,0.798,4.652,2.144,6.454l-0.062-0.035c-0.019-0.006-0.038-0.013-0.056-0.02c-0.081-0.028-0.163-0.057-0.244-0.086     c-4.816-1.732-8.987-4.814-12.058-8.789L28.896,95H4.857l0.148-45.008L5.001,49.903z M71.104,17.002     c0,6.628,5.373,12.002,12.002,12.002s12.002-5.373,12.002-12.002S89.734,5,83.106,5S71.104,10.373,71.104,17.002z M17.003,5     c6.628,0,12.002,5.373,12.002,12.002s-5.373,12.002-12.002,12.002S5.001,23.63,5.001,17.002S10.374,5,17.003,5z M54.241,56.552     c-3.765,0.522-6.664,3.754-6.664,7.663c0,4.273,3.464,7.736,7.736,7.736c0.744,0,1.464-0.105,2.145-0.301l0.357-0.145     c5.333-1.623,9.956-4.876,13.288-9.179l0,0.157v32.5h24.039l-0.036-45.08c0-6.628-5.373-12.002-12.002-12.002     c-5.066,0-9.398,3.138-11.16,7.576l-0.064,0.08c-3.978,5.695-10.129,9.761-17.25,10.993L54.241,56.552z"/></g></g></g></svg>