<svg xmlns="http://www.w3.org/2000/svg" xmlns:xlink="http://www.w3.org/1999/xlink" version="1.0" x="0px" y="0px" viewBox="0 0 32 40" enable-background="new 0 0 32 32" xml:space="preserve"><path d="M22,12l3.406-3.406C23.031,5.656,19.602,4,16,4C9.371,4,4,9.375,4,16c0,6.629,5.371,12,12,12c3.602,0,6.82-1.594,9.02-4.105  l3.008,2.633C25.094,29.875,20.801,32,16,32C7.164,32,0,24.836,0,16S7.164,0,16,0c4.801,0,9.332,2.387,12.266,5.734L32,2v10H22z"/><text x="0" y="47" fill="#000000" font-size="5px" font-weight="bold" font-family="'Helvetica Neue', Helvetica, Arial-Unicode, Arial, Sans-serif">Created by Zlatko Najdenovski</text><text x="0" y="52" fill="#000000" font-size="5px" font-weight="bold" font-family="'Helvetica Neue', Helvetica, Arial-Unicode, Arial, Sans-serif">from the Noun Project</text></svg>