<svg xmlns="http://www.w3.org/2000/svg" xmlns:xlink="http://www.w3.org/1999/xlink" version="1.1" x="0px" y="0px" viewBox="0 0 48 48" enable-background="new 0 0 100 100" xml:space="preserve">  <g
     id="layer1">
    
    <g
       transform="translate(-359.95001,-523.6)"
       id="g448">
      <path
         d="m 370.5,537.7 h 4.4 c 0,0 0.1,0 0.1,0 l 5.1,6.2 c 0.8,0.8 2.1,0.9 2.9,0.3 v 1.8 c -1.8,0.1 -3.2,1.6 -3.2,3.4 0,1.4 0.9,2.6 2.1,3.2 v -0.1 c 0,-0.7 0.6,-1.3 1.3,-1.3 0.7,0 1.3,0.6 1.3,1.3 v 0.1 c 1.2,-0.5 2.1,-1.7 2.1,-3.2 0,-1.8 -1.4,-3.3 -3.2,-3.4 v -1.8 c 0.3,0.3 0.7,0.5 1.2,0.5 1.1,0 1.9,-1 1.9,-2.2 v -6.9 l 2.8,2.1 c 1,0.7 2.3,0.6 3,-0.3 0.7,-0.9 0.4,-2.2 -0.6,-2.9 l -2.7,-2.1 h 4.2 c 1.2,0 2.2,-0.8 2.2,-1.9 0,-1.1 -1,-1.9 -2.2,-1.9 h -8.6 c -1.2,-0.7 -2.9,-1.2 -5.1,-1.2 -1.8,0 -3.6,0.3 -5,0.9 h -4.1 c -1.1,0 -2,1.5 -2,3.4 v 2.7 c 0.1,1.8 1,3.3 2.1,3.3 z m 12.8,10.2 c 0.1,0 0.2,-0.1 0.2,-0.2 v -0.3 c 0.3,0.1 0.6,0.4 0.6,0.8 0,0.4 -0.4,0.8 -0.8,0.8 -0.4,0 -0.8,-0.4 -0.8,-0.8 0,-0.4 0.2,-0.7 0.6,-0.8 v 0.3 c -0.1,0.1 0,0.2 0.2,0.2 z M 381,534.1 c 0.9,0 1.8,0.9 1.8,1.8 v 4.4 l -3.4,-4.1 c 0,-0.1 0,-0.2 0,-0.4 -0.1,-1 0.7,-1.7 1.6,-1.7 z"
         id="path450"
         />
      <path
         d="m 393.5,557.7 h -4.7 c -1,0 -1.9,1.1 -2.1,2.7 l 0.6,0.1 -3.3,-0.1 c 0.2,-0.2 0.4,-0.5 0.4,-0.8 v -7.2 c 0,-0.6 -0.4,-1 -1,-1 -0.6,0 -1,0.4 -1,1 v 7.2 c 0,0.3 0.1,0.5 0.3,0.7 l -1.3,0 c -0.5,0 -1,0.2 -1.3,0.5 -0.2,0.2 -0.3,0.4 -0.4,0.6 -0.1,0.3 -0.2,0.5 -0.2,0.9 0,1.1 0.9,1.9 2,1.9 l 0.1,0 0,0 4.9,0.3 2.5,-0.1 -2.2,0.3 -5.2,0.3 0,0 c -1.5,0 -2.8,-1.2 -2.8,-2.7 0,-0.4 0.1,-0.8 0.2,-1.1 l -4.5,-1.7 c -1.2,-0.5 -2.5,-0.1 -2.8,0.7 -0.1,0.2 -0.1,0.3 -0.1,0.5 l -0.3,-0.1 c -1.3,-0.4 -2.5,0.2 -2.8,1.1 -0.3,1 0.5,2 1.8,2.4 0,0.1 -0.1,0.2 -0.1,0.2 -0.3,0.9 0.6,2 1.8,2.3 l 4.9,1.5 c 1.2,1.1 3.3,1.8 6.2,1.8 3.1,0 5.9,-0.9 7.6,-2.2 h 3 c 1.2,0 2.2,-1.6 2.2,-3.6 v -2.9 c -0.2,-1.9 -1.2,-3.5 -2.4,-3.5 z"
         id="path452"
          />
    </g>
  </g></svg>