<svg xmlns="http://www.w3.org/2000/svg" xmlns:xlink="http://www.w3.org/1999/xlink" version="1.1" x="0px" y="0px" viewBox="0 0 100 125" enable-background="new 0 0 100 100" xml:space="preserve"><rect x="34" y="41" width="10" height="52"/><rect x="84" y="14" width="10" height="79"/><rect x="34" y="83" width="60" height="10"/><rect x="52" y="13" width="42" height="10"/><rect x="60" y="27" width="21" height="5"/><rect x="57" y="35" width="24" height="5"/><rect x="47" y="43" width="34" height="5"/><rect x="47" y="51" width="34" height="5"/><rect x="47" y="59" width="34" height="5"/><rect x="47" y="67" width="34" height="5"/><rect x="47" y="75" width="34" height="5"/><path d="M39.5,8C29.835,8,22,15.835,22,25.5S29.835,43,39.5,43S57,35.165,57,25.5S49.165,8,39.5,8z M39.5,34.25  c-4.833,0-8.75-3.917-8.75-8.75s3.917-8.75,8.75-8.75s8.75,3.917,8.75,8.75S44.333,34.25,39.5,34.25z"/><path d="M11.519,60.553c-1.516,1.515-4.327,1.16-6.28-0.792l0,0c-1.953-1.952-2.307-4.764-0.792-6.279l21.951-21.951  c1.516-1.515,4.327-1.161,6.28,0.792l0,0c1.953,1.952,2.307,4.764,0.792,6.28L11.519,60.553z"/></svg>
