<svg xmlns="http://www.w3.org/2000/svg" xmlns:xlink="http://www.w3.org/1999/xlink" version="1.1" x="0px" y="0px" viewBox="0 0 100 125" enable-background="new 0 0 100 100" xml:space="preserve"><g display="none"><path display="inline" fill="#000000" stroke="#000000" stroke-width="3" stroke-linejoin="round" stroke-miterlimit="10" d="   M86.5,70.5c0,2.2-1.8,4-4,4H51.1c-19.3,0-35.2-12.4-36.5-27.8c-0.1-1.2,0.8-2.2,2-2.2h69.9V70.5z"/><line display="inline" fill="none" stroke="#000000" stroke-width="3" stroke-linecap="round" stroke-linejoin="round" stroke-miterlimit="10" x1="86" y1="50.5" x2="31" y2="50.5"/><rect x="73.5" y="30.5" display="inline" fill="#000000" stroke="#000000" stroke-width="3" stroke-linecap="round" stroke-linejoin="round" stroke-miterlimit="10" width="8" height="14"/><polygon display="inline" fill="#000000" stroke="#000000" stroke-width="3" stroke-linecap="round" stroke-linejoin="round" stroke-miterlimit="10" points="   81.5,30.5 64.5,30.5 64.1,30.1 63.7,30.5 63.5,30.5 63.5,30.7 58,36.2 60.8,39 65.3,34.5 81.5,34.5  "/><line display="inline" fill="none" stroke="#000000" stroke-width="3" stroke-linecap="round" stroke-miterlimit="10" x1="81.8" y1="30.6" x2="69.4" y2="21.8"/></g><g><path d="M86.5,43H83V31.7c0-0.7-0.3-1.4-0.9-1.9l-11.8-9.6c-0.7-0.5-1.6-0.3-2,0.4c-0.5,0.7-0.3,1.7,0.4,2.1L77,29H63.3   c-0.4,0-0.8,0.2-1.1,0.5l-5.8,5.9c-0.3,0.3-0.4,0.7-0.4,1.1s0.2,0.8,0.4,1.1l2.9,2.9c0.3,0.3,0.7,0.5,1.1,0.5   c0.4,0,0.8-0.3,1.1-0.6l4.1-4.4H72v7H16.6c-1,0-1.9,0.4-2.6,1.1c-0.7,0.7-1,1.7-0.9,2.6C14.5,63.2,31.2,76,51.1,76h31.4   c3,0,5.5-2.5,5.5-5.5v-26C88,43.7,87.3,43,86.5,43z M65,33c-0.4,0-0.8,0.2-1.1,0.5l-3.5,3.7l-0.7-0.8l4.3-4.4H80v1H65z M75,36h5v7   h-5V36z M85,49H31c-0.8,0-1.5,0.7-1.5,1.5S30.2,52,31,52h54v18.5c0,1.4-1.1,2.5-2.5,2.5H51.1c-18.3,0-33.7-11.6-35-26.5   c0-0.2,0.1-0.3,0.1-0.3c0.1-0.1,0.2-0.2,0.4-0.2h56.9h8H85V49z"/></g></svg>
