<svg xmlns="http://www.w3.org/2000/svg" xmlns:xlink="http://www.w3.org/1999/xlink" version="1.1" x="0px" y="0px" viewBox="0 0 48 48" enable-background="new 0 0 100 100" xml:space="preserve">  <g
     id="layer1">
   
     <path
       d="m -4.25,-3.599976 v 55.2 h 56.5 v -55.2 h -56.5 z m 55.6,54.5 h -54.8 v -53.6 h 54.8 v 53.6 z"
       id="path808" />
    <g
       transform="translate(-114.65,-1853.2)"
       id="g812">
      <g
         id="g814">
        <path
           d="m 129.7,1860.7 c 0,0 0,0 0,0 0.1,0.2 0.2,0.3 0.4,0.4 0.6,0.6 1.3,0.9 2.1,0.9 0.8,0 1.5,-0.3 2,-0.8 0.1,-0.1 0.2,-0.2 0.3,-0.3 0,0 0,0 0,0 0.1,-0.1 0.2,-0.3 0.3,-0.4 0.5,-0.8 0.9,-1.8 0.9,-3 0,-2.5 -0.8,-4.6 -3.6,-4.6 -2.6,0 -3.6,2 -3.6,4.6 0,1.1 0.3,2.1 0.8,2.9 0.2,0 0.3,0.2 0.4,0.3 z"
           id="path816"/>
        <path
           d="m 142.4,1869.1 c -0.6,-2.9 -1.9,-5.5 -4.8,-6.1 -1.5,-0.3 -3,-0.4 -4.6,-0.5 l 0.7,0.1 -1.1,1.5 v 0.6 l 1.6,7.8 -2,2.7 -2,-2.7 1.6,-7.8 v -0.6 l -0.8,-1.5 0.5,-0.1 c -1.6,0 -3.1,0.2 -4.6,0.5 -2.9,0.5 -5,3.2 -4.8,6.1 l 0.7,12.3 h 2.9 v -11.8 h 0.9 v 12.7 h 2.5 l 1.5,20.1 h 2.1 1.5 l 1.7,-20.1 h 2.1 v -12.7 h 0.9 l 2.2,11.8 h 2.9 l -1.6,-12.3 z"
           id="path818"/>
      </g>
      <g
         id="g820">
        <path
           d="m 148.9,1883.4 h -3.6 c -0.1,0 -0.2,0.1 -0.2,0.3 v 1.1 h 3.9 v -1.1 c 0,-0.2 -0.1,-0.3 -0.1,-0.3 z"
           id="path822"
          />
        <path
           d="m 138.9,1895.6 c 0,0.2 0.1,0.3 0.3,0.3 H 155 c 0.2,0 0.3,-0.1 0.3,-0.3 v -6 h -16.5 v 6 z"
           id="path824"
            />
        <path
           d="m 155.8,1884.7 h -5.3 v -1.7 c 0,-0.2 -0.1,-0.3 -0.3,-0.3 h -6.3 c -0.2,0 -0.3,0.1 -0.3,0.3 v 1.7 h -5.2 c -0.1,0 -0.3,0.1 -0.3,0.3 v 3.6 c 0,0.1 0.1,0.2 0.2,0.2 h 17.5 c 0.1,0 0.2,-0.1 0.2,-0.2 v -3.6 c 0.1,-0.1 -0.1,-0.3 -0.2,-0.3 z m -10.7,0 v -1.1 c 0,-0.2 0.1,-0.3 0.2,-0.3 h 3.6 c 0.1,0 0.2,0.1 0.2,0.3 v 1.1 h -4 z"
           id="path826"
           />
      </g>
    </g>
  </g></svg>