<svg xmlns="http://www.w3.org/2000/svg" xmlns:xlink="http://www.w3.org/1999/xlink" version="1.1" x="0px" y="0px" viewBox="0 0 48 48" enable-background="new 0 0 100 100" xml:space="preserve">  <g
     id="layer1">
   
     <g
       transform="translate(-769.49998,-1164.8)"
       id="g522">
      <path
         d="m 783.4,1172.5 c 0,-0.2 0.1,-0.3 0.1,-0.5 0,-1 -0.6,-4.2 -0.6,-4.2 0,0 -0.3,0.4 -0.7,0.9 -0.1,-0.3 -0.2,-0.4 -0.2,-0.4 0,0 -0.2,0.4 -0.5,0.9 -0.2,-0.2 -0.4,-0.4 -0.4,-0.4 0,0 -0.6,2.2 -0.6,3.2 0,0.2 0,0.3 0.1,0.5 -1.1,0.5 -1.8,1.6 -1.8,2.9 0,1.8 1.5,3.2 3.2,3.2 1.8,0 3.2,-1.5 3.2,-3.2 -0.1,-1.2 -0.8,-2.3 -1.8,-2.9 z"
         id="path524"
        />
      <path
         d="m 784.6,1179.3 c 2.3,0 3.2,1.9 3.5,2.9 l 2.8,9.1 c 0.6,2 -1.9,2.8 -2.5,0.9 l -2.5,-8.4 h -0.7 l 4.3,14.9 h -4 v 11.6 c 0,2 -3,2 -3,0 v -11.7 h -1.2 l 0,11.7 c 0,2 -3,2 -3,0 l 0,-11.6 h -4 l 4.3,-14.9 h -0.7 l -2.5,8.4 c -0.6,1.8 -3.1,1.1 -2.5,-0.9 l 2.8,-9.1 c 0.3,-1 1.2,-2.9 3.5,-2.9 h 5.4 z"
         id="path526"
         />
      <circle
         cx="804.20001"
         cy="1175.6"
         r="3.3"
         id="circle528"
         />
      <path
         d="m 812.8,1168.4 0,-0.2 c 0,-0.6 -0.5,-1 -1,-1.1 -0.1,0 -0.2,0 -0.3,0 -0.6,0 -1.2,0.3 -1.2,1 l -0.1,2.6 -0.2,4.9 c 0,0 -0.1,0.2 -0.2,0.5 l -3,3 c -0.2,0.1 -0.4,0.2 -0.6,0.3 l -3.5,0 c -0.2,-0.1 -0.4,-0.2 -0.6,-0.3 l -3,-3 c -0.2,-0.3 -0.2,-0.5 -0.2,-0.5 l -0.2,-4.9 -0.1,-2.6 c 0,-0.7 -0.6,-1 -1.2,-1 -0.1,0 -0.2,0 -0.3,0 -0.6,0.1 -1.1,0.5 -1,1.1 l 0,0.2 c 0,0.1 0,0.1 0,0.2 l 0.2,7.8 c 0.2,2 2.9,3.7 4.1,6.2 l 0.1,1 v 0.4 l 0,0 0,26.4 c 0,1 0.8,1.8 1.8,1.8 0.1,0 0.2,0 0.2,0 0.9,-0.1 1.7,-0.9 1.7,-1.8 l 0,-15.3 h 0.8 l 0,15.3 c 0,1 0.8,1.8 1.8,1.8 0.1,0 0.2,0 0.2,0 0.9,-0.1 1.7,-0.9 1.7,-1.8 l 0,-22 h 0 v -4.5 l 0.2,-1.3 c 1.3,-2.4 3.9,-4.2 4.1,-6.2 l 0.2,-7.8 c -0.4,-0.1 -0.4,-0.1 -0.4,-0.2 z"
         id="path530"/>
    </g>
  </g></svg>