<svg xmlns="http://www.w3.org/2000/svg" xmlns:xlink="http://www.w3.org/1999/xlink" version="1.1" x="0px" y="0px" viewBox="0 0 48 48" enable-background="new 0 0 100 100" xml:space="preserve">  <g
     id="layer1">
   
      <g
       transform="translate(-115.15,-1164.2286)"
       id="g454">
      <path
         d="m 146,1164.6 c 2.1,0 3.8,1.7 3.8,3.8 0,2.1 -1.7,3.8 -3.8,3.8 -2.1,0 -3.8,-1.7 -3.8,-3.8 0,-2.1 1.7,-3.8 3.8,-3.8 z"
         id="path456"/>
      <g
         id="g458">
        <path
           d="m 142.5,1209.5 c 0,1.2 1,2.2 2.2,2.2 1.2,0 2.2,-1 2.2,-2.2 l 0,-18.1 h 1 l 0,18.1 c 0,1.2 1,2.2 2.2,2.2 1.2,0 2.2,-1 2.2,-2.2 l 0,-31.2 h 0.9 v 11.5 c 0,2.3 3,2.3 3,0 v -11.7 c 0,-2.6 -1.5,-5.1 -4.5,-5.1 l -8.6,0 c -2.7,0 -4.4,2.2 -4.4,5 v 11.8 c 0,2.3 3,2.3 3,0 v -11.5 h 1 l -0.2,31.2 z"
           id="path460"/>
        <path
           d="m 134,1174.7 c 2.7,0 3.8,2.2 4.2,3.4 l 3.3,10.8 c 0.7,2.3 -2.3,3.3 -3,1 l -3,-9.9 h -0.9 l 5.1,17.6 H 135 v 12.5 c 0,2.3 -3.5,2.3 -3.5,0 v -12.5 H 130 l -3.1,12.5 c 0,2.4 -3.5,2.4 -3.5,0 l 3.1,-12.4 h -4.7 l 5.1,-17.6 H 126 l -3,9.9 c -0.7,2.2 -3.7,1.3 -3,-1 l 3.3,-10.8 c 0.4,-1.2 1.4,-3.4 4.1,-3.4 h 6.6 l 0,-0.1 z"
           id="path462"
            />
        <path
           d="m 131.7,1166.6 c 2.1,0 3.8,1.7 3.8,3.8 0,2.1 -1.7,3.8 -3.8,3.8 -2.1,0 -3.8,-1.7 -3.8,-3.8 0,-2.1 1.7,-3.8 3.8,-3.8 z"
           id="path464"/>
      </g>
    </g>
  </g></svg>