<svg xmlns="http://www.w3.org/2000/svg" xmlns:xlink="http://www.w3.org/1999/xlink" version="1.1" x="0px" y="0px" viewBox="0 0 48 48" enable-background="new 0 0 100 100" xml:space="preserve"> <g
     id="layer1">
   
    <path
       d="m 15.549991,28.250023 c 3.2,4.4 10.3,11.1 14.1,11.3 3.7,0.2 5.5,-2.2 5.5,-2.2 l -6.39999,-6.5 c 0,0 -0.4,0.7 -1,0.8 -0.4,0 -2.7,-0.3 -6.30001,-5.4 -3.6,-5.2 -3.5,-5.7 -3.19999,-6.8 0.1,-0.3 0.6,-0.5 0.6,-0.5 l -4.9,-8.800001 c 0,0 -3.8,2.2 -3.7,5.400001 0,3 2.1,8.2 5.3,12.7 z m 14.3,1.3 6.9,6.7 c 0,0 0.7,-1.1 0.9,-1.5 0.2,-0.4 0.5,-0.7 -0.5,-1.5 -1,-0.8 -4.5,-4 -5.1,-4.4 -0.5,-0.4 -1,-0.7 -1.7,0.1 -0.5,0.7 -0.5,0.6 -0.5,0.6 z m -10,-12 c 0,0 0.1,-0.1 1,-0.5 0.9,-0.4 0.8,-1 0.5,-1.6 -0.3,-0.6 -2.4,-4.900001 -2.9,-6.0000007 -0.5,-1.1 -0.89999,-0.9 -1.3,-0.8 -0.5,0.1 -1.8,0.5 -1.8,0.5 l 4.5,8.4000007 z"
       id="path324"
       style="fill:#00568d" />
  </g></svg>