<?xml version="1.0" encoding="utf-8"?>
<!-- Generator: Adobe Illustrator 18.1.1, SVG Export Plug-In . SVG Version: 6.00 Build 0)  -->
<svg version="1.1" xmlns="http://www.w3.org/2000/svg" xmlns:xlink="http://www.w3.org/1999/xlink" x="0px" y="0px"
	 viewBox="0 0 176.7 256.4" enable-background="new 0 0 176.7 256.4" xml:space="preserve">
<g id="Layer_1" display="none">
	<g display="inline">
		<path fill="#222A2D" d="M66.7,197.3v3.3h9.6c0.5,4.2,4,7.5,8.4,7.5c4.4,0,7.9-3.3,8.4-7.5h3h31.1c0.5,4.2,4,7.5,8.4,7.5
			c4.4,0,7.9-3.3,8.4-7.5h9.2h2.2v-2.6h-2.2v-32.2H96.1v8.3h-9.3l-7.9,9.2l-9,3v11.1H66.7z M131.7,199.6c0-2.2,1.8-3.9,3.9-3.9
			s3.9,1.8,3.9,3.9c0,2.2-1.8,3.9-3.9,3.9S131.7,201.8,131.7,199.6z M81.4,183.7l6-7.7h7.5v7.7H81.4z M80.8,199.6
			c0-2.2,1.8-3.9,3.9-3.9c2.2,0,3.9,1.8,3.9,3.9c0,2.2-1.8,3.9-3.9,3.9C82.6,203.6,80.8,201.8,80.8,199.6z"/>
		<path fill="#0E74B2" d="M105.8,98.4c-2.4-3.7-3.9-8.1-3.9-12.8c0-12.8,10.4-23.1,23.1-23.1s23.1,10.4,23.1,23.1
			c0,4.1-1.1,8-3,11.3l-19.9,44.8L105.8,98.4z"/>
		<circle fill="#FFFFFF" cx="124.4" cy="85.2" r="20.7"/>
		<g>
			<defs>
				<circle id="SVGID_1_" cx="124.4" cy="85.3" r="20.4"/>
			</defs>
			<clipPath id="SVGID_2_">
				<use xlink:href="#SVGID_1_"  overflow="visible"/>
			</clipPath>
			<path clip-path="url(#SVGID_2_)" fill="#0E74B2" d="M111.7,76.7h-3.9c-1.1,0-2,0.7-2,1.7v0h0v8.1h1.8v-4.8c0.1,0,0.2,0,0.3,0h3.9
				c1.1,0,2-0.7,2-1.7v-1.7C113.7,77.4,112.8,76.7,111.7,76.7z M112.1,79.5c0,0.4-0.4,0.7-0.9,0.7h-3c0,0,0,0-0.1,0h-0.8V79h0v-0.3
				c0.1-0.3,0.4-0.5,0.8-0.5h3c0.5,0,0.9,0.3,0.9,0.7V79.5z"/>
			<path clip-path="url(#SVGID_2_)" fill="#0E74B2" d="M121.6,78c0,0,0-0.1,0-0.1c0-0.1,0-0.1-0.1-0.2c0-0.1-0.1-0.1-0.1-0.2
				c0,0,0-0.1-0.1-0.1c0-0.1-0.1-0.1-0.1-0.2c0,0,0,0-0.1-0.1c-0.1-0.1-0.1-0.1-0.2-0.2c0,0,0,0,0,0c-0.1-0.1-0.2-0.1-0.3-0.1
				c0,0,0,0,0,0c-0.1,0-0.2-0.1-0.3-0.1c0,0,0,0,0,0c-0.1,0-0.2-0.1-0.4-0.1l0,0c-0.1,0-0.2,0-0.2,0h-4.4v1.5c0,0,0.1,0,0.1,0h3.8
				c0.6-0.1,0.7,0.4,0.7,1c0,2.2,0,2.2,0,2.2c-0.1,0-0.2,0-0.3,0h-3.9c-1.1,0-2,0.7-2,1.7v1.7c0,0.8,0.8,1.5,1.8,1.6
				c0.1,0,0.2,0,0.2,0h3.9c1.1,0,2-0.7,2-1.7v0h0v-4.7v-0.6v-1.1C121.7,78.2,121.7,78.1,121.6,78z M119.9,84.2L119.9,84.2l0,0.3
				c-0.1,0.3-0.4,0.5-0.8,0.5h-3c-0.3,0-0.5-0.1-0.7-0.3c-0.1-0.1-0.2-0.3-0.2-0.5v-0.6c0-0.2,0.1-0.3,0.2-0.5
				c0.2-0.2,0.4-0.3,0.7-0.3h3c0,0,0,0,0.1,0h0.8V84.2z"/>
			<path clip-path="url(#SVGID_2_)" fill="#0E74B2" d="M130,83.7l0-0.6l0-6.4l-1.4,0l0,4.3h-2.9v0h-0.1c-0.1,0-0.2,0-0.2-0.1
				c-0.1,0-0.1-0.1-0.2-0.1c-0.1-0.1-0.3-0.4-0.3-0.6l0-3.4c0,0,0,0,0-0.1l-1.4,0l0,3.9c0,0.1,0,0.1,0,0.2l0,0c0,0.1,0,0.2,0.1,0.3
				c0,0,0,0,0,0c0,0.1,0.1,0.2,0.1,0.3c0,0,0,0,0,0c0,0.1,0.1,0.2,0.1,0.2c0,0,0,0,0,0c0,0.1,0.1,0.1,0.1,0.2c0,0,0,0,0.1,0.1
				c0,0,0.1,0.1,0.1,0.1c0,0,0.1,0,0.1,0.1c0,0,0.1,0.1,0.1,0.1c0.1,0,0.1,0,0.2,0.1c0,0,0.1,0,0.1,0c0.1,0,0.2,0,0.3,0l1,0l0.6,0
				l2,0l0,1.6l0,0l0,0.1c0,0.1,0,0.2-0.1,0.2c0,0.1-0.1,0.1-0.1,0.2c-0.1,0.2-0.4,0.3-0.6,0.3l-3.4,0c0,0,0,0-0.1,0l0,1.4l3.9,0
				c0.1,0,0.1,0,0.2,0l0,0c0.1,0,0.2,0,0.3-0.1c0,0,0,0,0,0c0.1,0,0.2-0.1,0.3-0.1c0,0,0,0,0,0c0.1,0,0.2-0.1,0.2-0.1c0,0,0,0,0,0
				c0.1,0,0.1-0.1,0.2-0.1c0,0,0,0,0.1-0.1c0,0,0.1-0.1,0.1-0.1c0,0,0-0.1,0.1-0.1c0,0,0.1-0.1,0.1-0.1c0-0.1,0-0.1,0.1-0.2
				c0,0,0-0.1,0-0.1c0-0.1,0-0.2,0-0.3L130,83.7z"/>
			<path clip-path="url(#SVGID_2_)" fill="#00A1DD" d="M138.7,76.7v6.8c0,0.8-0.6,1.4-1.4,1.4h-3c-0.8,0-1.4-0.6-1.4-1.4v-6.8h-1.7
				v8c0,0.9,1,1.7,2.2,1.7h4.8c1.2,0,2.2-0.8,2.2-1.7v-8H138.7z"/>
			<g clip-path="url(#SVGID_2_)">
				<text transform="matrix(1 0 0 1 128.8392 92.4784)" fill="#0E74B2" font-family="'MyriadPro-Regular'" font-size="5.1003">INDIA</text>
			</g>
		</g>
		<g>
			<defs>
				<circle id="SVGID_3_" cx="125.2" cy="85.5" r="20.7"/>
			</defs>
			<clipPath id="SVGID_4_">
				<use xlink:href="#SVGID_3_"  overflow="visible"/>
			</clipPath>
		</g>
		<path fill="#0CE9F4" d="M69.9,186.2v11.1h6.7c1.2-3.4,4.2-6,8.1-6c3.6,0,7.1,2.6,8.3,6h3.2v-23h-0.2V174h-9.3l-7.9,9.2L69.9,186.2
			z M81.4,183.7l6-7.7h7.5v7.7H81.4z"/>
		<path fill="#42555E" d="M153.2,165.7v32.2h2.2v0.7h-11.1c-0.3-4.3-4.4-7.8-8.6-7.8c-4.5,0-8,3.5-8.6,7.8H96.4v-32.9H153.2z"/>
	</g>
	<path display="inline" fill="#0E74B2" d="M77,71.7c0,0,0-0.1,0-0.1C77,71.7,77,71.7,77,71.7z"/>
	<path display="inline" fill="#0E74B2" d="M77.5,72.4c-0.1-0.1-0.1-0.1-0.2-0.2C77.4,72.3,77.4,72.4,77.5,72.4z"/>
	<path display="inline" fill="#0E74B2" d="M77.2,72.1c0-0.1-0.1-0.1-0.1-0.2C77.1,72,77.2,72.1,77.2,72.1z"/>
	<path display="inline" fill="#0E74B2" d="M77.8,72.7c0.1,0.1,0.2,0.1,0.3,0.2C78,72.8,77.9,72.8,77.8,72.7z"/>
	<path display="inline" fill="#0E74B2" d="M77.5,72.5c0.1,0.1,0.2,0.1,0.2,0.2C77.7,72.6,77.6,72.6,77.5,72.5z"/>
	<path display="inline" fill="#0E74B2" d="M78.2,72.9c0.1,0.1,0.2,0.1,0.4,0.1C78.4,73,78.3,73,78.2,72.9z"/>
	<path display="inline" fill="#0E74B2" d="M78.5,73c0.1,0,0.3,0.1,0.4,0.1C78.8,73.1,78.7,73.1,78.5,73z"/>
</g>
<g id="Layer_2">
	<path fill="#003B4F" d="M135.3,150.9c0-1.1-0.9-2-2-2H75c-1.1,0-2,0.9-2,2v39.7c0,1.1,0.9-0.1,2-0.1h58.2c1.1,0,2-0.9,2-2V150.9z"
		/>
	<path fill="#414042" d="M139.2,193.9c0,1.1-0.9,2-2,2h-96c-1.1,0-2-0.9-2-2v-3.2c0-1.1,0.9-2,2-2h96c1.1,0,2,0.9,2,2V193.9z"/>
	<path fill="#C7CB36" d="M71.1,156.6h-16c-1.1,0-2.5,0.7-3.2,1.6l-7.8,16.6c-0.7,0.9-1.2,2.4-1.2,3.5v11.3c0,1.1,0.9,2,2,2l26.2-0.2
		c1.1,0,2,0.8,2-0.3v-32.4C73.1,157.5,72.2,156.6,71.1,156.6z M70.5,172.9c0,1.1-0.9,2-2,2l-18.1,0c-1.1,0-1.6-0.8-1.2-1.8l4.8-11.1
		c0.4-1,1.7-1.8,2.7-1.8h11.7c1.1,0,2,0.9,2,2V172.9z"/>
	<g>
		<g>
			<g>
				<path fill="#213228" d="M62.1,186c-5.2,0-9.4,4.2-9.4,9.4c0,5.2,4.2,9.4,9.4,9.4c5.2,0,9.4-4.2,9.4-9.4
					C71.5,190.2,67.3,186,62.1,186z M62.1,199.3c-2.1,0-3.8-1.7-3.8-3.8c0-2.1,1.7-3.8,3.8-3.8c2.1,0,3.8,1.7,3.8,3.8
					C65.9,197.6,64.2,199.3,62.1,199.3z"/>
			</g>
		</g>
		<g>
			<path fill="#213228" d="M119.4,186.4c-5.2,0-9.4,4.2-9.4,9.4c0,5.2,4.2,9.4,9.4,9.4c5.2,0,9.4-4.2,9.4-9.4
				C128.8,190.6,124.6,186.4,119.4,186.4z M119.4,199.6c-2.1,0-3.8-1.7-3.8-3.8c0-2.1,1.7-3.8,3.8-3.8s3.8,1.7,3.8,3.8
				C123.3,197.9,121.6,199.6,119.4,199.6z"/>
		</g>
		<circle fill="#ABACA6" cx="62.1" cy="195.4" r="3.8"/>
		<circle fill="#ABACA6" cx="119.4" cy="195.8" r="3.8"/>
	</g>
	<path fill="#003B4F" d="M69.3,179.3c0,0.4-0.3,0.7-0.7,0.7h-3.8c-0.4,0-0.7-0.3-0.7-0.7l0,0c0-0.4,0.3-0.7,0.7-0.7h3.8
		C69,178.6,69.3,179,69.3,179.3L69.3,179.3z"/>
	<path fill="#EF6522" d="M41.6,183.9c0,1.6,0.6,2.9,1.3,2.9l0,0c0-2.1,0-2.7,0-6.6l0,0c-0.7,0-1.3,1.3-1.3,2.9V183.9z"/>
	<path fill="#0E74B2" d="M122.4,86.7c2.4-3.7,3.9-8.1,3.9-12.8c0-12.8-10.4-23.1-23.1-23.1S80,61.1,80,73.9c0,4.1,1.1,8,3,11.3
		l19.9,44.8L122.4,86.7z"/>
	<circle fill="#FFFFFF" cx="103.1" cy="73.5" r="21"/>
	<g>
		<path fill="#BF070E" d="M108.2,69.1c0-1.4,0-2.7,0-3.9c0-0.4,0-0.9,0.3-1.3c0.5-0.8,1.5-0.7,1.9,0.1c0.1,0.3,0.2,0.6,0.2,1
			c0,4.4,0,8.7,0,13.1c0,0.5-0.1,1.1-0.6,1.4c-0.6,0.4-1.5,0.3-1.9-1c-0.4,0.6-0.9,1.1-1.6,1.2c-1.4,0.3-2.5-0.2-3.4-1.3
			c-0.9-1-1.3-2.3-1.4-3.7c-0.1-1.4,0-2.8,0.6-4.1c0.3-0.8,0.8-1.4,1.5-1.9c1.1-0.8,2.7-0.8,3.8,0C107.8,68.8,107.9,68.9,108.2,69.1
			z M108.2,73.8c0-0.8-0.2-1.7-0.6-2.2c-0.6-1-1.9-1.1-2.6-0.2c-1,1.2-1,3.7,0,4.9c0.8,0.9,2,0.8,2.6-0.2
			C108,75.4,108.1,74.7,108.2,73.8z"/>
		<path fill="#1B9FCB" d="M96.1,79.7c-1-0.1-2-0.4-2.8-1.2c-0.6-0.6-0.7-1.4-0.2-2c0.3-0.5,0.8-0.6,1.3-0.4c0.3,0.2,0.7,0.4,1,0.6
			c0.4,0.2,0.8,0.4,1.3,0.3c0.3,0,0.7-0.1,0.8-0.5c0.1-0.4,0-0.7-0.3-1c-0.4-0.3-1-0.5-1.4-0.8c-0.3-0.2-0.6-0.3-0.9-0.5
			c-1.4-0.8-1.8-2-1.6-3.5c0.2-1.3,1-2.3,2.3-2.7c1.3-0.3,2.5-0.1,3.5,0.8c0.6,0.5,0.7,1.2,0.4,1.9c-0.3,0.7-0.8,0.9-1.4,0.5
			c-0.4-0.2-0.7-0.4-1.1-0.6c-0.2-0.1-0.4-0.1-0.7-0.1c-0.4,0-0.6,0.2-0.8,0.5c-0.1,0.3,0,0.6,0.2,0.8c0.4,0.4,1,0.6,1.5,0.8
			c0.9,0.5,1.8,1,2.3,2C100.3,76.9,99.2,79.7,96.1,79.7z"/>
	</g>
	<path fill="#FDFDFD" d="M120,73.5c0.3,0,0.5,0.2,0.5,0.4c0,0.3-0.2,0.5-0.5,0.5c-0.3,0-0.5-0.2-0.5-0.5
		C119.5,73.7,119.7,73.5,120,73.5z"/>
</g>
<g id="Layer_3" display="none">
	<g display="inline">
		<path fill="#222A2D" d="M45.2,189.6v3.3h9.6c0.5,4.2,4,7.5,8.4,7.5c4.4,0,7.9-3.3,8.4-7.5h3h31.1c0.5,4.2,4,7.5,8.4,7.5
			c4.4,0,7.9-3.3,8.4-7.5h9.2h2.2v-2.6h-2.2V158H74.6v8.3h-9.3l-7.9,9.2l-9,3v11.1H45.2z M110.2,191.9c0-2.2,1.8-3.9,3.9-3.9
			c2.2,0,3.9,1.8,3.9,3.9c0,2.2-1.8,3.9-3.9,3.9C112,195.9,110.2,194.1,110.2,191.9z M59.9,176l6-7.7h7.5v7.7H59.9z M59.3,191.9
			c0-2.2,1.8-3.9,3.9-3.9c2.2,0,3.9,1.8,3.9,3.9c0,2.2-1.8,3.9-3.9,3.9C61.1,195.9,59.3,194.1,59.3,191.9z"/>
		<path fill="#0E74B2" d="M84.3,90.7c-2.4-3.7-3.9-8.1-3.9-12.8c0-12.8,10.4-23.1,23.1-23.1s23.1,10.4,23.1,23.1c0,4.1-1.1,8-3,11.3
			L103.8,134L84.3,90.7z"/>
		<g>
			<defs>
				<circle id="SVGID_5_" cx="103.7" cy="77.7" r="20.7"/>
			</defs>
			<clipPath id="SVGID_6_">
				<use xlink:href="#SVGID_5_"  overflow="visible"/>
			</clipPath>
			<g clip-path="url(#SVGID_6_)">
				<path fill="#FFFFFF" d="M109.7,69c0.9-1.5,2.5-2.5,4.2-2.7c0.7-0.1,1.6-0.2,2.1,0.3c0.3,0.5,0.4,1.2,0.4,1.8
					c0.1,0.5-0.5,0.7-0.9,0.7c-0.8,0-1.6,0-2.2,0.6c-0.9,0.8-0.9,2.1-1.1,3.2c0.6,0,1.2-0.1,1.9,0c0.5,0.2,0.4,0.8,0.3,1.3
					c-0.1,0.6-0.3,1.4-1,1.5c-0.6,0.1-1.2,0-1.7,0c-0.4,2.2-0.8,4.3-1.1,6.5c-0.2,1.1-0.3,2.4-0.9,3.4c-0.8,1.5-2.5,2.2-4.1,2.2
					c-2.3,0-4.5,0-6.8,0c-0.2,0-0.4-0.1-0.3-0.3c0.1-0.7,0.3-1.4,0.5-2.1c0.1-0.4,0.4-0.8,0.8-0.7c1.6,0,3.1,0,4.7,0
					c0.5,0,1.1-0.1,1.5-0.4c0.4-0.3,0.7-0.8,0.8-1.4c0.4-2.4,0.9-4.8,1.3-7.3c-0.9-0.1-1.8,0.1-2.6-0.1c-0.2-0.7-0.4-1.4-0.5-2.1
					c0-0.2,0-0.5,0.2-0.6c1.1,0,2.3,0,3.4,0C108.8,71.5,109,70.1,109.7,69L109.7,69z"/>
				<path fill="#DDBF11" d="M89.6,72.9c4.4-0.1,8.7,0,13.1,0c0.3,0,0.5,0,0.8,0.1c0.3,0.4,0.3,0.8,0.4,1.3c0,0.3-0.3,0.4-0.5,0.4
					c-3.5,0-7.1,0-10.7,0c-0.4,0-1-0.1-1.3,0.3C91,75.1,91,75.6,91.2,76c0.6,1.1,1.3,2.3,1.9,3.4c0.3,0.6,1,0.9,1.7,0.9
					c3,0,5.9,0,8.9,0c0.4,0,0.8,0.2,0.9,0.6c0.2,0.6,0.3,1.2,0.4,1.7c0.1,0.5-0.3,0.9-0.8,0.9c-3.6,0-7.1,0-10.7,0
					c-0.7,0-1.4-0.5-1.8-1.1c-1.3-2.2-2.6-4.5-3.8-6.7C87.5,74.5,88.3,72.9,89.6,72.9L89.6,72.9z"/>
				<path fill="#DDBF11" d="M99,89.1c1.3-0.5,3,0.6,2.9,2c0.1,1.3-1.1,2.4-2.3,2.3c-1.1,0-2.1-1.1-2.1-2.3
					C97.5,90.2,98.1,89.4,99,89.1L99,89.1z"/>
				<path fill="#DDBF11" d="M106.4,89c1.2-0.3,2.5,0.5,2.7,1.7c0.3,1.1-0.5,2.3-1.6,2.6c-1.2,0.4-2.7-0.6-2.7-2
					C104.6,90.3,105.4,89.3,106.4,89L106.4,89z"/>
				<path fill="#DDBF11" d="M111,90.7c0-0.3,0.1-0.5,0.1-0.8c3.7,0.2,7.5,0.2,11.2,0.4C118.5,90.5,114.7,90.6,111,90.7L111,90.7z"/>
				<path fill="#DDBF11" d="M110.9,91.8c2,0.1,4.1,0.3,6.1,0.3c-2.1,0.2-4.1,0.3-6.2,0.5C110.8,92.3,110.8,92,110.9,91.8L110.9,91.8
					z"/>
			</g>
		</g>
		<path fill="#F22F2F" d="M48.4,178.4v11.1h6.7c1.2-3.4,4.2-6,8.1-6c3.6,0,7.1,2.6,8.3,6h3.2v-23h-0.2v-0.2h-9.3l-7.9,9.2
			L48.4,178.4z M59.9,176l6-7.7h7.5v7.7H59.9z"/>
		<path fill="#42555E" d="M131.7,158v32.2h2.2v0.7h-11.1c-0.3-4.3-4.4-7.8-8.6-7.8c-4.5,0-8,3.5-8.6,7.8H74.9V158H131.7z"/>
	</g>
</g>
</svg>
